<?xml version="1.0" encoding="utf-8"?>
<!-- Generator: Adobe Illustrator 23.0.0, SVG Export Plug-In . SVG Version: 6.00 Build 0)  -->
<svg version="1.1" id="Layer_1" xmlns="http://www.w3.org/2000/svg" xmlns:xlink="http://www.w3.org/1999/xlink" x="0px" y="0px"
	 viewBox="0 0 200 82.56" style="enable-background:new 0 0 200 82.56;" xml:space="preserve">
<style type="text/css">
	.st0{fill:#333333;}
	.st1{fill:#FFFFFF;}
	.st2{fill:none;stroke:#000000;stroke-linecap:round;stroke-linejoin:round;stroke-miterlimit:10;}
</style>
<g>
	<g>
		<g>
			<path d="M167.54,1.68c0-0.4-0.2-0.5-0.6-0.5c-1.6,0-2.6,1.6-2.7,4.8c-0.1,1.7-0.1,3.9,0.1,6.5c-0.2,1.1-0.2,3.1,0,6
				c-0.3,1.4-1.1,2.5-2.4,3.3l-0.2,2.1c2.4-0.2,3.8-1.6,4.1-4.2l-0.3-6.6v-5.6c0.2-1.3,0.6-2.5,1.2-3.4c0.5-0.9,0.8-1.7,0.8-2.2
				L167.54,1.68"/>
			<path class="st0" d="M166.76,4.08c-0.6,0.9-1,2.1-1.2,3.4v5.6l0.3,6.6c-0.3,2.6-1.7,4-4.1,4.2v0.1l-1.3,13.4l-0.3,2.9h1.1
				c4.2,0,7.9-1.3,11.1-3.9l2-1.9c3.6-3.9,5.4-8.6,5.4-14.1s-1.8-10.2-5.4-14.1c-2-2.1-4.2-3.6-6.7-4.6l-0.1,0.2
				C167.54,2.38,167.26,3.18,166.76,4.08"/>
			<path class="st1" d="M150.95,18.98c-0.3-0.5-0.8-0.7-1.5-0.7c-0.5,0-1.2,0.5-2.2,1.5l4.7,0.5L150.95,18.98"/>
			<path class="st1" d="M144.76,17.58c-0.7,0-1.3,0.3-1.8,0.8l-0.7,1.1l4.3,0.2C146.14,18.28,145.45,17.58,144.76,17.58"/>
			<path d="M141.95,19.78v-0.3l-4.1-0.1l-0.1,0.2l-0.1-0.2h-0.3l-3.8,0.1l-0.1,0.1v-0.1l-0.7,0.1l-4,0.4l-5.2,0.7h-0.1l-4.9,1
				l-0.6,0.6v-0.4l-0.2,0.1l0,0v-0.2c-0.1-1.5-0.6-2.2-1.5-2.2c-1.6,0-2.4,1.5-2.5,4.5l4-2.1l0.2-0.1h-0.1l-0.1-0.1v0.2l0,0l-4,2.1
				l-0.2,0.2l-0.1,0.8l0.1-0.8v-0.1l-0.8,0.4c-0.7,0-1.3-0.2-1.8-0.6l-1.4-1.1l-0.1,0.2v-0.2l-0.4-0.3c-1-0.5-2.4-0.9-4.2-1.2
				l-0.4,0.4l-0.1-0.4l-4.6-0.5v0.2v-0.2l-4.9-0.2l-0.1,0.4l-0.1-0.4h-2.4h-2.5l-5.3,0.4l-0.5,1.2l-0.6-1l-5.1,0.8v0.2l-0.1-0.2
				l-4.3,0.9l-0.1,0.3l-0.3-0.2l-4,1v0.7l-0.2-0.7l-2.8,0.8l-1.5,0.6v0.1v0.2l-0.1-0.3l-3.9,1.5v0.3l-0.2-0.2l-4.1,1.5
				c-0.5,0.1-0.9,0.3-1.1,0.4l-0.7,0.2l0.2,0.6l0.5,0.1l2.1-0.4l10.4-3.5c8.6-2.6,16.7-3.9,24.3-3.9c8.8,0,14.3,0.6,16.6,1.9
				l1.7,1.3c0.5,0.4,1.2,0.6,2.2,0.6c0.3,0,2.2-0.8,5.5-2.5c4.8-1.7,11.1-2.6,19-2.6c8.1,0,15.3,0.9,21.5,2.7h-0.1
				c0.2,0.2,0.7,0.4,1.5,0.4h0.1h0.1h0.6h0.7l0.2-2.1l-1.9,0.8l-2.6-1c-1.6-0.5-3.4-0.9-5.5-1.3l-4.7-0.5l-0.5,0.5l-0.2-0.6
				l-4.3-0.2L141.95,19.78"/>
			<polyline points="141.95,19.48 141.95,19.78 142.26,19.48 141.95,19.48 			"/>
			<polyline points="146.54,19.68 146.76,20.28 147.26,19.78 146.54,19.68 			"/>
			<path class="st1" d="M153.54,19.08c-0.8,0.4-1.3,0.8-1.6,1.2c2.1,0.4,3.9,0.8,5.5,1.3l2.6,1l1.9-0.8c-0.1-0.4-0.3-0.8-0.7-1.2
				c-0.5-0.7-1.1-1-1.8-1l-1.3,0.1l-0.7,1.6l-0.2-0.2l-0.6-1.9c-0.1-0.4-0.6-0.6-1.4-0.6C154.85,18.58,154.26,18.78,153.54,19.08"/>
			<path class="st0" d="M158.76,23.48h0.1c-6.2-1.8-13.4-2.7-21.5-2.7c-7.9,0-14.2,0.9-19,2.6c-3.3,1.7-5.2,2.5-5.5,2.5
				c-1,0-1.7-0.2-2.2-0.6l-1.7-1.3c-2.3-1.3-7.8-1.9-16.6-1.9c-7.6,0-15.7,1.3-24.3,3.9l-10.4,3.5l1.9,16.4l100.9-8.5l1.3-13.4
				l-0.7-0.1h-0.6h-0.1h-0.1C159.45,23.88,158.95,23.68,158.76,23.48"/>
			<path class="st1" d="M160.04,41.68l0.1-1.4l0.3-2.9l-100.9,8.5l-17.1,0.2h-4.7l0.1,1.9l0.5,0.5l-0.2,1l22.1,0.2l34-2.7l2.3-0.2
				l0.9-1.1c0.4,0.2,0.6,0.5,0.6,0.9v0.1l36-2.9l0.2-0.3l0.6-0.1l0.6,0.3l0.4-0.1L160.04,41.68"/>
			<path class="st1" d="M160.14,40.28l-0.1,1.4l-0.2,1.4l0.5,1.1l1.9-1.6c-0.1,1.5,0,2.5,0.2,2.8c0.2,0.5,0.7,0.7,1.7,0.7
				c0.8,0,1.6-0.4,2.3-1.1c0.7-0.7,1-1.5,1-2.4c0.5,1.3,1.3,2,2.4,2c1.1,0,1.7-0.4,2-1.2c0.2-0.6,0.1-1.8-0.1-3.6h0.2
				c0.8,0.7,1.4,1,1.9,1c1.6,0,2.4-0.7,2.4-2.1c0-0.3-0.6-1-1.8-2.1l-2.1-0.2c-3.2,2.6-6.9,3.9-11.1,3.9L160.14,40.28"/>
			<path class="st0" d="M159.45,42.18l0.4,0.9l0.2-1.4l-24.2,1.9v0.4l0.2,0.3h1.4c1.2,1,1.9,2,2,3.1c0,1.2-0.7,2.2-2.1,3l0.1,0.3
				c1.7,0.6,2.5,1.6,2.5,3c0,1.2-0.2,2-0.6,2.4c-0.4,0.5-1.2,0.8-2.3,1l0,0l1.7,3.3c0,1.3-1.6,1.9-4.7,1.7l-0.2,0.2l-0.2,0.3
				l0.3,2.5c0,0.7-0.1,1.3-0.5,1.7c-0.3,0.4-0.8,0.5-1.5,0.5c-0.3,0-1.3-0.4-2.8-1.2l-0.3,0.2c0.5,3-0.7,4.5-3.5,4.5
				c-1,0-1.7-0.1-2.1-0.5l-1.2-1.6c0,1.4-0.3,2.5-1,3.1c1.3,0.9,2.1,1.3,2.4,1.3c4.7,0,8.1-1.6,10.2-4.8l0.6-1l1.8-2.4
				c1.1-1,2.6-1.5,4.5-1.5c1.4,0,2.5,0.4,3.4,1.1l-3.7-15.2v-1.2v1.2l3.7,15.2c0.6,0.4,1.1,1,1.6,1.8l1.8,2.8c2.2,0,3.9-0.6,5-1.9
				l2.1-3.8c0.4-0.9,0.8-1.6,1.3-2.2c-1.8-3.5-3.6-7.8-5.5-12.6c1.9,4.8,3.7,9.1,5.5,12.6c0.5-0.6,1.1-1,1.6-1.3
				c1.7-0.9,4.3-1.1,7.6-0.6c-4.1-10.2-6.1-15.7-6.1-16.2C158.85,42.48,159.04,42.18,159.45,42.18"/>
			<path d="M159.85,43.08l-0.4-0.9c-0.4,0-0.6,0.3-0.6,0.9c0,0.5,2,6,6.1,16.2c-3.3-0.5-5.9-0.3-7.6,0.6c-0.5,0.3-1.1,0.7-1.6,1.3
				l0.7,1.4l0.9-1.4l0.5-0.2l5-0.2l-0.4-1.2l0.4,1.2l3.1-0.1c0.4-0.2,0.6-0.4,0.6-0.7l-6.2-15.8L159.85,43.08"/>
			<path class="st1" d="M129.76,18.08l-1,1.7c0-1.1-0.6-1.7-1.9-1.7c-1.9,0-3,0.8-3.4,2.5l0.1,0.1l5.2-0.7l4-0.4l0.7-0.1l-0.4-1
				c-0.3-0.6-0.8-0.9-1.2-0.9C130.85,17.58,130.14,17.78,129.76,18.08"/>
			<path class="st1" d="M123.45,20.58c-0.5-1.4-1-2-1.5-2c-0.9,0-1.5,0.2-1.7,0.7l-1.7,2.4l4.9-1L123.45,20.58"/>
			<path class="st1" d="M136.04,17.08c-0.5,0-1.1,0.3-1.5,0.9l-1,1.5l3.8-0.1h0.3C137.26,17.88,136.64,17.08,136.04,17.08"/>
			<polyline points="133.54,19.48 133.45,19.48 133.45,19.58 133.54,19.48 			"/>
			<polyline points="137.85,19.38 137.64,19.38 137.76,19.58 137.85,19.38 			"/>
			<path class="st1" d="M139.76,17.08c-0.7,0.6-1.3,1.4-1.9,2.3l4.1,0.1C141.85,18.08,141.14,17.18,139.76,17.08"/>
			<polyline points="104.34,21.38 104.45,21.78 104.84,21.38 104.34,21.38 			"/>
			<path class="st1" d="M104.34,21.38l-0.3-1.3c-0.3-0.7-0.9-1-1.7-1c-1.6,0-2.4,0.6-2.6,1.8L104.34,21.38"/>
			<path class="st1" d="M105.64,20.38l-0.8,1c1.8,0.3,3.2,0.7,4.2,1.2l0.4,0.3c-0.1-1.9-0.9-2.8-2.4-2.8
				C106.34,20.08,105.84,20.18,105.64,20.38"/>
			<polyline points="109.45,23.08 109.56,22.88 109.45,22.88 109.45,23.08 			"/>
			<path class="st1" d="M109.56,22.88l1.4,1.1c0.5,0.4,1.1,0.6,1.8,0.6l0.8-0.4l-0.3-1.4c-0.3-1.3-0.8-2-1.7-2
				c-0.2,0-0.6,0.3-1.2,0.9L109.56,22.88"/>
			<polyline points="113.56,24.18 113.56,24.28 113.74,24.08 113.56,24.18 			"/>
			<polyline points="118.54,21.68 117.95,21.88 117.95,22.28 118.54,21.68 			"/>
			<path d="M135.45,43.68l-0.6-0.3l-0.6,0.1l-0.1,0.3l-0.1,0.2l1.2,3.5c0.7,2.5,1.1,4.5,1.1,6c0,2.7-1.2,5.3-3.5,7.9
				c-3.8,4.3-9.7,6.4-17.8,6.4c-12.2,0-18.2-5.5-18.2-16.5l1.2-4.6v-0.1c0-0.4-0.2-0.7-0.6-0.9l-0.9,1.1c-0.4,0.7-0.7,1.6-0.8,2.7
				l0.7,0.3l-0.8,0.1l-0.1,1.5c0,1.6,0.2,3.1,0.4,4.4c0.4,1.9,0.9,3.6,1.8,5.1l0.2,0.3c1,1.9,2.4,3.4,4.1,4.6c1.6,1.1,3.6,2,6,2.6
				l5.1,0.8h0.2c0.7,0,1.1,0.1,1.3,0.4l0.6-0.8l0.7,1.6l0.3,0.1l-0.1-0.8c0-0.5,0.3-0.7,0.7-0.7l0.9,0.2l4.3-0.5l-0.1-0.1v-0.3
				l0.1,0.4c2.5-0.5,4.8-1.4,6.8-2.4l-0.1-0.5l0.4,0.3c1.7-1,3.2-2.1,4.5-3.5l-0.2-0.5h0.6c1.4-1.6,2.4-3.3,3-5h-0.1h0.1
				c0.3-1.2,0.5-2.4,0.5-3.5l-0.1-2.9l-0.5-0.1l0.4-0.2c-0.2-3-0.7-5-1.3-6.1l-0.2-0.3L135.45,43.68"/>
			<path class="st1" d="M135.26,47.48l-1.2-3.5v-0.2l-36,2.9l-1.2,4.6c0,11,6,16.5,18.2,16.5c8.1,0,14-2.1,17.8-6.4
				c2.3-2.6,3.5-5.2,3.5-7.9C136.35,51.98,135.95,49.98,135.26,47.48"/>
			<path class="st1" d="M139.45,47.38c-0.1-1.1-0.8-2.1-2-3.1h-1.4c0.6,1.1,1.1,3.1,1.3,6.1C138.76,49.58,139.45,48.58,139.45,47.38
				"/>
			<polyline points="137.35,50.38 136.95,50.58 137.45,50.68 137.35,50.38 			"/>
			<path class="st1" d="M137.45,50.68l0.1,2.9c0,1.1-0.2,2.3-0.5,3.5c1.1-0.2,1.9-0.5,2.3-1c0.4-0.4,0.6-1.2,0.6-2.4
				C139.95,52.28,139.14,51.28,137.45,50.68"/>
			<polyline points="134.04,62.08 133.45,62.08 133.64,62.58 133.85,62.28 134.04,62.08 			"/>
			<polyline points="137.04,57.08 136.95,57.08 137.04,57.08 137.04,57.08 			"/>
			<path class="st1" d="M138.76,60.38l-1.7-3.3c-0.6,1.7-1.6,3.4-3,5C137.14,62.28,138.76,61.68,138.76,60.38"/>
			<polyline points="129.14,66.08 128.76,65.78 128.85,66.28 129.14,66.08 			"/>
			<polyline points="121.95,68.28 121.95,68.58 122.04,68.68 121.95,68.28 			"/>
			<path class="st1" d="M123.25,70.28c0.4,0.4,1.1,0.5,2.1,0.5c2.8,0,4-1.5,3.5-4.5c-2,1-4.3,1.9-6.8,2.4L123.25,70.28"/>
			<path class="st1" d="M136.64,66.18c-0.7,0.6-1.6,1.7-2.6,3.4c-2.1,3.2-4.8,4.8-8.1,4.8c-2.4,0-4.6-0.7-6.3-2l-0.1-0.1h-0.4h-0.1
				h-0.2c-1.1,0-1.8-0.2-2.2-0.6l-0.7-1.3l-0.8-0.1l-0.6,0.1l-0.2-0.2l-0.2,0.4c-0.3,0.4-0.5,0.7-0.7,1.1c-0.1,0.5-0.8,0.6-1.9,0.6
				l-1.6-0.3l-0.2-0.1l-2.9,1.6c-3.4,2.2-6.1,3.2-8,3.2c-1.7,0-3.1-0.5-4.1-1.4c-0.5-0.5-1.2-1.6-2.1-3.1c-1.7-3.1-4.2-4.6-7.6-4.6
				c-2.7,0-5.1,1.3-7.3,3.9c-2.2,2.7-4.9,3.9-7.9,3.9c-1.2,0-2.1-0.3-2.6-1l-0.9-2.4c-0.7-2.3-2.4-3.4-5.1-3.4
				c-1.9,0-3.8,0.4-5.5,1.2c-1.8,0.7-3.2,1.1-4.3,1.1c-1.4,0-2.6-1-3.6-3.1c-0.9-2.2-2.7-3.2-5.2-3.2l-6.4,0.5l-0.3,2
				c0,1,0.7,1.5,2,1.5l1.4-0.2c0.4-0.2,0.7-0.7,0.9-1.8l0.9,3.6c0.4,0.9,1,1.4,1.8,1.4l1-0.1l1.3-1.7c0.5,0.6,1.2,1.6,1.8,3.2
				c0.6,1.2,1.1,1.8,1.4,1.8l1.8-0.6c0.9-0.5,1.6-1.1,2-1.9h0.2c0.1,1.4,0.6,2.5,1.4,3.4c0.6,0.8,1.2,1.1,1.7,1.1l3.9-2.5
				c0.5,0,1.9,1.1,4.3,3.3c0.7,0,1.9-0.9,3.5-2.5l2.1,2.5c1,1,1.8,1.5,2.4,1.5l4-2.8l1.7,1.7c1,1,1.9,1.6,2.5,1.6
				c0.5,0,1.1-0.4,1.9-1.4c0.8-0.9,1.5-1.4,2.2-1.4c0.5,0,1,0.5,1.7,1.4c0.6,1,1.1,1.4,1.2,1.4c0.6,0,1.8-0.8,3.8-2.3l3.6,2.8
				c0.4,0,1.2-0.4,2.5-1c0.4,0,2,1,4.7,3c1.5,0,2.8-0.8,3.9-2.3c1.9,1.2,3.1,1.8,3.5,1.8c1,0,2.4-1.3,4.4-3.8c0.3,0,0.7,0.3,1.2,0.8
				s1,0.7,1.4,0.7c0.9,0,1.8-0.8,2.9-2.5c0.3,0,1.5,0.9,3.4,2.8c0.3-0.7,1-1.4,2.1-2.2c1-0.7,1.7-1.1,2.1-1.1c0.8,0,1.9,0.9,3.4,2.5
				c0.7,0,1.4-0.3,2.3-1l1.7-1c3.2,1.5,5.1,2.3,5.6,2.3s1.2-0.5,2.1-1.6s1.4-2.1,1.4-2.9l3,2.5l1.5-1.9c1-1,1.8-1.6,2.4-1.6
				c0.8,0,1.8,0.3,3,1l1.7-1.9l1.4-2.4l2.3,1.3c1,0,2.3-0.9,4-2.8c1.5-1.7,2.2-2.9,2.2-3.6l-1.6-4.4l-5,0.2l-0.5,0.2l-0.9,1.4
				l-0.1,0.1l-1.5,2.9l-1.5,2.7c-1.3,1.4-3,2.1-5.1,2.1c-1.1,0-2.2-0.9-3.6-2.8l-0.5-0.8c-1.1-1.4-1.9-2.1-2.4-2.1
				C139.64,64.68,137.95,65.18,136.64,66.18"/>
			<path d="M134.04,69.58c1-1.7,1.9-2.8,2.6-3.4c1.3-1,3-1.5,5.1-1.5c0.5,0,1.3,0.7,2.4,2.1l-0.2-2.3c-0.9-0.7-2-1.1-3.4-1.1
				c-1.9,0-3.4,0.5-4.5,1.5l-1.8,2.4l-0.6,1c-2.1,3.2-5.5,4.8-10.2,4.8c-0.3,0-1.1-0.4-2.4-1.3l-1.1,0.4c0.4,0,0.7-0.3,0.9-0.5
				l0.2,0.1c0.7-0.6,1-1.7,1-3.1l-4.3,0.5l-0.9-0.2c-0.4,0-0.7,0.2-0.7,0.7l0.1,0.8l-0.3-0.1l0.7,1.3c0.4,0.4,1.1,0.6,2.2,0.6h0.2
				h0.1h0.4h0.4v-0.1l1.1-0.4l-0.2-0.1c-0.2,0.2-0.5,0.5-0.9,0.5v0.1h-0.4l0.1,0.1c1.7,1.3,3.9,2,6.3,2
				C129.26,74.38,131.95,72.78,134.04,69.58"/>
			<path class="st1" d="M131.95,67.28c0.7,0,1.2-0.1,1.5-0.5c0.4-0.4,0.5-1,0.5-1.7l-0.3-2.5c-1.3,1.4-2.8,2.5-4.5,3.5
				C130.64,66.88,131.64,67.28,131.95,67.28"/>
			<path class="st0" d="M104.24,70.28c-1.2,0-1.9-0.3-2.1-1.1c-0.1-0.3-0.2-1.4-0.2-3.4c-1.2,1-2.2,1.5-2.7,1.5
				c-1.1,0-1.9-0.5-2.5-1.5c-0.5-0.8-0.8-1.5-0.8-2.1c0-0.7,0.6-1.5,1.8-2.4c-1.2,0.4-2.1,0.3-2.9-0.5c-0.8-0.7-1.1-1.6-1.1-2.6
				c0-0.8,0.3-1.4,1-1.9l1-0.5h0.2c-1.8-0.1-2.7-0.9-2.7-2.4c0-2,0.8-3.2,2.4-3.5l0.1-0.4l-0.6-0.4c-0.5-0.4-0.8-1.1-0.9-2.1
				l-34,2.7l-22.1-0.2l-4.4,14.3l2.7-0.1l5.8-0.5h0.4c2.1-2.1,3.9-5.7,5.3-10.9c-1.4,5.2-3.2,8.8-5.3,10.9h0.2c2.7,0,4.6,1,5.8,3.2
				l1,2.2c0.3,0.6,0.6,1,0.9,1l2.4-0.3h0.3c0.7-1.3,1.9-4.4,3.6-9.4c1.6-5,2.5-8,2.6-9.1c-0.1,1.1-1,4.1-2.6,9.1
				c-1.7,5-2.9,8.1-3.6,9.4l2.6-0.9c1.9-0.8,3.8-1.2,5.6-1.2c3.3,0,5.2,1.1,5.8,3.5l0.4,2.3c0.2,0.7,0.6,1.1,1.2,1.1
				c3,0,5.5-0.9,7.6-2.8v-8.5c-0.2-3.8-0.7-7.2-1.7-10c1,2.8,1.5,6.2,1.7,10v8.5l1.2-1.1c2.3-2.7,4.8-4,7.3-4c4.1,0,6.9,1.5,8.4,4.6
				l1.1,2c0-3.9-0.8-8.9-2.5-15c1.7,6.1,2.5,11.1,2.5,15l0.7,1.1c0.9,0.9,2,1.4,3.6,1.4c1.9,0,4.6-1,8-3.1l2.2-1.3l-1-2.3
				C106.84,69.68,105.56,70.28,104.24,70.28"/>
			<path class="st1" d="M102.14,69.18c0.2,0.8,0.9,1.1,2.1,1.1c1.3,0,2.6-0.6,3.7-1.7l1,2.3l0.6,0.6l0.5,0.3l-0.1,0.2l1.6,0.3
				c1.1,0,1.8-0.1,1.9-0.6c0.2-0.4,0.4-0.7,0.7-1.1l0.2-0.4c0-0.3,0.2-0.5,0.4-0.5l-0.1-0.1c-0.2-0.3-0.6-0.4-1.3-0.4h-0.2l-5.1-0.8
				c-2.4-0.6-4.4-1.5-6-2.6c-1.7-1.2-3.1-2.7-4.1-4.6l-0.2-0.3c-0.9-1.5-1.4-3.2-1.8-5.1h-0.2l-1,0.5c-0.7,0.5-1,1.1-1,1.9
				c0,1,0.3,1.9,1.1,2.6c0.8,0.8,1.7,0.9,2.9,0.5c-1.2,0.9-1.8,1.7-1.8,2.4c0,0.6,0.3,1.3,0.8,2.1c0.6,1,1.4,1.5,2.5,1.5
				c0.5,0,1.5-0.5,2.7-1.5C101.95,67.78,102.06,68.88,102.14,69.18"/>
			<path d="M109.06,71.18l-0.1-0.3l-2.2,1.3c-3.4,2.1-6.1,3.1-8,3.1c-1.6,0-2.7-0.5-3.6-1.4l-0.7-1.1l-1.1-2
				c-1.5-3.1-4.3-4.6-8.4-4.6c-2.5,0-5,1.3-7.3,4l-1.2,1.1v0.8v-0.8c-2.1,1.9-4.6,2.8-7.6,2.8c-0.6,0-1-0.4-1.2-1.1l-0.4-2.3
				c-0.6-2.4-2.5-3.5-5.8-3.5c-1.8,0-3.7,0.4-5.6,1.2l-2.6,0.9h-0.3l-2.4,0.3c-0.3,0-0.6-0.4-0.9-1l-1-2.2c-1.2-2.2-3.1-3.2-5.8-3.2
				h-0.2h-0.4l-5.8,0.5l-0.2,1.4l6.4-0.5c2.5,0,4.3,1,5.2,3.2c1,2.1,2.2,3.1,3.6,3.1c1.1,0,2.5-0.4,4.3-1.1c1.7-0.8,3.6-1.2,5.5-1.2
				c2.7,0,4.4,1.1,5.1,3.4l0.9,2.4c0.5,0.7,1.4,1,2.6,1c3,0,5.7-1.2,7.9-3.9c2.2-2.6,4.6-3.9,7.3-3.9c3.4,0,5.9,1.5,7.6,4.6
				c0.9,1.5,1.6,2.6,2.1,3.1c1,0.9,2.4,1.4,4.1,1.4c1.9,0,4.6-1,8-3.2l2.9-1.6C109.34,71.78,109.14,71.48,109.06,71.18"/>
			<path d="M108.95,70.88l0.1,0.3c0.1,0.3,0.3,0.6,0.7,0.7l0.3-0.1l-0.5-0.3L108.95,70.88"/>
			<polyline points="114.74,69.68 114.74,69.88 114.56,70.38 115.14,70.28 115.95,70.38 115.24,68.78 114.64,69.58 114.74,69.68 			
				"/>
			<path d="M147.35,69.08l-1.8-2.8c-0.5-0.8-1-1.4-1.6-1.8l0.2,2.3l0.5,0.8c1.4,1.9,2.5,2.8,3.6,2.8c2.1,0,3.8-0.7,5.1-2.1l1.5-2.7
				l1.5-2.9l0.1-0.1l-0.7-1.4c-0.5,0.6-0.9,1.3-1.3,2.2l-2.1,3.8C151.26,68.48,149.54,69.08,147.35,69.08"/>
			<path class="st1" d="M89.84,18.68c-0.1,0.2-0.2,0.8-0.1,1.9c-0.6-1.4-1.3-2-2.2-2c-1.3,0-2.4,0.8-3.1,2.5l5.3-0.4h2.5h2.4
				c-0.4-1.7-1.4-2.6-2.9-2.6C90.74,18.08,90.14,18.28,89.84,18.68"/>
			<polyline points="84.45,21.08 83.35,21.28 83.95,22.28 84.45,21.08 			"/>
			<path class="st1" d="M98.95,19.08c-0.5-0.9-0.9-1.3-1.1-1.3c-0.3,0-0.8,0.3-1.5,0.9c-0.9,0.7-1.4,1.3-1.5,2l4.9,0.2
				C99.64,20.38,99.34,19.78,98.95,19.08"/>
			<polyline points="94.74,21.08 94.84,20.68 94.64,20.68 94.74,21.08 			"/>
			<polyline points="99.74,20.88 99.74,20.88 99.74,21.08 99.74,20.88 			"/>
			<path class="st1" d="M64.24,24.08c-0.2-0.3-0.7-0.5-1.4-0.5c-1.4,0-2,1.1-1.9,3.4l3.9-1.5v-0.4L64.24,24.08"/>
			<path class="st1" d="M65.46,23.38c-0.5,0.5-0.7,1.1-0.6,1.7l0.1,0.4l1.5-0.6l2.8-0.8c-0.4-1.2-1.2-1.8-2.2-1.8
				C66.55,22.28,65.96,22.68,65.46,23.38"/>
			<path class="st1" d="M69.64,22.38c-0.1,0.3-0.2,0.8-0.2,1.7l4-1l-1.9-1.8C70.55,21.28,69.85,21.68,69.64,22.38"/>
			<polyline points="69.24,24.08 69.46,24.78 69.46,24.08 69.24,24.08 			"/>
			<polyline points="73.46,23.08 73.74,23.28 73.85,22.98 73.46,23.08 			"/>
			<path class="st1" d="M74.24,20.88l-0.4,2.1l4.3-0.9c-0.6-1.2-1.4-1.8-2.6-1.8C74.85,20.28,74.35,20.48,74.24,20.88"/>
			<path class="st1" d="M78.96,20.08c-0.6,0.7-0.8,1.3-0.7,2l5.1-0.8c-0.9-1.5-1.8-2.2-2.6-2.2C80.05,19.08,79.46,19.38,78.96,20.08
				"/>
			<polyline points="78.24,22.08 78.14,22.08 78.24,22.28 78.24,22.08 			"/>
			<polyline points="60.95,26.98 60.74,27.08 60.95,27.28 60.95,26.98 			"/>
			<polyline points="64.96,25.48 64.85,25.48 64.96,25.78 64.96,25.58 64.96,25.48 			"/>
			<path class="st1" d="M94.24,46.98c0.1,1,0.4,1.7,0.9,2.1l0.6,0.4c0.1-1.1,0.4-2,0.8-2.7L94.24,46.98"/>
			<polyline points="95.74,49.48 95.64,49.88 96.45,49.78 95.74,49.48 			"/>
			<path class="st0" d="M57.24,20.38c0-5.5-1.8-10.2-5.5-14.1c-3.6-3.8-7.9-5.8-13-5.8s-9.5,2-13.1,5.8c-3.6,3.9-5.4,8.6-5.4,14.1
				s1.8,10.2,5.4,14.1l2,1.9c3.2,2.6,6.9,3.9,11.1,3.9c1.9,0,3.8-0.3,5.6-0.8l0,0c2.8-1,5.2-2.7,7.4-5c1.4-1.5,2.5-3,3.3-4.7
				l-0.2-0.6l0.7-0.2C56.64,26.38,57.24,23.48,57.24,20.38"/>
			<path class="st1" d="M27.64,36.38l-2.2,0.2c-1.1,1.1-1.7,1.8-1.7,2.1c0,1.4,0.8,2.1,2.3,2.1c0.6,0,1.2-0.3,1.9-1h0.3
				c-0.3,1.8-0.3,3-0.1,3.6c0.2,0.8,0.9,1.2,1.9,1.2c1.1,0,1.9-0.7,2.4-2c0,0.9,0.4,1.7,1.1,2.4c0.6,0.7,1.4,1.1,2.3,1.1
				c0.9,0,1.5-0.2,1.7-0.7l0.2-1.1v-0.4v-1.3c1.8,1.8,3.4,2.7,4.7,2.7c1.1,0,1.8-0.1,2-0.5l0.3-2.1c0-1-0.2-2.1-0.4-3.2
				c-1.8,0.5-3.7,0.8-5.6,0.8C34.55,40.28,30.85,38.98,27.64,36.38"/>
			<path d="M38.35,48.48l-0.5-0.5l-0.1-0.1c-1,1.4-2.1,4.2-3.5,8.6c-1.3,3.9-1.9,6.2-1.9,7l0.2,0.7v0.2l0.5,0.5l1.9,0.3l1.3-0.1
				l0.2-1.4l-2.7,0.1l4.4-14.3L38.35,48.48"/>
			<path class="st1" d="M57.05,26.08c-0.5,0.8-0.6,1.6-0.4,2.5l4.1-1.5c-1.4-1.4-2.3-2-2.7-2C57.84,25.08,57.55,25.38,57.05,26.08"
				/>
			<path class="st0" d="M57.64,29.48l-2.1,0.4l-0.5-0.1c-0.8,1.7-1.9,3.2-3.3,4.7c-2.2,2.3-4.6,4-7.4,5l0,0c0.2,1.1,0.4,2.2,0.4,3.2
				l-0.3,2.1c-0.2,0.4-0.9,0.5-2,0.5v0.8l17.1-0.2L57.64,29.48"/>
			<path class="st1" d="M95.95,55.78c-0.2-1.3-0.4-2.8-0.4-4.4l0.1-1.5c-1.6,0.3-2.4,1.5-2.4,3.5
				C93.24,54.88,94.14,55.68,95.95,55.78"/>
			<path class="st2" d="M167.54,1.68h0.1c2.5,1,4.7,2.5,6.7,4.6c3.6,3.9,5.4,8.6,5.4,14.1s-1.8,10.2-5.4,14.1l-2,1.9
				c-3.2,2.6-6.9,3.9-11.1,3.9h-1.1"/>
			<path class="st2" d="M160.45,37.38l1.3-13.4v-0.1l0.2-2.1c-0.1-0.4-0.3-0.8-0.7-1.2c-0.5-0.7-1.1-1-1.8-1l-1.3,0.1l-0.7,1.6
				l-0.2-0.2l-0.6-1.9c-0.1-0.4-0.6-0.6-1.4-0.6c-0.4,0-1,0.2-1.7,0.5c-0.8,0.4-1.3,0.8-1.6,1.2l-1-1.3c-0.3-0.5-0.8-0.7-1.5-0.7
				c-0.5,0-1.2,0.5-2.2,1.5l-0.5,0.5l-0.2-0.6c-0.4-1.4-1.1-2.1-1.8-2.1c-0.7,0-1.3,0.3-1.8,0.8l-0.7,1.1l-0.3,0.3v-0.3
				c-0.1-1.4-0.8-2.3-2.2-2.4c-0.7,0.6-1.3,1.4-1.9,2.3l-0.1,0.2l-0.1-0.2c-0.4-1.5-1-2.3-1.6-2.3c-0.5,0-1.1,0.3-1.5,0.9l-1,1.5
				l-0.1,0.1v-0.1l-0.4-1c-0.3-0.6-0.8-0.9-1.2-0.9c-1,0-1.7,0.2-2.1,0.5l-1,1.7c0-1.1-0.6-1.7-1.9-1.7c-1.9,0-3,0.8-3.4,2.5
				c-0.5-1.4-1-2-1.5-2c-0.9,0-1.5,0.2-1.7,0.7l-1.7,2.4l-0.6,0.6v-0.4h-0.1l-0.1-0.1c-0.1-1.5-0.6-2.2-1.5-2.2
				c-1.6,0-2.4,1.5-2.5,4.5l-0.2,0.2"/>
			<polyline class="st2" points="160.45,37.38 160.14,40.28 160.04,41.68 			"/>
			<line class="st2" x1="160.04" y1="41.68" x2="159.85" y2="43.08"/>
			<path class="st2" d="M172.35,36.38l2.1,0.2c1.2,1.1,1.8,1.8,1.8,2.1c0,1.4-0.8,2.1-2.4,2.1c-0.5,0-1.1-0.3-1.9-1h-0.2
				c0.2,1.8,0.3,3,0.1,3.6c-0.3,0.8-0.9,1.2-2,1.2s-1.9-0.7-2.4-2c0,0.9-0.3,1.7-1,2.4c-0.7,0.7-1.5,1.1-2.3,1.1
				c-1,0-1.5-0.2-1.7-0.7c-0.2-0.3-0.3-1.3-0.2-2.8l-1.9,1.6"/>
			<path class="st2" d="M113.56,24.28v-0.1l-0.3-1.4c-0.3-1.3-0.8-2-1.7-2c-0.2,0-0.6,0.3-1.2,0.9l-0.8,1.2l-0.1,0.2v-0.2
				c-0.1-1.9-0.9-2.8-2.4-2.8c-0.7,0-1.2,0.1-1.4,0.3l-0.8,1l-0.4,0.4l-0.1-0.4l-0.3-1.3c-0.3-0.7-0.9-1-1.7-1
				c-1.6,0-2.4,0.6-2.6,1.8v0.2v-0.2c-0.1-0.5-0.4-1.1-0.8-1.8c-0.5-0.9-0.9-1.3-1.1-1.3c-0.3,0-0.8,0.3-1.5,0.9
				c-0.9,0.7-1.4,1.3-1.5,2l-0.1,0.4l-0.1-0.4c-0.4-1.7-1.4-2.6-2.9-2.6c-1,0-1.6,0.2-1.9,0.6c-0.1,0.2-0.2,0.8-0.1,1.9
				c-0.6-1.4-1.3-2-2.2-2c-1.3,0-2.4,0.8-3.1,2.5l-0.5,1.2l-0.6-1c-0.9-1.5-1.8-2.2-2.6-2.2c-0.7,0-1.3,0.3-1.8,1
				c-0.6,0.7-0.8,1.3-0.7,2v0.2l-0.1-0.2c-0.6-1.2-1.4-1.8-2.6-1.8c-0.7,0-1.2,0.2-1.3,0.6l-0.4,2.1l-0.1,0.3l-0.3-0.2l-1.9-1.8
				c-1,0-1.7,0.4-1.9,1.1c-0.1,0.3-0.2,0.8-0.2,1.7v0.7l-0.2-0.7c-0.4-1.2-1.2-1.8-2.2-1.8c-0.5,0-1.1,0.4-1.6,1.1
				c-0.5,0.5-0.7,1.1-0.6,1.7"/>
			<line class="st2" x1="113.45" y1="25.08" x2="113.56" y2="24.28"/>
			<polyline class="st2" points="160.04,41.68 135.85,43.58 135.45,43.68 			"/>
			<polyline class="st2" points="134.14,43.78 134.04,43.78 98.06,46.68 			"/>
			<path class="st2" d="M122.04,68.68l1.2,1.6c0.4,0.4,1.1,0.5,2.1,0.5c2.8,0,4-1.5,3.5-4.5l-0.1-0.5l0.4,0.3
				c1.5,0.8,2.5,1.2,2.8,1.2c0.7,0,1.2-0.1,1.5-0.5c0.4-0.4,0.5-1,0.5-1.7l-0.3-2.5l-0.2-0.5h0.6c3.1,0.2,4.7-0.4,4.7-1.7l-1.7-3.3
				h-0.1h0.1c1.1-0.2,1.9-0.5,2.3-1c0.4-0.4,0.6-1.2,0.6-2.4c0-1.4-0.8-2.4-2.5-3l-0.5-0.1l0.4-0.2c1.4-0.8,2.1-1.8,2.1-3
				c-0.1-1.1-0.8-2.1-2-3.1h-1.4l-0.2-0.3"/>
			<polyline class="st2" points="140.26,48.08 140.26,49.28 143.95,64.48 144.14,66.78 			"/>
			<polyline class="st2" points="122.04,68.68 121.95,68.28 121.95,68.58 122.04,68.68 			"/>
			<path class="st2" d="M94.24,46.98c0.1,1,0.4,1.7,0.9,2.1l0.6,0.4l0.7,0.3l-0.8,0.1c-1.6,0.3-2.4,1.5-2.4,3.5
				c0,1.5,0.9,2.3,2.7,2.4h-0.2l-1,0.5c-0.7,0.5-1,1.1-1,1.9c0,1,0.3,1.9,1.1,2.6c0.8,0.8,1.7,0.9,2.9,0.5c-1.2,0.9-1.8,1.7-1.8,2.4
				c0,0.6,0.3,1.3,0.8,2.1c0.6,1,1.4,1.5,2.5,1.5c0.5,0,1.5-0.5,2.7-1.5c0,2,0.1,3.1,0.2,3.4c0.2,0.8,0.9,1.1,2.1,1.1
				c1.3,0,2.6-0.6,3.7-1.7l1,2.3l0.1,0.3c0.1,0.3,0.3,0.6,0.7,0.7l0.2,0.1l1.6,0.3c1.1,0,1.8-0.1,1.9-0.6c0.2-0.4,0.4-0.7,0.7-1.1
				l0.2-0.4c0-0.3,0.2-0.5,0.4-0.5"/>
			<path class="st2" d="M122.04,68.68c0,1.4-0.3,2.5-1,3.1l-1.1,0.4v0.1h-0.4h-0.4h-0.1h-0.2c-1.1,0-1.8-0.2-2.2-0.6l-0.7-1.3
				l-0.7-1.6l-0.6,0.8"/>
			<path class="st2" d="M162.45,59.58l0.4,1.2l1.6,4.4c0,0.7-0.7,1.9-2.2,3.6c-1.7,1.9-3,2.8-4,2.8l-2.3-1.3l-1.4,2.4l-1.7,1.9
				c-1.2-0.7-2.2-1-3-1c-0.6,0-1.4,0.6-2.4,1.6l-1.5,1.9l-3-2.5c0,0.8-0.5,1.8-1.4,2.9c-0.9,1.1-1.6,1.6-2.1,1.6s-2.4-0.8-5.6-2.3
				l-1.7,1c-0.9,0.7-1.6,1-2.3,1c-1.5-1.6-2.6-2.5-3.4-2.5c-0.4,0-1.1,0.4-2.1,1.1c-1.1,0.8-1.8,1.5-2.1,2.2
				c-1.9-1.9-3.1-2.8-3.4-2.8c-1.1,1.7-2,2.5-2.9,2.5c-0.4,0-0.9-0.2-1.4-0.7s-0.9-0.8-1.2-0.8c-2,2.5-3.4,3.8-4.4,3.8
				c-0.4,0-1.6-0.6-3.5-1.8c-1.1,1.5-2.4,2.3-3.9,2.3c-2.7-2-4.3-3-4.7-3c-1.3,0.6-2.1,1-2.5,1l-3.6-2.8c-2,1.5-3.2,2.3-3.8,2.3
				c-0.1,0-0.6-0.4-1.2-1.4c-0.7-0.9-1.2-1.4-1.7-1.4c-0.7,0-1.4,0.5-2.2,1.4c-0.8,1-1.4,1.4-1.9,1.4c-0.6,0-1.5-0.6-2.5-1.6
				l-1.7-1.7l-4,2.8c-0.6,0-1.4-0.5-2.4-1.5l-2.1-2.5c-1.6,1.6-2.8,2.5-3.5,2.5c-2.4-2.2-3.8-3.3-4.3-3.3l-3.9,2.5
				c-0.5,0-1.1-0.3-1.7-1.1c-0.8-0.9-1.3-2-1.4-3.4h-0.2c-0.4,0.8-1.1,1.4-2,1.9l-1.8,0.6c-0.3,0-0.8-0.6-1.4-1.8
				c-0.6-1.6-1.3-2.6-1.8-3.2l-1.3,1.7l-1,0.1c-0.8,0-1.4-0.5-1.8-1.4l-0.9-3.6c-0.2,1.1-0.5,1.6-0.9,1.8l-1.4,0.2
				c-1.3,0-2-0.5-2-1.5l0.3-2l0.2-1.4"/>
			<path class="st2" d="M150.26,48.58c1.9,4.8,3.7,9.1,5.5,12.6l0.7,1.4"/>
			<path class="st2" d="M64.85,25.08l-0.6-1c-0.2-0.3-0.7-0.5-1.4-0.5c-1.4,0-2,1.1-1.9,3.4v0.3l-0.2-0.2c-1.4-1.4-2.3-2-2.7-2
				c-0.2,0-0.5,0.3-1,1c-0.5,0.8-0.6,1.6-0.4,2.5"/>
			<polyline class="st2" points="64.85,25.08 64.85,25.48 64.96,25.78 64.96,25.58 64.96,25.48 64.85,25.08 			"/>
			<line class="st2" x1="96.56" y1="46.78" x2="94.24" y2="46.98"/>
			<path class="st2" d="M55.55,28.98c1.1-2.6,1.7-5.5,1.7-8.6c0-5.5-1.8-10.2-5.5-14.1c-3.6-3.8-7.9-5.8-13-5.8s-9.5,2-13.1,5.8
				c-3.6,3.9-5.4,8.6-5.4,14.1s1.8,10.2,5.4,14.1l2,1.9c3.2,2.6,6.9,3.9,11.1,3.9c1.9,0,3.8-0.3,5.6-0.8"/>
			<path class="st2" d="M27.64,36.38l-2.2,0.2c-1.1,1.1-1.7,1.8-1.7,2.1c0,1.4,0.8,2.1,2.3,2.1c0.6,0,1.2-0.3,1.9-1h0.3
				c-0.3,1.8-0.3,3-0.1,3.6c0.2,0.8,0.9,1.2,1.9,1.2c1.1,0,1.9-0.7,2.4-2c0,0.9,0.4,1.7,1.1,2.4c0.6,0.7,1.4,1.1,2.3,1.1
				c0.9,0,1.5-0.2,1.7-0.7l0.2-1.1"/>
			<path class="st2" d="M44.35,39.48L44.35,39.48c0.2,1.1,0.4,2.2,0.4,3.2l-0.3,2.1c-0.2,0.4-0.9,0.5-2,0.5c-1.3,0-2.9-0.9-4.7-2.7
				v1.3v0.4"/>
			<line class="st2" x1="37.74" y1="46.08" x2="37.85" y2="47.98"/>
			<line class="st2" x1="37.74" y1="44.28" x2="37.74" y2="46.08"/>
			<path class="st2" d="M55.05,29.78c-0.8,1.7-1.9,3.2-3.3,4.7c-2.2,2.3-4.6,4-7.4,5"/>
			<polyline class="st2" points="59.55,45.88 42.44,46.08 37.74,46.08 			"/>
			<line class="st2" x1="59.55" y1="45.88" x2="57.64" y2="29.48"/>
			<polyline class="st2" points="38.14,49.48 60.24,49.68 94.24,46.98 			"/>
			<path class="st2" d="M59.45,50.78c-0.1,1.1-1,4.1-2.6,9.1c-1.7,5-2.9,8.1-3.6,9.4h-0.3"/>
			<path class="st2" d="M47.94,52.28c-1.4,5.2-3.2,8.8-5.3,10.9h-0.4"/>
			<path class="st2" d="M91.95,57.78c1.7,6.1,2.5,11.1,2.5,15"/>
			<path class="st2" d="M76.46,72.08v-0.8v-8.5c-0.2-3.8-0.7-7.2-1.7-10"/>
			<line class="st2" x1="160.45" y1="37.38" x2="59.55" y2="45.88"/>
		</g>
	</g>
</g>
</svg>
