<?xml version="1.0" encoding="utf-8"?>
<!-- Generator: Adobe Illustrator 23.0.0, SVG Export Plug-In . SVG Version: 6.00 Build 0)  -->
<svg version="1.1" id="Layer_1" xmlns="http://www.w3.org/2000/svg" xmlns:xlink="http://www.w3.org/1999/xlink" x="0px" y="0px"
	 viewBox="0 0 200 59.65" style="enable-background:new 0 0 200 59.65;" xml:space="preserve">
<style type="text/css">
	.st0{fill:none;stroke:#000000;stroke-width:1.05;stroke-linecap:round;stroke-linejoin:round;stroke-miterlimit:10;}
</style>
<g>
	<g>
		<g>
			<polyline points="165.54,34.13 164.54,33.92 165.54,52.03 152.46,52.53 151.85,53.23 152.04,53.23 166.35,53.23 165.54,34.13 			
				"/>
			<polyline points="164.54,33.92 165.54,34.13 165.26,28.23 164.15,28.03 164.54,33.92 			"/>
			<polyline points="165.26,28.23 165.54,34.13 176.04,36.33 176.04,29.63 165.26,28.23 			"/>
			<polyline points="164.15,28.03 165.26,28.23 164.04,0.52 118.86,2.73 120.76,28.92 121.46,28.82 119.96,5.13 162.65,2.93 
				164.15,28.03 			"/>
			<polyline points="164.54,33.92 164.15,28.03 162.96,27.92 164.15,28.03 162.65,2.93 119.96,5.13 121.46,28.82 121.65,31.82 
				121.65,31.92 122.86,51.92 123.76,52.03 124.36,52.13 125.56,51.13 125.15,50.83 125.06,50.83 122.36,7.83 160.35,5.93 
				163.04,49.73 153.96,50.13 152.46,52.42 152.46,52.53 165.54,52.03 164.54,33.92 			"/>
			<polyline points="121.65,31.92 121.65,31.82 121.46,28.82 120.76,28.92 120.96,32.03 121.65,31.92 			"/>
			<polyline points="120.96,32.03 120.76,28.92 117.36,29.32 117.56,32.42 120.96,32.03 			"/>
			<polyline points="115.97,29.53 117.36,29.32 115.57,3.23 60.57,7.33 63.47,32.92 65.57,32.42 64.97,7.83 87.66,5.83 114.57,4.33 
				115.97,29.53 			"/>
			<polyline points="117.36,29.32 115.97,29.53 116.16,32.63 117.56,32.42 117.36,29.32 			"/>
			<polyline points="116.16,32.63 114.47,32.83 116.16,32.63 115.97,29.53 114.57,4.33 87.66,5.83 87.26,8.83 111.66,7.43 
				114.16,52.33 81.26,54.23 80.97,56.73 83.07,56.63 84.36,56.53 92.57,55.92 117.36,54.13 116.16,32.63 			"/>
			<polyline points="117.56,32.42 116.16,32.63 117.36,54.13 118.96,54.03 118.96,54.13 117.36,54.33 117.36,54.13 92.57,55.92 
				116.66,54.73 117.26,54.92 119.65,54.33 118.96,54.03 119.06,54.03 117.56,32.42 			"/>
			<polyline points="152.04,53.23 151.85,53.23 151.65,53.33 151.76,53.42 152.04,53.23 			"/>
			<polyline points="87.26,8.83 87.66,5.83 64.97,7.83 65.57,32.42 67.26,32.13 65.57,32.42 65.76,41.13 68.07,40.73 67.26,10.52 
				87.26,8.83 			"/>
			<polyline points="65.57,32.42 63.47,32.92 64.36,41.33 65.76,41.13 65.57,32.42 			"/>
			<polyline points="44.66,36.92 23.95,48.13 26.76,59.13 32.87,56.92 31.66,50.73 45.16,44.42 64.36,41.33 63.47,32.92 
				44.66,36.92 			"/>
			<polyline points="68.07,40.73 65.76,41.13 66.26,57.73 78.76,56.92 80.97,56.73 81.26,54.23 68.57,55.42 68.07,40.73 			"/>
			<polyline points="66.26,57.73 66.26,58.03 78.76,56.92 66.26,57.73 			"/>
			<polyline points="66.26,57.73 65.76,41.13 64.36,41.33 66.26,57.73 			"/>
			<line class="st0" x1="164.54" y1="33.92" x2="165.54" y2="34.13"/>
			<line class="st0" x1="165.26" y1="28.23" x2="165.54" y2="34.13"/>
			<polyline class="st0" points="162.96,27.92 164.15,28.03 165.26,28.23 			"/>
			<polyline class="st0" points="152.46,52.53 165.54,52.03 164.54,33.92 164.15,28.03 162.65,2.93 119.96,5.13 121.46,28.82 
				121.65,31.82 			"/>
			<polyline class="st0" points="165.26,28.23 176.04,29.63 176.04,36.33 165.54,34.13 			"/>
			<polyline class="st0" points="153.96,50.13 163.04,49.73 160.35,5.93 122.36,7.83 125.06,50.83 			"/>
			<polyline class="st0" points="120.76,28.92 118.86,2.73 164.04,0.52 165.26,28.23 			"/>
			<polyline class="st0" points="121.65,31.82 121.65,31.92 120.96,32.03 			"/>
			<line class="st0" x1="120.76" y1="28.92" x2="120.96" y2="32.03"/>
			<line class="st0" x1="121.46" y1="28.82" x2="120.76" y2="28.92"/>
			<line class="st0" x1="117.36" y1="29.32" x2="115.97" y2="29.53"/>
			<line class="st0" x1="114.47" y1="32.83" x2="116.16" y2="32.63"/>
			<line class="st0" x1="117.56" y1="32.42" x2="116.16" y2="32.63"/>
			<line class="st0" x1="116.16" y1="32.63" x2="115.97" y2="29.53"/>
			<line class="st0" x1="120.96" y1="32.03" x2="117.56" y2="32.42"/>
			<line class="st0" x1="117.56" y1="32.42" x2="117.36" y2="29.32"/>
			<line class="st0" x1="117.36" y1="29.32" x2="120.76" y2="28.92"/>
			<polyline class="st0" points="63.47,32.92 60.57,7.33 115.57,3.23 117.36,29.32 			"/>
			<polyline class="st0" points="115.97,29.53 114.57,4.33 87.66,5.83 64.97,7.83 65.57,32.42 			"/>
			<line class="st0" x1="117.36" y1="54.33" x2="117.36" y2="54.13"/>
			<line class="st0" x1="117.36" y1="54.13" x2="118.96" y2="54.03"/>
			<polyline class="st0" points="118.96,54.03 119.06,54.03 117.56,32.42 			"/>
			<polyline class="st0" points="165.54,34.13 166.35,53.23 152.04,53.23 151.85,53.23 			"/>
			<line class="st0" x1="122.86" y1="51.92" x2="121.65" y2="31.92"/>
			<polyline class="st0" points="114.16,52.33 81.26,54.23 68.57,55.42 68.07,40.73 67.26,10.52 87.26,8.83 111.66,7.43 
				114.16,52.33 			"/>
			<line class="st0" x1="120.96" y1="32.03" x2="122.46" y2="52.03"/>
			<line class="st0" x1="116.16" y1="32.63" x2="117.36" y2="54.13"/>
			<line class="st0" x1="65.57" y1="32.42" x2="63.47" y2="32.92"/>
			<polyline class="st0" points="63.47,32.92 44.66,36.92 23.95,48.13 26.76,59.13 32.87,56.92 31.66,50.73 45.16,44.42 
				64.36,41.33 66.26,57.73 66.26,58.03 78.76,56.92 80.97,56.73 83.07,56.63 84.36,56.53 92.57,55.92 116.66,54.73 			"/>
			<line class="st0" x1="68.07" y1="40.73" x2="65.76" y2="41.13"/>
			<polyline class="st0" points="65.76,41.13 66.26,57.73 78.76,56.92 80.97,56.73 83.07,56.63 			"/>
			<line class="st0" x1="67.26" y1="32.13" x2="65.57" y2="32.42"/>
			<line class="st0" x1="65.57" y1="32.42" x2="65.76" y2="41.13"/>
			<polyline class="st0" points="65.76,41.13 64.36,41.33 63.47,32.92 			"/>
			<line class="st0" x1="117.36" y1="54.13" x2="92.57" y2="55.92"/>
		</g>
	</g>
</g>
</svg>
