<?xml version="1.0" encoding="utf-8"?>
<!-- Generator: Adobe Illustrator 23.0.0, SVG Export Plug-In . SVG Version: 6.00 Build 0)  -->
<svg version="1.1" id="Layer_1" xmlns="http://www.w3.org/2000/svg" xmlns:xlink="http://www.w3.org/1999/xlink" x="0px" y="0px"
	 viewBox="0 0 200 36.8" style="enable-background:new 0 0 200 36.8;" xml:space="preserve">
<style type="text/css">
	.st0{fill:#FFFFFF;}
	.st1{fill:none;stroke:#000000;stroke-linecap:round;stroke-linejoin:round;stroke-miterlimit:10;}
</style>
<g>
	<g>
		<g>
			<path class="st0" d="M146.34,16.8c-2.2-4.4-5.1-6.5-8.8-6.5c-2.3,0-4.9,1.7-7.7,5.2v-0.2c-0.9-4.4-1.7-7.2-2.3-8.5
				c-1.3-2.5-3.3-3.8-6.1-3.8c-5.1,0-8.9,3.2-11.4,9.5l-0.2,0.5c-0.1,0.2-0.2,0.1-0.3-0.2c-0.5-3.5-1.2-6.1-1.9-7.7
				c-1.3-3.1-3.6-4.6-7-4.6c-2.8,0-5,1.2-6.7,3.7c-1.3,1.8-2.6,5-4,9.5v-0.4c-0.8-2.1-1.8-3.8-2.9-5.2c-1.8-2.3-3.9-3.7-6.5-4.1
				l-2-0.2c-2.8,0-4.9,1.2-6.1,3.8c-0.5,0.8-0.9,2.3-1.4,4.3l-0.9,4.1v0.3c-2.9-3.5-5.4-5.3-7.8-5.3c-3.7,0-6.6,2.2-8.7,6.5
				c-1.7,3.5-2.5,7.1-2.5,11c0,5.2,0.6,7.8,1.9,7.8l11.3-1h4.8l18.5,0.5l2.3,0.1v-0.2l20.1-0.6l20.8-0.6l16.1,1
				c1.2,0,1.9-2.6,1.9-7.7C148.84,23.9,147.95,20.2,146.34,16.8"/>
			<path class="st0" d="M83.55,4.5c-1-0.3-2-0.5-3-0.5c2.6,0.4,4.7,1.8,6.5,4.1l-0.6-0.9C85.24,5.7,84.24,4.8,83.55,4.5"/>
			<path class="st0" d="M71.05,11.9c-0.7,1.5-1,2.9-0.9,4.4V16L71.05,11.9"/>
			<path class="st0" d="M64.34,35.3c0.8,0.7,1.9,1,3.5,1h5.5l14.3-0.5l-18.5-0.5H64.34"/>
			<path class="st1" d="M89.95,13.7c1.4-4.5,2.7-7.7,4-9.5c1.7-2.5,3.9-3.7,6.7-3.7c3.4,0,5.7,1.5,7,4.6c0.7,1.6,1.4,4.2,1.9,7.7
				c0.1,0.3,0.2,0.4,0.3,0.2l0.2-0.5"/>
			<path class="st1" d="M89.95,35.9l-2.3-0.1l-18.5-0.5h-4.8l-11.3,1c-1.3,0-1.9-2.6-1.9-7.8c0-3.9,0.8-7.5,2.5-11
				c2.1-4.3,5-6.5,8.7-6.5c2.4,0,4.9,1.8,7.8,5.3V16l0.9-4.1c0.5-2,0.9-3.5,1.4-4.3c1.2-2.6,3.3-3.8,6.1-3.8l2,0.2
				c2.6,0.4,4.7,1.8,6.5,4.1c1.1,1.4,2.1,3.1,2.9,5.2"/>
			<path class="st1" d="M71.05,11.9c-0.7,1.5-1,2.9-0.9,4.4"/>
			<line class="st1" x1="110.05" y1="35.1" x2="89.95" y2="35.7"/>
			<path class="st1" d="M110.05,12.5c2.5-6.3,6.3-9.5,11.4-9.5c2.8,0,4.8,1.3,6.1,3.8c0.6,1.3,1.4,4.1,2.3,8.5v0.2
				c2.8-3.5,5.4-5.2,7.7-5.2c3.7,0,6.6,2.1,8.8,6.5c1.6,3.4,2.5,7.1,2.5,11c0,5.1-0.7,7.7-1.9,7.7l-16.1-1l-20.8,0.6"/>
		</g>
	</g>
</g>
</svg>
