<?xml version="1.0" encoding="utf-8"?>
<!-- Generator: Adobe Illustrator 23.0.0, SVG Export Plug-In . SVG Version: 6.00 Build 0)  -->
<svg version="1.1" id="Layer_1" xmlns="http://www.w3.org/2000/svg" xmlns:xlink="http://www.w3.org/1999/xlink" x="0px" y="0px"
	 viewBox="0 0 204.5 121.33" style="enable-background:new 0 0 204.5 121.33;" xml:space="preserve">
<style type="text/css">
	.st0{fill:#E5170C;}
	.st1{fill:#A03C28;}
	.st2{fill:#86402E;}
	.st3{fill:none;stroke:#000000;stroke-linecap:round;stroke-linejoin:round;stroke-miterlimit:10;}
</style>
<g>
	<g>
		<g>
			<path class="st0" d="M197.5,3.13c-3.3-0.7-10.3-1.3-21-1.9c-14.1-0.7-28.5-0.9-43.3-0.6l-2.3,0.4l5.1,34.6c9.9-0.4,28.5,0,56,0.9
				h0.8H192c0,2.3,0.5,6.3,1.5,12.2l1.5,10.9c0,1.4-0.8,4-2.3,7.6c-1.5,3.7-2.2,6.7-2.2,9.1c0,1.9,0.3,3.8,1,5.7c0.6,2,1,4.1,1,6.3
				c0,3.6-1.2,8.7-3.5,15.3v1.6c5.6-1.5,9.5-4,11.5-7.5c1.6-2.6,2.6-6.1,3.1-10.6c0.2-2.7,0.4-7.6,0.4-14.5c0-11-0.6-21.7-1.7-32.4
				c-1.7-13.7-3.1-26.1-4.3-37.2L197.5,3.13"/>
			<polyline class="st1" points="130.9,1.04 130.9,0.74 121.4,1.13 126.5,36.03 131,35.83 136,35.64 130.9,1.04 			"/>
			<polyline class="st0" points="121.4,1.13 108.5,1.84 114,36.64 114,36.83 114.1,36.83 126.5,36.03 121.4,1.13 			"/>
			<polyline class="st2" points="108.5,1.84 105.5,2.13 111.1,37.14 114,36.64 108.5,1.84 			"/>
			<polyline class="st0" points="111.1,37.14 114,36.83 114,36.64 111.1,37.14 			"/>
			<polyline class="st1" points="103.8,37.83 111.1,37.14 105.5,2.13 98.1,2.74 103.8,37.83 			"/>
			<path class="st0" d="M103.8,37.83l-5.7-35.1c-29,2.8-54.3,8-76,15.6v0.1c6,21.4,9.8,35.9,11.5,43.4c2,9.4,3.1,20.8,3.3,34.2
				c0.1,15.6-1.7,23.6-5.5,24.1l0.1,0.5c6,0.4,11.2,0.2,15.6-0.8c3.8-0.8,8.2-2.6,13.4-5.2c0.6-3.1,1-8.4,1-16s-0.5-15.1-1.6-22.6
				c-1.7-12.2-2.8-21.7-3.4-28.4C68.8,43.03,84.6,39.83,103.8,37.83"/>
			<path class="st1" d="M22.1,18.44l-0.7,0.1L0.5,54.14l3.6,17.1c1.6,7.9,3.2,15,4.9,21.4c4.8,18.3,12.1,27.5,22,27.5h0.4
				c3.8-0.5,5.6-8.5,5.5-24.1c-0.2-13.4-1.3-24.8-3.3-34.2l-11.2,2.3c1.5,1.7,2.6,4.1,3.4,6.9c0.8,2.9,0.9,5.4,0.5,7.7
				c-0.4,2.3-1.2,3.6-2.5,4l-0.8,0.1c-1.1-0.1-2.3-0.8-3.5-2.2c-1.5-1.8-2.6-4.2-3.4-7c-0.7-2.9-0.9-5.5-0.5-7.7
				c0.4-2.3,1.3-3.6,2.6-4c0.4-0.1,0.9-0.1,1.3,0c0.9,0.3,1.9,1,2.9,2.2l11.2-2.3C31.9,54.33,28.1,39.83,22.1,18.44"/>
			<path class="st1" d="M25.8,71.04c-0.8-2.8-1.9-5.2-3.4-6.9c-1-1.2-2-1.9-2.9-2.2l-0.5,0.2l-0.5,7.2c0,3.7,0.4,6.5,1.1,8.5
				c0.6,1.6,1.7,3.3,3.4,5l0.8-0.1c1.3-0.4,2.1-1.7,2.5-4C26.7,76.43,26.6,73.93,25.8,71.04"/>
			<path class="st2" d="M19.5,61.93c-0.4-0.1-0.9-0.1-1.3,0c-1.3,0.4-2.2,1.7-2.6,4c-0.4,2.2-0.2,4.8,0.5,7.7c0.8,2.8,1.9,5.2,3.4,7
				c1.2,1.4,2.4,2.1,3.5,2.2c-1.7-1.7-2.8-3.4-3.4-5c-0.7-2-1.1-4.8-1.1-8.5l0.5-7.2L19.5,61.93"/>
			<path class="st3" d="M130.9,0.74l2.3-0.1c14.8-0.3,29.2-0.1,43.3,0.6c10.7,0.6,17.7,1.2,21,1.9"/>
			<path class="st3" d="M198,3.04c1.2,11.1,2.6,23.5,4.3,37.2c1.1,10.7,1.7,21.4,1.7,32.4c0,6.9-0.2,11.8-0.4,14.5
				c-0.5,4.5-1.5,8-3.1,10.6c-2,3.5-5.9,6-11.5,7.5"/>
			<path class="st3" d="M189,105.24v-1.6c2.3-6.6,3.5-11.7,3.5-15.3c0-2.2-0.4-4.3-1-6.3c-0.7-1.9-1-3.8-1-5.7
				c0-2.4,0.7-5.4,2.2-9.1c1.5-3.6,2.3-6.2,2.3-7.6l-1.5-10.9c-1-5.9-1.5-9.9-1.5-12.2"/>
			<line class="st3" x1="192.8" y1="36.53" x2="192" y2="36.53"/>
			<line class="st3" x1="189" y1="106.14" x2="189" y2="105.24"/>
			<polyline class="st3" points="136,35.64 130.9,1.04 130.9,0.74 			"/>
			<polyline class="st3" points="136,35.64 131,35.83 126.5,36.03 			"/>
			<polyline class="st3" points="98.1,2.74 105.5,2.13 108.5,1.84 121.4,1.13 			"/>
			<polyline class="st3" points="108.5,1.84 114,36.64 114,36.83 114.1,36.83 			"/>
			<polyline class="st3" points="103.8,37.83 111.1,37.14 114,36.83 			"/>
			<line class="st3" x1="98.1" y1="2.74" x2="103.8" y2="37.83"/>
			<line class="st3" x1="114.1" y1="36.83" x2="126.5" y2="36.03"/>
			<line class="st3" x1="126.5" y1="36.03" x2="121.4" y2="1.13"/>
			<line class="st3" x1="121.4" y1="1.13" x2="130.9" y2="0.74"/>
			<line class="st3" x1="21.4" y1="18.53" x2="22.1" y2="18.33"/>
			<path class="st3" d="M0.5,54.14l3.6,17.1c1.6,7.9,3.2,15,4.9,21.4c4.8,18.3,12.1,27.5,22,27.5h0.4c3.8-0.5,5.6-8.5,5.5-24.1
				c-0.2-13.4-1.3-24.8-3.3-34.2c-1.7-7.5-5.5-22-11.5-43.4v-0.1"/>
			<polyline class="st3" points="22,17.64 21.4,18.53 0.5,54.14 			"/>
			<path class="st3" d="M25.8,71.04c0.8,2.9,0.9,5.4,0.5,7.7c-0.4,2.3-1.2,3.6-2.5,4l-0.8,0.1c-1.1-0.1-2.3-0.8-3.5-2.2
				c-1.5-1.8-2.6-4.2-3.4-7c-0.7-2.9-0.9-5.5-0.5-7.7c0.4-2.3,1.3-3.6,2.6-4c0.4-0.1,0.9-0.1,1.3,0c0.9,0.3,1.9,1,2.9,2.2
				C23.9,65.83,25,68.24,25.8,71.04"/>
			<path class="st3" d="M23,82.83c-1.7-1.7-2.8-3.4-3.4-5c-0.7-2-1.1-4.8-1.1-8.5l0.5-7.2l0.5-0.2"/>
			<path class="st3" d="M31.5,120.64c6,0.4,11.2,0.2,15.6-0.8c3.8-0.8,8.2-2.6,13.4-5.2c0.6-3.1,1-8.4,1-16s-0.5-15.1-1.6-22.6
				c-1.7-12.2-2.8-21.7-3.4-28.4c12.3-4.6,28.1-7.8,47.3-9.8"/>
			<path class="st3" d="M22.1,18.33c21.7-7.6,47-12.8,76-15.6"/>
			<path class="st3" d="M192,36.53c-27.5-0.9-46.1-1.3-56-0.9"/>
		</g>
	</g>
</g>
</svg>
