<?xml version="1.0" encoding="utf-8"?>
<!-- Generator: Adobe Illustrator 23.0.0, SVG Export Plug-In . SVG Version: 6.00 Build 0)  -->
<svg version="1.1" id="Layer_1" xmlns="http://www.w3.org/2000/svg" xmlns:xlink="http://www.w3.org/1999/xlink" x="0px" y="0px"
	 viewBox="0 0 200 57.7" style="enable-background:new 0 0 200 57.7;" xml:space="preserve">
<style type="text/css">
	.st0{fill:#365BA6;}
	.st1{fill:#FFFFFF;}
	.st2{fill:#6978B7;}
	.st3{fill:#1D4794;}
	.st4{fill:none;stroke:#000000;stroke-linecap:round;stroke-linejoin:round;stroke-miterlimit:10;}
</style>
<g>
	<g>
		<g>
			<path class="st0" d="M162.95,4.3V4.2l0.1-0.4V3.7l0.1-0.6c0-0.9-0.4-1.4-1.1-1.4l-1.1,1l-2.7-2.2c-0.3,0-0.8,0.6-1.3,1.7
				l-2.3-1.2h-0.5l-0.5,1.7l-1.9-0.3l-1.6-0.9l-1,1.5l-2-1.5c-1.1,1.1-1.9,1.7-2.4,1.7s-1.1-0.3-1.9-0.8c-0.9-0.6-1.6-0.9-2.2-0.9
				c-0.1,0-0.7,0.2-1.6,0.7c-1,0.5-1.5,0.9-1.6,1.3l-2.3-1.3c0,0.9-0.4,1.3-1.4,1.3c-0.5,0-1.3-0.5-2.3-1.5c-0.7,0.6-1.2,1-1.4,1
				l-1.6-0.5c-0.2,0.6-0.5,1-0.9,1l-2.5-1.3c-0.6,0.6-1.2,0.9-1.9,0.8c-0.8-0.2-1.2,0-1.2,0.5l-2.5-1.3c-0.5,1.5-1.3,2.3-2.3,2.3
				l-1.2-0.8c-0.7,0-1.4,0.2-2.2,0.7c-0.8,0.4-1.4,0.6-1.8,0.6l0.1,3.1c6,0,9,2.3,9,7l-0.1,1.9c-0.4,0.7-1.2,1.1-2.7,1.1l-2.4-0.5
				h-1c0.9,1.9,2.3,5.2,4,9.9c2,5.3,2.9,8.3,2.9,9l-0.1,0.6c0.1,0.2-0.1,0.2-0.5,0.2c-0.5,0-1.3-1.8-2.3-5.6l-2.6-8.2l-3.5-5.9
				l-2.5-4.4v2.5l0.1,1.9l-0.1,5.8l-0.1,15.2l-0.5,0.2c-0.5-1.2-0.7-2.7-0.7-4.4l0.1-4.5v-9l-0.1-0.2c-0.6,4.4-2.5,6.6-5.7,6.6
				c-1.2,0-2-0.5-2.2-1.6v-1.8c0-1.6,0.7-4.3,2.1-8.2c1.9-5.1,4.1-7.6,6.5-7.6l0.2,0.3l2.2-0.3l-0.1-3.1l-0.7-0.8
				c-0.3-0.5-1-0.7-2.1-0.7l-0.7,0.5c-0.2,0-0.5-0.3-0.8-0.8l-2.5,2.3c-0.3-0.4-0.6-0.5-0.7-0.5c-0.5,0.3-1,0.5-1.4,0.5
				c-0.7,0-1.1-0.5-1.4-1.5c-0.5,0.3-0.8,0.6-1,1c-0.4,0-0.8-0.4-1.2-1l-1,1.5l-1.5-1L95.85,5c-0.2,0-0.7-0.3-1.6-0.8l-1.7,0.5
				c-0.5,0-0.8,0.2-1.2,0.5l-0.6,0.5c-0.6-0.5-1.1-0.7-1.2-0.7c-0.5,0-1.2,0.6-2.1,1.7c-0.9-0.5-1.3-1-1.3-1.5l-2,0.5
				c-0.6,0-1.3-0.6-2.2-1.7c-0.5,0.6-0.8,1.2-0.8,1.7l-2.2-1h-0.5c0,0.7-0.2,1.4-0.5,2c-0.6-0.3-1.1-0.5-1.5-0.5l-1.4,1.3l-1.5-0.4
				l-0.4-0.4c-0.6,0-1.7,0.9-3.2,2.5l-3.5-1.7L64.75,9c-0.4,0-0.9-0.6-1.6-1.8c-0.2,0-0.4,0.2-0.6,0.5c-0.1,0.4-0.5,0.5-0.9,0.5
				L61.05,8l0.1,2.7l99.7-7l-99.7,7l2,34.4l1.5,0.1h0.3l18.7-1.4l35.5-2.6l15.5-1.2l26.8-2l1.7-33.8L162.95,4.3"/>
			<path class="st1" d="M120.95,17l0.1-1.9c0-4.7-3-7-9-7l-2.2,0.3l0.3,1c3.9-0.4,6.6,0.3,8.2,2.1c1,1,1.4,2.2,1.4,3.5
				c0.4,1.2-0.1,1.7-1.6,1.7c-2.4,0-4.4-1.2-5.9-3.6c-1.1-2.4-1.8-3.6-2-3.6l-0.1-0.1l-0.3-1l-0.2-0.3c-2.4,0-4.6,2.5-6.5,7.6
				c-1.4,3.9-2.1,6.6-2.1,8.2l1.2-0.1c0.6-2.4,1.2-4.7,2-7c1.6-4.6,3.1-6.9,4.6-6.9l0.1,0.7l-0.4,8c-0.8,4.9-2.6,7.4-5.2,7.4
				c-0.7,0-1.1-0.8-1.1-2.2l-1.2,0.1v1.8c0.2,1.1,1,1.6,2.2,1.6c3.2,0,5.1-2.2,5.7-6.6l0.1,0.2v9l-0.1,4.5c0,1.7,0.2,3.2,0.7,4.4
				l0.5-0.2l0.1-15.2l0.1-5.8l-0.1-1.9v-2.5l2.5,4.4l3.5,5.9l2.6,8.2c1,3.8,1.8,5.6,2.3,5.6c0.4,0,0.6,0,0.5-0.2l0.1-0.6
				c0-0.7-0.9-3.7-2.9-9c-1.7-4.7-3.1-8-4-9.9l-0.3-0.5h0.6l0.7,0.5l2.4,0.5C119.75,18.1,120.55,17.7,120.95,17"/>
			<path class="st0" d="M110.15,9.4l0.1,0.1c0.2,0,0.9,1.2,2,3.6c1.5,2.4,3.5,3.6,5.9,3.6c1.5,0,2-0.5,1.6-1.7
				c0-1.3-0.4-2.5-1.4-3.5C116.75,9.7,114.05,9,110.15,9.4"/>
			<path class="st0" d="M108.95,10.6l-0.1-0.7c-1.5,0-3,2.3-4.6,6.9c-0.8,2.3-1.4,4.6-2,7c0,1.4,0.4,2.2,1.1,2.2
				c2.6,0,4.4-2.5,5.2-7.4L108.95,10.6"/>
			<polyline class="st2" points="115.85,17.6 115.15,17.1 114.55,17.1 114.85,17.6 115.85,17.6 			"/>
			<path class="st0" d="M134.65,40l-15.5,1.2c0,0.9-0.6,4-2,9l-0.2,0.2c1.2,3,5,4.6,11.3,4.6c3.3,0,5.8-0.6,7.4-1.6
				c0.8-0.6,1.9-1.9,3.3-3.8l0.1-0.2C137.85,46.4,136.35,43.3,134.65,40"/>
			<path class="st3" d="M61.15,10.7L61.05,8l-0.9-0.8L58.65,9c-1.2-0.6-2-1.2-2.2-2l-2.2,1.5c-0.5,0-1.3-0.5-2.3-1.5
				c-0.4,0.3-0.5,0.6-0.5,0.7L49.65,7c-1.1,1.5-1.9,2.2-2.5,2.2c-0.6,0-1.3-0.5-2-1.5h-0.5l-0.5,1.8l-2.7-1l-0.3,0.7
				c-1-0.1-1.7,0-2.1,0.3l-0.5,1.2h21.3h-21.3l-0.4,1l0.3,0.4l2.5,31.9l22.2,1.1L61.15,10.7h-0.3H61.15"/>
			<path class="st0" d="M64.95,45.2h-0.3l-0.1,0.2l-2.1,9.1c2.3,1.4,4.6,2.2,6.8,2.6l5.9,0.1c3.1,0,5.4-0.4,7-1.2
				c2.2-1.1,3.5-1.7,4-1.8c-1.6-4.7-2.4-8.2-2.5-10.4L64.95,45.2"/>
			<polyline class="st4" points="163.05,3.7 163.05,3.8 162.95,4.2 162.95,4.3 			"/>
			<path class="st4" d="M61.15,10.7L61.05,8l0.6,0.2c0.4,0,0.8-0.1,0.9-0.5c0.2-0.3,0.4-0.5,0.6-0.5c0.7,1.2,1.2,1.8,1.6,1.8
				l1.7-1.5l3.5,1.7c1.5-1.6,2.6-2.5,3.2-2.5l0.4,0.4l1.5,0.4l1.4-1.3c0.4,0,0.9,0.2,1.5,0.5c0.3-0.6,0.5-1.3,0.5-2h0.5l2.2,1
				c0-0.5,0.3-1.1,0.8-1.7c0.9,1.1,1.6,1.7,2.2,1.7l2-0.5c0,0.5,0.4,1,1.3,1.5c0.9-1.1,1.6-1.7,2.1-1.7c0.1,0,0.6,0.2,1.2,0.7
				l0.6-0.5c0.4-0.3,0.7-0.5,1.2-0.5l1.7-0.5c0.9,0.5,1.4,0.8,1.6,0.8l1.1-0.5l1.5,1l1-1.5c0.4,0.6,0.8,1,1.2,1c0.2-0.4,0.5-0.7,1-1
				c0.3,1,0.7,1.5,1.4,1.5c0.4,0,0.9-0.2,1.4-0.5c0.1,0,0.4,0.1,0.7,0.5l2.5-2.3c0.3,0.5,0.6,0.8,0.8,0.8l0.7-0.5
				c1.1,0,1.8,0.2,2.1,0.7l0.7,0.8c0.4,0,1-0.2,1.8-0.6c0.8-0.5,1.5-0.7,2.2-0.7l1.2,0.8c1,0,1.8-0.8,2.3-2.3l2.5,1.3
				c0-0.5,0.4-0.7,1.2-0.5c0.7,0.1,1.3-0.2,1.9-0.8l2.5,1.3c0.4,0,0.7-0.4,0.9-1l1.6,0.5c0.2,0,0.7-0.4,1.4-1c1,1,1.8,1.5,2.3,1.5
				c1,0,1.4-0.4,1.4-1.3l2.3,1.3c0.1-0.4,0.6-0.8,1.6-1.3c0.9-0.5,1.5-0.7,1.6-0.7c0.6,0,1.3,0.3,2.2,0.9c0.8,0.5,1.4,0.8,1.9,0.8
				s1.3-0.6,2.4-1.7l2,1.5l1-1.5l1.6,0.9l1.9,0.3l0.5-1.7h0.5l2.3,1.2c0.5-1.1,1-1.7,1.3-1.7l2.7,2.2l1.1-1c0.7,0,1.1,0.5,1.1,1.4
				l-0.1,0.6"/>
			<polyline class="st4" points="134.65,40 161.45,38 163.15,4.2 162.95,4.3 163.05,3.8 			"/>
			<path class="st4" d="M121.05,15.1c0-4.7-3-7-9-7l-2.2,0.3l-0.2-0.3c-2.4,0-4.6,2.5-6.5,7.6c-1.4,3.9-2.1,6.6-2.1,8.2v1.8
				c0.2,1.1,1,1.6,2.2,1.6c3.2,0,5.1-2.2,5.7-6.6l0.1,0.2v9l-0.1,4.5c0,1.7,0.2,3.2,0.7,4.4l0.5-0.2l0.1-15.2l0.1-5.8l-0.1-1.9v-2.5
				l2.5,4.4l3.5,5.9l2.6,8.2c1,3.8,1.8,5.6,2.3,5.6c0.4,0,0.6,0,0.5-0.2l0.1-0.6c0-0.7-0.9-3.7-2.9-9c-1.7-4.7-3.1-8-4-9.9l-0.3-0.5
				h0.6l0.7,0.5l2.4,0.5c1.5,0,2.3-0.4,2.7-1.1L121.05,15.1"/>
			<line class="st4" x1="119.15" y1="41.2" x2="134.65" y2="40"/>
			<path class="st4" d="M116.95,50.4c1.2,3,5,4.6,11.3,4.6c3.3,0,5.8-0.6,7.4-1.6c0.8-0.6,1.9-1.9,3.3-3.8l0.1-0.2
				c-1.2-3-2.7-6.1-4.4-9.4"/>
			<path class="st4" d="M110.15,9.4c3.9-0.4,6.6,0.3,8.2,2.1c1,1,1.4,2.2,1.4,3.5c0.4,1.2-0.1,1.7-1.6,1.7c-2.4,0-4.4-1.2-5.9-3.6
				c-1.1-2.4-1.8-3.6-2-3.6L110.15,9.4"/>
			<path class="st4" d="M108.95,10.6l-0.4,8c-0.8,4.9-2.6,7.4-5.2,7.4c-0.7,0-1.1-0.8-1.1-2.2c0.6-2.4,1.2-4.7,2-7
				c1.6-4.6,3.1-6.9,4.6-6.9L108.95,10.6"/>
			<path class="st4" d="M38.15,11.7l0.4-1l0.5-1.2c0.4-0.3,1.1-0.4,2.1-0.3l0.3-0.7l2.7,1l0.5-1.8h0.5c0.7,1,1.4,1.5,2,1.5
				c0.6,0,1.4-0.7,2.5-2.2l1.8,0.7c0-0.1,0.1-0.4,0.5-0.7c1,1,1.8,1.5,2.3,1.5l2.2-1.5c0.2,0.8,1,1.4,2.2,2l1.5-1.8l0.9,0.8"/>
			<polyline class="st4" points="60.85,10.7 61.15,10.7 160.85,3.7 			"/>
			<polyline class="st4" points="83.65,43.8 64.95,45.2 64.65,45.2 			"/>
			<line class="st4" x1="63.15" y1="45.1" x2="64.65" y2="45.2"/>
			<path class="st4" d="M64.65,45.2l-0.1,0.2l-2.1,9.1c2.3,1.4,4.6,2.2,6.8,2.6l5.9,0.1c3.1,0,5.4-0.4,7-1.2c2.2-1.1,3.5-1.7,4-1.8
				c-1.6-4.7-2.4-8.2-2.5-10.4"/>
			<line class="st4" x1="61.15" y1="10.7" x2="63.15" y2="45.1"/>
			<polyline class="st4" points="59.85,10.7 38.55,10.7 36.85,10.7 			"/>
			<polyline class="st4" points="38.45,12.1 40.95,44 63.15,45.1 			"/>
			<line class="st4" x1="116.95" y1="50.4" x2="117.15" y2="50.2"/>
			<polyline class="st4" points="117.15,50.2 116.95,50.2 116.95,50.4 			"/>
			<line class="st4" x1="83.65" y1="43.8" x2="119.15" y2="41.2"/>
			<path class="st4" d="M119.15,41.2c0,0.9-0.6,4-2,9"/>
		</g>
	</g>
</g>
</svg>
