<?xml version="1.0" encoding="utf-8"?>
<!-- Generator: Adobe Illustrator 23.0.0, SVG Export Plug-In . SVG Version: 6.00 Build 0)  -->
<svg version="1.1" id="Layer_1" xmlns="http://www.w3.org/2000/svg" xmlns:xlink="http://www.w3.org/1999/xlink" x="0px" y="0px"
	 viewBox="0 0 200 56.12" style="enable-background:new 0 0 200 56.12;" xml:space="preserve">
<style type="text/css">
	.st0{fill:#FFFFFF;}
	.st1{fill:none;stroke:#000000;stroke-width:1.05;stroke-linecap:round;stroke-linejoin:round;stroke-miterlimit:10;}
	.st2{fill:#D58B2D;}
</style>
<g>
	<g>
		<g>
			<g>
				<polyline class="st0" points="161.41,28.83 162.8,0.52 140.3,2.03 127.91,14.82 115.51,3.32 112.51,3.43 101.6,15.93 
					86.21,5.43 59.81,7.32 63.72,35.53 161.41,28.83 				"/>
				<polyline class="st0" points="127.91,14.82 140.3,2.03 115.51,3.32 127.91,14.82 				"/>
				<polyline class="st0" points="112.51,3.43 86.21,5.43 101.6,15.93 112.51,3.43 				"/>
				<polyline class="st0" points="59.81,7.32 37.19,7.12 40.5,34.33 63.72,35.53 59.81,7.32 				"/>
				<line class="st1" x1="162.8" y1="0.52" x2="161.41" y2="28.83"/>
				<polyline class="st1" points="115.51,3.32 127.91,14.82 140.3,2.03 				"/>
				<line class="st1" x1="140.3" y1="2.03" x2="162.8" y2="0.52"/>
				<line class="st1" x1="86.21" y1="5.43" x2="112.51" y2="3.43"/>
				<polyline class="st1" points="86.21,5.43 101.6,15.93 112.51,3.43 				"/>
				<line class="st1" x1="112.51" y1="3.43" x2="115.51" y2="3.32"/>
				<polyline class="st1" points="63.72,35.53 40.5,34.33 37.19,7.12 59.81,7.32 				"/>
				<line class="st1" x1="63.72" y1="35.53" x2="59.81" y2="7.32"/>
				<line class="st1" x1="59.81" y1="7.32" x2="86.21" y2="5.43"/>
				<line class="st1" x1="115.51" y1="3.32" x2="140.3" y2="2.03"/>
				<line class="st1" x1="161.41" y1="28.83" x2="63.72" y2="35.53"/>
			</g>
		</g>
	</g>
	<g>
		<g>
			<g>
				<path class="st2" d="M138.41,40.62v-0.2l-22.7,1.6l-1.6,5.3v0.1c1.6,1.1,2.9,1.9,3.9,2.2l4.7,0.7c3.2,0.5,6.7,0.3,10.6-0.5
					c3.1-0.7,5.6-1.4,7.5-2.5l0,0L138.41,40.62"/>
				<polyline class="st2" points="138.41,40.43 160.1,38.93 161.41,19.33 153.1,23.83 153.6,29.43 139.1,30.33 138.51,24.72 
					131.71,25.12 132.01,30.12 131.91,30.62 117.51,31.43 117.41,30.93 117.21,27.33 117.21,27.12 117.21,26.83 117.1,26.52 
					117.1,26.22 117.1,26.12 117.1,26.12 131.71,25.12 138.51,24.72 153.1,23.83 161.41,19.33 61.22,25.52 68.21,29.33 84.71,28.22 
					85.01,33.22 93.01,32.83 92.71,27.72 107.71,26.62 107.71,31.93 93.01,32.83 85.01,33.22 68.4,34.12 68.21,29.33 61.22,25.52 
					64.21,45.62 87.01,44.12 115.71,42.03 138.41,40.43 				"/>
				<polyline points="153.6,29.43 153.1,23.83 138.51,24.72 139.1,30.33 153.6,29.43 				"/>
				<polyline points="131.91,30.62 132.01,30.12 131.71,25.12 117.1,26.12 117.1,26.52 117.21,26.83 117.21,27.12 117.21,27.33 
					117.41,30.93 117.51,31.43 131.91,30.62 				"/>
				<polyline points="107.71,31.93 107.71,26.62 92.71,27.72 93.01,32.83 107.71,31.93 				"/>
				<polyline points="85.01,33.22 84.71,28.22 68.21,29.33 68.4,34.12 85.01,33.22 				"/>
				<path class="st2" d="M80.6,55.43c0.9-0.2,4-1.2,9.3-3.1l-2.8-8.2h-0.1l-22.8,1.5h-1l-1.6,4.9c2.6,2.5,6.6,4,12.2,4.7
					C76.82,55.62,79.1,55.72,80.6,55.43"/>
				<polyline class="st2" points="63.22,45.62 64.21,45.62 61.22,25.52 38.7,27.43 42.2,30.93 57.31,30.02 57.5,34.93 57.31,35.33 
					42.5,36.12 42.2,30.93 38.7,27.43 40.92,45.03 63.22,45.62 				"/>
				<polyline points="57.31,35.33 57.5,34.93 57.31,30.02 42.2,30.93 42.5,36.12 57.31,35.33 				"/>
				<polyline class="st1" points="153.6,29.43 139.1,30.33 138.51,24.72 153.1,23.83 153.6,29.43 				"/>
				<polyline class="st1" points="132.01,30.12 131.71,25.12 117.1,26.12 117.1,26.12 117.1,26.22 117.1,26.52 117.21,26.83 
					117.21,27.12 117.21,27.33 117.41,30.93 				"/>
				<path class="st1" d="M114.1,47.43c1.6,1.1,2.9,1.9,3.9,2.2l4.7,0.7c3.2,0.5,6.7,0.3,10.6-0.5c3.1-0.7,5.6-1.4,7.5-2.5"/>
				<line class="st1" x1="140.8" y1="47.33" x2="138.41" y2="40.62"/>
				<polyline class="st1" points="115.71,42.03 138.41,40.43 160.1,38.93 161.41,19.33 61.22,25.52 				"/>
				<polyline class="st1" points="107.71,31.93 93.01,32.83 92.71,27.72 107.71,26.62 107.71,31.93 				"/>
				<polyline class="st1" points="85.01,33.22 68.4,34.12 68.21,29.33 84.71,28.22 85.01,33.22 				"/>
				<path class="st1" d="M63.22,45.62l-1.6,4.9c2.6,2.5,6.6,4,12.2,4.7c3,0.4,5.3,0.5,6.8,0.2c0.9-0.2,4-1.2,9.3-3.1l-2.8-8.2"/>
				<line class="st1" x1="115.71" y1="42.03" x2="114.1" y2="47.33"/>
				<polyline class="st1" points="64.21,45.62 87.01,44.12 115.71,42.03 				"/>
				<polyline class="st1" points="57.5,34.93 57.31,30.02 42.2,30.93 42.5,36.12 57.31,35.33 				"/>
				<line class="st1" x1="63.22" y1="45.62" x2="64.21" y2="45.62"/>
				<line class="st1" x1="64.21" y1="45.62" x2="61.22" y2="25.52"/>
				<polyline class="st1" points="61.22,25.52 38.7,27.43 40.92,45.03 63.22,45.62 				"/>
				<line class="st1" x1="117.51" y1="31.43" x2="131.91" y2="30.62"/>
			</g>
		</g>
	</g>
</g>
</svg>
