<?xml version="1.0" encoding="utf-8"?>
<!-- Generator: Adobe Illustrator 23.0.0, SVG Export Plug-In . SVG Version: 6.00 Build 0)  -->
<svg version="1.1" id="Layer_1" xmlns="http://www.w3.org/2000/svg" xmlns:xlink="http://www.w3.org/1999/xlink" x="0px" y="0px"
	 viewBox="0 0 200 75.5" style="enable-background:new 0 0 200 75.5;" xml:space="preserve">
<style type="text/css">
	.st0{fill:#FFFFFF;}
</style>
<g>
	<g>
		<g>
			<path d="M133.49,0.7V0.3l-0.7-0.3l-3.2,1.3c-1.4,0.6-3.4,0.8-5.9,0.7l-0.2,0.5v0.2h-0.2c-0.2,11.8-0.1,20.3,0.1,25.5l-0.8,0.2
				l0.1,0.2l0.2,0.3l-1.5,0.2c-3.5,0.9-5.6,2.9-6.2,5.9c-0.3,1.5-0.2,3,0.3,4.7l0.8,2.3l-0.3,0.1c0.7,1.6,1.6,3.2,2.8,4.8l5.7,7.1
				c1.9,2.3,4.1,5.5,6.5,9.3c1.9,2.5,4.3,3.4,7.1,2.7c1.3-0.5,2.2-1.2,2.7-2.4c0.5,0.9,1.6,1.1,3.5,0.6c1.7-0.5,2.7-1.6,3.1-3.2
				v-0.9l-1.3,0.4l-0.1,0.2c-0.3,1.2-1,1.9-1.9,2.2l-2.5,0.2V63h-0.2c-0.5,0-1-0.4-1.6-0.9c-0.3,1.4-1,2.2-2.1,2.5
				c-2.4,0.7-5-0.8-7.7-4.4l-4.8-7.6c-2.3-2.8-4.1-5-5.1-6.4c-1.3-1.7-2.2-3.2-2.9-4.6l-0.5-2.2c-1.3-4.4,0.9-7.7,6.6-9.6v-0.1
				l0.2,0.4v0.1c0.1,2.5,0.4,3.8,0.7,3.8c0.1,0,0.3-0.4,0.4-1.4l0.7-0.4l-0.5-1.7c0.3-3.4,0.4-9.2,0.4-17.5v-1.5v-0.6V8.2V6.3V3.4
				c1.4,0.1,3.2-0.2,5.2-0.9l0.9-0.3v3.3v0.7v1.3v3.3V13v13l-0.5,0.1c0.3,1.1,0.4,2.6,0.5,4.4v0.7l0.3,0.1
				c1.8,5.5,5.5,10.1,11.1,13.9c1.3,0.9,3.3,2.1,5.9,3.6c1.8,0.9,2.7,1.7,2.9,2c0.1,0.7-0.1,1.5-0.6,2.7h-0.2l0.2,1.7l0.7,0.8
				c0.2,0.5-0.3,1.2-1.2,2.1l-0.1,0.1c-0.4,0.7-1.4,1.3-2.9,1.9V61l1.2-0.4c1.8-0.5,3.1-1.4,3.8-2.8c0.4-0.9,0.6-1.6,0.4-2.1
				c-0.2-0.7-0.5-1.2-1-1.7c0.8-0.3,1.2-1,1.2-2l-0.4-1.6c-0.3-1.1-1-1.9-2.1-2.5l-5.2-2c-2-0.8-4.2-2.4-6.4-4.9
				c-1.1-1.2-2.3-3.3-3.6-6.3c-0.8-1.9-1.6-3.4-2.6-4.5v-0.3c0.4-3.7,0.6-13.2,0.5-28.7L133.49,0.7"/>
			<path class="st0" d="M131.29,5.5V2.2l-0.9,0.3c-2,0.7-3.8,1-5.2,0.9v2.9v1.9v2.7v0.6V13c0,8.3-0.1,14.1-0.4,17.5l0.5,1.7
				l-0.7,0.4c-0.1,1-0.3,1.4-0.4,1.4c-0.3,0-0.6-1.3-0.7-3.8v-0.1l-0.2-0.3c-5.7,1.9-7.9,5.2-6.6,9.6l0.5,2.2
				c0.7,1.4,1.6,2.9,2.9,4.6c1,1.4,2.8,3.6,5.1,6.4l4.8,7.6c2.7,3.6,5.3,5.1,7.7,4.4c1.1-0.3,1.8-1.1,2.1-2.5
				c0.6,0.5,1.1,0.9,1.6,0.9h0.2v0.1l2.5-0.2c0.9-0.3,1.6-1,1.9-2.2l0.1-0.2l1.3-0.4c1.5-0.6,2.5-1.2,2.9-1.9l0.1-0.1
				c0.9-0.9,1.4-1.6,1.2-2.1l-0.7-0.8l-0.2-1.7h0.2c0.5-1.2,0.7-2,0.6-2.7c-0.2-0.3-1.1-1.1-2.9-2c-2.6-1.5-4.6-2.7-5.9-3.6
				c-5.6-3.8-9.3-8.4-11.1-13.9l-0.3-0.1v-0.7c-0.1-1.8-0.2-3.3-0.5-4.4l0.5-0.1V13v-2.2V7.5V6.2V5.5"/>
			<path d="M76.58,3.2c-0.2-0.4-1.3-0.7-3.4-0.9l-2.9-0.2c-1.6-0.2-2.7-0.2-3.2-0.1c-0.1,0-0.2,0.1-0.2,0.3h-0.1v0.2
				c-1.6,12-2.7,20.9-3.1,26.5l-0.3,4.4c-0.8,1.2-1.4,2.8-1.9,4.8c-0.9,3.2-1.7,5.5-2.6,6.8c-1.9,2.8-3.8,4.8-5.6,5.8l-4.8,2.8
				c-1.1,0.7-1.7,1.6-1.8,2.7l-0.1,1.7c0.2,1,0.6,1.6,1.4,1.8c-0.4,0.5-0.7,1.2-0.7,1.8c-0.1,0.5,0.2,1.2,0.7,2
				c0.9,1.4,2.3,2.1,4.2,2.4h1.2c0.6,1.6,1.8,2.5,3.6,2.8c1.9,0.2,3-0.1,3.3-1.1l-0.8-0.4l-2.5,0.2c-1-0.2-1.8-0.8-2.3-1.9l-0.1-0.3
				v-0.2h0.1l-0.6-0.7c-0.2-0.3-0.6-0.6-1-0.8v1.1c-0.8,0.1-1.8-0.2-2.8-0.8c-1.3-0.9-1.9-1.6-1.8-2.1c0.1-0.3,0.5-0.9,1.3-1.7
				l-0.1-0.5l-0.2-0.9l-0.6,0.4c-0.8-1-1.1-1.9-1-2.6c0-0.3,0.9-1.1,2.5-2.3l5.4-4.4c5.3-5,8.3-10.5,9.1-16.6l-0.2-0.6l0.6-3.4
				l2.1-15.5l0.2-2.1l0.5-3.7l0.2-1.8l0.3-2.9h0.1l6,0.6l-0.4,2.6l-0.2,2.1l-0.4,3.5l-0.3,2.2l-1.9,15.7l-0.5,4.3l0.9,0.4l0.4-0.7
				l0.2-1.9l0.1-0.4l0,0c5.9,1.1,8.6,3.9,8,8.5l-0.2,2.3c-0.5,1.5-1.2,3.1-2.1,5l-4.2,7.1c-0.5,1-1.7,3.6-3.5,8.2
				c-2.2,4-4.5,5.8-7.1,5.5c-0.9-0.1-1.6-0.7-2.1-1.6l-1.2-1l-0.6,0.4l0.1,0.2l-0.3,0.1l-0.1,0.2l0.2,0.8l0.8,0.4
				c0.7,1.1,1.7,1.7,3,1.8c2.9,0.4,5.1-0.8,6.7-3.6c1.8-4.2,3.5-7.6,5.1-10.2l4.6-7.8c0.9-1.8,1.5-3.5,2-5.2l-0.3-0.1l0.5-2.3
				c0.2-1.8,0-3.3-0.5-4.7c-1-2.9-3.4-4.5-7-5c-0.7-0.1-1.1-0.1-1.5,0l0.2-0.2l0.1-0.3c0.8-4.9,2-13.9,3.5-26.9L76.58,3.2"/>
			<path class="st0" d="M68.58,3.2l-0.3,2.9l-0.2,1.8l-0.5,3.7l-0.2,2.1l-2.1,15.5l-0.6,3.4l0.2,0.6c-0.8,6.1-3.8,11.6-9.1,16.6
				l-5.4,4.4c-1.6,1.2-2.5,2-2.5,2.3c-0.1,0.7,0.2,1.6,1,2.6l0.6-0.4l0.2,0.9l0.1,0.5c-0.8,0.8-1.2,1.4-1.3,1.7
				c-0.1,0.5,0.5,1.2,1.8,2.1c1,0.6,2,0.9,2.8,0.8v-1.1c0.4,0.2,0.8,0.5,1,0.8l0.6,0.7h-0.1v0.2l0.1,0.3c0.5,1.1,1.3,1.7,2.3,1.9
				l2.5-0.2l-0.2-0.8l0.1-0.2l0.3-0.1l-0.1-0.2l0.6-0.4l1.2,1c0.5,0.9,1.2,1.5,2.1,1.6c2.6,0.3,4.9-1.5,7.1-5.5
				c1.8-4.6,3-7.2,3.5-8.2l4.2-7.1c0.9-1.9,1.6-3.5,2.1-5l0.2-2.3c0.6-4.6-2.1-7.4-8-8.5l-0.1,0.4l-0.2,1.9l-0.4,0.7l-0.9-0.4
				l0.5-4.3l1.9-15.7l0.3-2.2l0.4-3.5l0.2-2.1l0.4-2.6l-6-0.6L68.58,3.2"/>
		</g>
	</g>
</g>
<g>
	<g>
		<g>
			<path d="M156.89,54.6c-0.3-2.4-1.2-4.6-2.5-6.6l-2,2.6c0.7,1.2,1,2.4,1,3.5c0,3-1.2,4.5-3.7,4.5c-0.8,0-2-1.1-3.8-3.5
				c-1.6-2.2-2.5-3.5-2.5-3.8c0-2.5,1.3-3.7,3.9-3.7c2.3,0,4,1,5.1,3l2-2.6c-2.4-3.4-5.7-4.8-10-4.3l-3.5,0.7c-1.4,0.2-2,0.5-1.9,1
				c-3.6,0.4-6.2-0.2-7.9-1.8l-1.6-2.7c2.2-1,4-1.6,5.5-1.8c0.9-0.2,1.4-0.4,1.4-0.6l-0.2-0.4h-0.4v-0.2c-0.4-2.6-1.3-4.3-2.9-5.2
				l-0.3,0.5l-3.6,0.2c-1.4,0.2-2.7,0.7-4,1.5l-0.7-1.6l-1.1-1.4l-0.1,0.1l-1.2,0.1c-5.3,0.7-7.9,3.7-7.9,8.9
				c0.6,4.3,2.7,9.8,6.2,16.5c3.2,5.9,6.3,10.5,9.2,13.7v0.2c0,0.6,0.8,1.1,2.3,1.5l7.5,0.3c8.1-1.1,13.5-4.2,16.1-9.5
				C156.79,60.8,157.29,57.8,156.89,54.6"/>
			<path class="st0" d="M152.39,50.6c-1.1-2-2.8-3-5.1-3c-2.6,0-3.9,1.2-3.9,3.7c0,0.3,0.9,1.6,2.5,3.8c1.8,2.4,3,3.5,3.8,3.5
				c2.5,0,3.7-1.5,3.7-4.5C153.39,53,153.08,51.8,152.39,50.6"/>
			<path d="M73.58,32.5l-0.2-0.1c-0.1,0.1-0.4,0.6-0.8,1.5s-0.6,1.5-0.6,1.7v0.1c-1.3-0.7-2.7-1-4.1-1l-3.6,0.2l-0.4-0.5
				c-1.4,1.2-2.1,3-2.1,5.6v0.2h-0.4l-0.1,0.5l1.4,0.4c1.5,0,3.4,0.4,5.7,1.1l-1.3,2.8c-1.4,1.9-3.9,2.8-7.5,2.8
				c0-0.4-0.7-0.6-2-0.6l-3.6-0.3c-4.3,0-7.5,1.9-9.3,5.6l2.7,1.1c1.1-2.4,2.9-3.5,5.3-3.5c2.3,0,3.6,1.2,3.7,3.7
				c0,0.7-0.4,1.4-1.2,2.1c-0.8,0.6-1.2,1.6-1.3,2.7c0,0.6-0.2,1.4-0.7,2.1c-0.7,1.3-1.7,1.9-3,1.9c-1.8,0-2.9-0.8-3.5-2.2
				c-0.2-0.6-0.3-1.4-0.3-2.6c0-1.3,0.4-2.8,1-4.2l-2.7-1.1c-1.1,2.1-1.7,4.5-1.7,6.9c0,3.2,0.9,6.1,2.8,8.8
				c3.3,4.8,9.1,7.3,17.2,7.3c3.1,0,5.6-0.5,7.4-1.3c1.4-0.7,2.1-1.2,2.1-1.8v-0.2c2.5-3.6,4.9-8.5,7.3-14.7c2.6-7.2,4-12.9,4-17.3
				c-0.7-5.2-3.7-7.8-9-7.8L73.58,32.5"/>
			<path class="st0" d="M52.69,50.1c-2.4,0-4.2,1.1-5.3,3.5c-0.6,1.4-1,2.9-1,4.2c0,1.2,0.1,2,0.3,2.6c0.6,1.4,1.7,2.2,3.5,2.2
				c1.3,0,2.3-0.6,3-1.9c0.5-0.7,0.7-1.5,0.7-2.1c0.1-1.1,0.5-2.1,1.3-2.7c0.8-0.7,1.2-1.4,1.2-2.1
				C56.28,51.3,54.99,50.1,52.69,50.1"/>
		</g>
	</g>
</g>
</svg>
