<?xml version="1.0" encoding="utf-8"?>
<!-- Generator: Adobe Illustrator 23.0.0, SVG Export Plug-In . SVG Version: 6.00 Build 0)  -->
<svg version="1.1" id="Layer_1" xmlns="http://www.w3.org/2000/svg" xmlns:xlink="http://www.w3.org/1999/xlink" x="0px" y="0px"
	 viewBox="0 0 200 54.53" style="enable-background:new 0 0 200 54.53;" xml:space="preserve">
<style type="text/css">
	.st0{fill:#FFFFFF;}
	.st1{fill:#FF0000;}
	.st2{fill:#2F3A7F;}
	.st3{fill:none;stroke:#000000;stroke-linecap:round;stroke-linejoin:round;stroke-miterlimit:10;}
</style>
<g>
	<g>
		<g>
			<polyline class="st0" points="146.64,23.13 143.74,20.23 132.74,27.23 131.64,28.13 133.54,30.53 146.64,23.13 			"/>
			<path class="st1" d="M147.24,23.73l-0.6-0.6l-13.1,7.4l-1.9-2.4l-0.2-0.1l1.3-0.8l-0.7-1.5c-0.4-0.7-0.8-1.4-1-2.1l-1.7,1.1
				l-2.6-2.9l2-1.2l-0.1-0.3l-2.4-4.1l-1.5,0.8l-1.8-2.8h-0.8l0.1,0.8v0.3c0.2,1.9-0.5,3-2.3,3.2l-0.2,0.1c-1.1,0.1-2-0.2-2.6-0.8
				l-0.5-0.8l-0.4-1.4c-0.1-1.3,0.5-2.5,1.9-3.6l1.2-0.2h0.5l0.5-0.1l0.1,0.2l0.4,0.2c0.5,0.3,0.9,0.6,1.1,1l0.2,1.1h0.8l2.2-1
				c-1.5-3.3-2.2-5.2-2.3-5.8v-0.2c-1.8,0.3-3.5,1-5.3,2.1c-2.3,1.6-3.4,3.2-3.2,5c0.1,0.8,0.4,1.9,0.9,3.2
				c1.3,3.3,3.9,7.8,7.8,13.6c1.4,1.5,2.9,3.6,4.4,6.1l5.5,7.5l0.2-0.3h0.3c1.9-3.2,4.4-6.1,7.6-8.6c1.8-1.4,3.6-2.5,5.4-3.3v-0.2
				l-9.1,4.8l-1.8-2.2l2.4-1.4c-1.3-1.4-2.1-2.5-2.5-3.4c0.4,0.9,1.2,2,2.5,3.4l12.4-7L147.24,23.73"/>
			<path class="st0" d="M119.33,11.83l-1.2,0.2c-1.4,1.1-2,2.3-1.9,3.6l0.4,1.4l0.5,0.8c0.6,0.6,1.5,0.9,2.6,0.8l0.2-0.1
				c1.8-0.2,2.5-1.3,2.3-3.2v-0.3c-1.5,1-2.3,1.9-2.2,2.8h-0.2c-0.1-0.4-0.4-1-1-1.6l-1.1,1.3l-0.5,0.1c0-0.5,0-0.9,0.2-1.2l0.4-0.8
				c-0.1-0.4-0.4-0.7-0.7-1c1.1-0.1,1.7-0.4,2-0.9L119.33,11.83"/>
			<path class="st0" d="M120.83,12.13l-0.4-0.2l-0.4-0.1l0.1,2.5l2.1,0.7l-0.1-0.8l-0.2-1.1C121.74,12.73,121.33,12.43,120.83,12.13
				"/>
			<path class="st2" d="M119.83,11.83h-0.5l-0.2,1.9c-0.3,0.5-0.9,0.8-2,0.9c0.3,0.3,0.6,0.6,0.7,1l-0.4,0.8
				c-0.2,0.3-0.2,0.7-0.2,1.2l0.5-0.1l1.1-1.3c0.6,0.6,0.9,1.2,1,1.6h0.2c-0.1-0.9,0.7-1.8,2.2-2.8l-2.1-0.7l-0.1-2.5H119.83"/>
			<path class="st1" d="M133.24,7.53l-0.3-0.9l-1.3-3.4c-0.8-2-1.7-2.9-2.9-2.7c-1.9,0.2-3.5,1-4.6,2.5c-1,1.3-1.4,2.7-1.3,4.2v0.2
				c0.1,0.6,0.8,2.5,2.3,5.8l8.8-4.2C133.64,8.53,133.33,8.03,133.24,7.53"/>
			<polyline class="st0" points="135.83,11.43 133.93,9.03 125.14,13.23 122.93,14.23 124.74,17.03 126.24,16.23 135.83,11.43 			
				"/>
			<polyline class="st1" points="128.64,20.33 128.93,20.43 138.43,14.63 135.83,11.43 126.24,16.23 128.64,20.33 			"/>
			<polyline class="st0" points="129.33,24.73 131.04,23.63 140.83,17.23 138.43,14.63 128.93,20.43 128.74,20.63 126.74,21.83 
				129.33,24.73 			"/>
			<path class="st1" d="M140.83,17.23l-9.8,6.4c0.2,0.7,0.6,1.4,1,2.1l0.7,1.5l11-7L140.83,17.23"/>
			<polyline class="st0" points="137.93,33.53 135.54,34.93 137.33,37.13 146.43,32.33 151.24,29.73 152.43,29.13 152.83,28.63 
				152.74,28.53 150.33,26.53 137.93,33.53 			"/>
			<path class="st0" d="M133.43,44.43l-0.2,0.7c2.7,2.5,6,3.6,9.9,3.2c3.8-0.5,7.2-1.9,10.4-4.3c2.4-1.8,3.9-3.6,4.5-5.5l0.3-2.5
				c-0.2-1.4-1.1-3-2.8-4.9l-0.1-0.1c-1.6-0.1-2.8-0.1-3.5-0.1c-1.8,0.2-3.6,0.7-5.5,1.6c-1.8,0.8-3.6,1.9-5.4,3.3
				C137.83,38.33,135.33,41.23,133.43,44.43"/>
			<path class="st0" d="M133.24,45.13l-0.9,0.8c2.6,3.3,6.3,4.7,10.8,4.2c2.2-0.3,5.4-1.4,9.7-3.2c4.2-1.9,6.1-4.7,5.8-8.2l-0.6-0.2
				c-0.6,1.9-2.1,3.7-4.5,5.5c-3.2,2.4-6.6,3.8-10.4,4.3C139.24,48.73,135.93,47.63,133.24,45.13"/>
			<path class="st1" d="M155.43,31.03l-1.7-1.7l-0.9-0.7l-0.4,0.5l-1.2,0.6l0.7,1.2C152.64,30.93,153.83,30.93,155.43,31.03"/>
			<path class="st1" d="M82.13,18.53c0.3-1.4,0.5-2.5,0.5-3.4c0-1.7-1.2-3.3-3.7-4.5c-1.9-0.9-3.7-1.4-5.6-1.6v0.3
				c0,0.6-0.5,2.6-1.5,6l2.3,0.7h0.7l0.1-1.1c0.2-0.5,0.5-0.8,1-1.2l0.4-0.2v-0.2h0.5h0.6h1.2c1.5,0.9,2.2,2.1,2.2,3.3l-0.2,1.5
				l-0.4,0.8c-0.5,0.8-1.3,1.1-2.5,1.1h-0.2c-1.8,0-2.7-1-2.7-3v-0.2v-0.8h-0.7l-1.5,3l-1.6-0.6c-0.6,1.1-1.2,2.5-1.9,4.4l-0.1,0.3
				l2.1,0.9l-2.3,3.3l-1.8-0.9l-0.7,2.1c-0.4,0.7-0.5,1.2-0.5,1.6l1.3,0.7l-0.1,0.1l-1.7,2.6l-13.8-5.9l-0.5,0.7l-2.9,3.2l13.2,5.5
				c1.1-1.5,1.8-2.7,2-3.7c-0.2,1-0.9,2.2-2,3.7l2.5,1l-1.5,2.5l-9.6-3.7v0.2c1.9,0.6,3.8,1.5,5.8,2.7c3.4,2.1,6.3,4.6,8.6,7.6h0.2
				l0.3,0.3l4.6-8.1c1.2-2.7,2.4-4.9,3.6-6.6C79.13,26.63,81.13,21.83,82.13,18.53"/>
			<path class="st0" d="M78.63,13.33h-1.2c0,0.9,0.2,1.6,0.4,1.8c0.3,0.5,1,0.7,2,0.7c-0.3,0.3-0.5,0.7-0.5,1.1l0.4,0.7
				c0.3,0.3,0.4,0.7,0.4,1.2h-0.5l-1.3-1.3c-0.5,0.7-0.7,1.3-0.7,1.8h-0.3c0-0.9-0.9-1.7-2.5-2.5v0.2c0,2,0.9,3,2.7,3h0.2
				c1.2,0,2-0.3,2.5-1.1l0.4-0.8l0.2-1.5C80.83,15.43,80.13,14.23,78.63,13.33"/>
			<path class="st2" d="M77.83,15.13c-0.2-0.2-0.4-0.9-0.4-1.8h-0.6h-0.1l0.1,2.5c-1,0.4-1.7,0.7-2,1c1.6,0.8,2.5,1.6,2.5,2.5h0.3
				c0-0.5,0.2-1.1,0.7-1.8l1.3,1.3h0.5c0-0.5-0.1-0.9-0.4-1.2l-0.4-0.7c0-0.4,0.2-0.8,0.5-1.1C78.83,15.83,78.13,15.63,77.83,15.13"
				/>
			<path class="st0" d="M74.83,16.03v0.8c0.3-0.3,1-0.6,2-1l-0.1-2.5l-0.4,0.2l-0.4,0.2c-0.5,0.4-0.8,0.7-1,1.2L74.83,16.03"/>
			<path class="st1" d="M73.33,9.33v-0.3c0-1.5-0.6-2.8-1.7-4c-1.3-1.3-3-2-4.9-2c-1.2,0-2,1-2.6,3.1l-1,3.6l-0.1,0.9l-0.6,1.5
				l9.4,3.2C72.83,11.93,73.33,9.93,73.33,9.33"/>
			<path class="st1" d="M68.83,23.03l0.3-0.2c0.7-1.9,1.3-3.3,1.9-4.4l-10.1-3.6l-2.3,3.4L68.83,23.03"/>
			<polyline class="st0" points="69.04,23.13 68.83,23.03 58.63,18.23 56.63,21.13 67.04,26.43 68.83,27.33 71.13,24.03 
				69.04,23.13 			"/>
			<polyline class="st0" points="74.13,16.03 71.83,15.33 62.43,12.13 60.93,14.83 71.04,18.43 72.63,19.03 74.13,16.03 			"/>
			<path class="st1" d="M56.63,21.13l-2.6,3.3l11.8,5.7c0-0.4,0.1-0.9,0.5-1.6l0.7-2.1L56.63,21.13"/>
			<path class="st0" d="M43.63,36.53l-0.1,0.2c-1.5,2-2.2,3.7-2.2,5.1c0,0.8,0.2,1.6,0.5,2.4c0.8,1.9,2.5,3.5,5.2,5.1
				c3.4,2,7,3,10.8,3c4,0,7.1-1.5,9.5-4.3l-0.2-0.7c-2.3-3-5.2-5.5-8.6-7.6c-2-1.2-3.9-2.1-5.8-2.7c-1.9-0.7-3.8-1-5.6-1
				L43.63,36.53"/>
			<polyline class="st1" points="45.13,34.63 43.63,36.53 47.13,36.03 47.63,34.73 46.33,34.23 45.93,33.93 45.13,34.63 			"/>
			<polyline class="st0" points="46.03,33.73 45.93,33.93 46.33,34.23 47.63,34.73 52.74,36.83 62.33,40.53 63.83,38.03 
				61.33,37.03 48.13,31.53 46.03,33.73 			"/>
			<path class="st0" d="M47.03,49.33c-2.7-1.6-4.4-3.2-5.2-5.1l-0.5,0.3c0,3.6,2.3,6.1,6.7,7.5c4.5,1.4,7.8,2,10.1,2
				c4.5,0,7.9-1.7,10.2-5.3l-1-0.7c-2.4,2.8-5.5,4.3-9.5,4.3C54.03,52.33,50.43,51.33,47.03,49.33"/>
			<polyline class="st0" points="65.33,33.53 67.04,30.93 65.83,30.13 54.03,24.43 51.53,27.63 65.33,33.53 			"/>
			<line class="st3" x1="146.64" y1="23.13" x2="143.74" y2="20.23"/>
			<polyline class="st3" points="150.33,26.53 147.24,23.73 146.64,23.13 			"/>
			<path class="st3" d="M133.93,9.03c-0.3-0.5-0.6-1-0.7-1.5l-0.3-0.9l-1.3-3.4c-0.8-2-1.7-2.9-2.9-2.7c-1.9,0.2-3.5,1-4.6,2.5
				c-1,1.3-1.4,2.7-1.3,4.2"/>
			<line class="st3" x1="135.83" y1="11.43" x2="133.93" y2="9.03"/>
			<path class="st3" d="M122.83,7.23v0.2c0.1,0.6,0.8,2.5,2.3,5.8"/>
			<polyline class="st3" points="125.14,13.23 122.93,14.23 124.74,17.03 126.24,16.23 			"/>
			<polyline class="st3" points="126.24,16.23 128.64,20.33 128.93,20.43 			"/>
			<polyline class="st3" points="128.93,20.43 128.74,20.63 126.74,21.83 129.33,24.73 131.04,23.63 			"/>
			<line class="st3" x1="140.83" y1="17.23" x2="138.43" y2="14.63"/>
			<line class="st3" x1="133.93" y1="9.03" x2="125.14" y2="13.23"/>
			<line class="st3" x1="135.83" y1="11.43" x2="126.24" y2="16.23"/>
			<line class="st3" x1="140.83" y1="17.23" x2="131.04" y2="23.63"/>
			<line class="st3" x1="138.43" y1="14.63" x2="128.93" y2="20.43"/>
			<line class="st3" x1="138.43" y1="14.63" x2="135.83" y2="11.43"/>
			<polyline class="st3" points="137.93,33.53 135.54,34.93 137.33,37.13 146.43,32.33 151.24,29.73 152.43,29.13 			"/>
			<path class="st3" d="M135.43,30.13c0.4,0.9,1.2,2,2.5,3.4"/>
			<path class="st3" d="M127.43,37.23c-1.5-2.5-3-4.6-4.4-6.1"/>
			<polyline class="st3" points="123.03,31.13 124.64,33.43 127.43,37.23 			"/>
			<polyline class="st3" points="132.74,27.23 131.43,28.03 131.64,28.13 133.54,30.53 146.64,23.13 			"/>
			<path class="st3" d="M127.43,37.23c1.2,2.1,2.4,4.4,3.7,7.1l0.8,1.3l0.4,0.3c2.6,3.3,6.3,4.7,10.8,4.2c2.2-0.3,5.4-1.4,9.7-3.2
				c4.2-1.9,6.1-4.7,5.8-8.2"/>
			<path class="st3" d="M127.43,37.23l5.5,7.5l0.3,0.4c2.7,2.5,6,3.6,9.9,3.2c3.8-0.5,7.2-1.9,10.4-4.3c2.4-1.8,3.9-3.6,4.5-5.5
				l0.3-2.5c-0.2-1.4-1.1-3-2.8-4.9l-0.1-0.1"/>
			<path class="st3" d="M155.43,31.03c-1.6-0.1-2.8-0.1-3.5-0.1c-1.8,0.2-3.6,0.7-5.5,1.6c-1.8,0.8-3.6,1.9-5.4,3.3
				c-3.2,2.5-5.7,5.4-7.6,8.6h-0.3"/>
			<path class="st3" d="M131.04,23.63c0.2,0.7,0.6,1.4,1,2.1l0.7,1.5"/>
			<polyline class="st3" points="155.43,31.03 153.74,29.33 152.83,28.63 152.74,28.53 150.33,26.53 			"/>
			<line class="st3" x1="143.74" y1="20.23" x2="132.74" y2="27.23"/>
			<line class="st3" x1="150.33" y1="26.53" x2="137.93" y2="33.53"/>
			<line class="st3" x1="143.74" y1="20.23" x2="140.83" y2="17.23"/>
			<path class="st3" d="M119.33,11.83l-1.2,0.2c-1.4,1.1-2,2.3-1.9,3.6l0.4,1.4l0.5,0.8c0.6,0.6,1.5,0.9,2.6,0.8l0.2-0.1
				c1.8-0.2,2.5-1.3,2.3-3.2v-0.3"/>
			<path class="st3" d="M122.24,15.03l-0.1-0.8l-0.2-1.1c-0.2-0.4-0.6-0.7-1.1-1l-0.4-0.2"/>
			<line class="st3" x1="119.33" y1="11.83" x2="119.83" y2="11.83"/>
			<polyline class="st3" points="119.83,11.83 120.33,11.73 120.43,11.93 			"/>
			<line class="st3" x1="120.43" y1="11.93" x2="120.03" y2="11.83"/>
			<line class="st3" x1="120.03" y1="11.83" x2="119.83" y2="11.83"/>
			<polyline class="st3" points="120.03,11.83 120.14,14.33 122.24,15.03 			"/>
			<path class="st3" d="M122.24,15.03c-1.5,1-2.3,1.9-2.2,2.8h-0.2c-0.1-0.4-0.4-1-1-1.6l-1.1,1.3l-0.5,0.1c0-0.5,0-0.9,0.2-1.2
				l0.4-0.8c-0.1-0.4-0.4-0.7-0.7-1c1.1-0.1,1.7-0.4,2-0.9l0.2-1.9"/>
			<path class="st3" d="M122.83,7.23c-1.8,0.3-3.5,1-5.3,2.1c-2.3,1.6-3.4,3.2-3.2,5c0.1,0.8,0.4,1.9,0.9,3.2
				c1.3,3.3,3.9,7.8,7.8,13.6"/>
			<path class="st3" d="M73.33,9.03c1.9,0.2,3.7,0.7,5.6,1.6c2.5,1.2,3.7,2.8,3.7,4.5c0,0.9-0.2,2-0.5,3.4c-1,3.3-3,8.1-6.3,14.4
				l-1.2,2.4l-2.4,4.2l-4.6,8.1l-0.3,0.4c-2.4,2.8-5.5,4.3-9.5,4.3c-3.8,0-7.4-1-10.8-3c-2.7-1.6-4.4-3.2-5.2-5.1
				c-0.3-0.8-0.5-1.6-0.5-2.4c0-1.4,0.7-3.1,2.2-5.1"/>
			<path class="st3" d="M71.83,15.33c1-3.4,1.5-5.4,1.5-6v-0.3c0-1.5-0.6-2.8-1.7-4c-1.3-1.3-3-2-4.9-2c-1.2,0-2,1-2.6,3.1l-1,3.6
				l-0.1,0.9"/>
			<polyline class="st3" points="43.63,36.53 45.13,34.63 45.93,33.93 46.03,33.73 48.13,31.53 51.03,28.33 51.53,27.63 
				54.03,24.43 56.63,21.13 58.63,18.23 60.93,14.83 62.43,12.13 63.03,10.63 			"/>
			<path class="st3" d="M68.83,23.03l0.3-0.2c0.7-1.9,1.3-3.3,1.9-4.4"/>
			<polyline class="st3" points="67.04,26.43 68.83,27.33 71.13,24.03 69.04,23.13 68.83,23.03 			"/>
			<path class="st3" d="M77.43,13.33h1.2c1.5,0.9,2.2,2.1,2.2,3.3l-0.2,1.5l-0.4,0.8c-0.5,0.8-1.3,1.1-2.5,1.1h-0.2
				c-1.8,0-2.7-1-2.7-3v-0.2"/>
			<path class="st3" d="M77.43,13.33c0,0.9,0.2,1.6,0.4,1.8c0.3,0.5,1,0.7,2,0.7c-0.3,0.3-0.5,0.7-0.5,1.1l0.4,0.7
				c0.3,0.3,0.4,0.7,0.4,1.2h-0.5l-1.3-1.3c-0.5,0.7-0.7,1.3-0.7,1.8h-0.3c0-0.9-0.9-1.7-2.5-2.5"/>
			<line class="st3" x1="76.83" y1="13.33" x2="77.43" y2="13.33"/>
			<polyline class="st3" points="76.83,13.33 76.33,13.33 76.33,13.53 			"/>
			<path class="st3" d="M74.83,16.83v-0.8l0.1-1.1c0.2-0.5,0.5-0.8,1-1.2l0.4-0.2"/>
			<line class="st3" x1="76.33" y1="13.53" x2="76.74" y2="13.33"/>
			<polyline class="st3" points="71.04,18.43 72.63,19.03 74.13,16.03 71.83,15.33 			"/>
			<line class="st3" x1="76.74" y1="13.33" x2="76.83" y2="13.33"/>
			<path class="st3" d="M74.83,16.83c0.3-0.3,1-0.6,2-1l-0.1-2.5"/>
			<line class="st3" x1="71.83" y1="15.33" x2="62.43" y2="12.13"/>
			<path class="st3" d="M67.33,47.33h-0.2c-2.3-3-5.2-5.5-8.6-7.6c-2-1.2-3.9-2.1-5.8-2.7c-1.9-0.7-3.8-1-5.6-1l-3.5,0.5l-0.1,0.2"
				/>
			<polyline class="st3" points="61.33,37.03 63.83,38.03 62.33,40.53 52.74,36.83 47.63,34.73 46.33,34.23 			"/>
			<line class="st3" x1="61.33" y1="37.03" x2="48.13" y2="31.53"/>
			<path class="st3" d="M65.83,30.13c0-0.4,0.1-0.9,0.5-1.6l0.7-2.1"/>
			<polyline class="st3" points="51.53,27.63 65.33,33.53 67.04,30.93 67.13,30.83 65.83,30.13 			"/>
			<path class="st3" d="M41.33,44.53c0,3.6,2.3,6.1,6.7,7.5c4.5,1.4,7.8,2,10.1,2c4.5,0,7.9-1.7,10.2-5.3l0.3-0.4l0.8-1.4
				c0.9-2.8,1.9-5.3,2.8-7.4c1.2-2.7,2.4-4.9,3.6-6.6"/>
			<line class="st3" x1="71.04" y1="18.43" x2="60.93" y2="14.83"/>
			<line class="st3" x1="65.83" y1="30.13" x2="54.03" y2="24.43"/>
			<line class="st3" x1="67.04" y1="26.43" x2="56.63" y2="21.13"/>
			<line class="st3" x1="58.63" y1="18.23" x2="68.83" y2="23.03"/>
			<path class="st3" d="M63.33,33.33c-0.2,1-0.9,2.2-2,3.7"/>
		</g>
	</g>
</g>
</svg>
