<?xml version="1.0" encoding="utf-8"?>
<!-- Generator: Adobe Illustrator 23.0.0, SVG Export Plug-In . SVG Version: 6.00 Build 0)  -->
<svg version="1.1" id="Layer_1" xmlns="http://www.w3.org/2000/svg" xmlns:xlink="http://www.w3.org/1999/xlink" x="0px" y="0px"
	 viewBox="0 0 200 68.97" style="enable-background:new 0 0 200 68.97;" xml:space="preserve">
<style type="text/css">
	.st0{fill:#FFFFFF;}
	.st1{fill:#2F3A7F;}
	.st2{fill:#FF0000;}
</style>
<g>
	<g>
		<g>
			<path d="M133.2,30.2l-0.1-0.3c0.5-3.7,0.7-13.2,0.7-28.7l0.4-0.6V0.2L133.5,0l-3.2,1.2c-1.5,0.6-3.5,0.8-6,0.6l-0.1,0.5v0.2h-0.3
				c-0.2,11.9-0.2,20.5-0.1,25.6l-0.8,0.2l0.1,0.2l0.2,0.3l-1.5,0.1c-3.5,1-5.6,2.9-6.2,5.9c-0.3,1.4-0.3,3,0.2,4.7l0.8,2.3
				l-0.3,0.1c0.7,1.6,1.6,3.3,2.8,4.9l5.6,7.1c1.9,2.4,4.1,5.4,6.4,9.3c2,2.6,4.4,3.5,7.2,2.7c1.3-0.4,2.2-1.1,2.7-2.2l3.4,0.6
				c1.8-0.5,2.8-1.6,3.2-3.3v-0.8l-1.3,0.5l-0.1,0.1c-0.4,1.1-1,1.9-2,2.2c-1.5,0.3-2.2,0.4-2.4,0.2v-0.1h-0.2
				c-0.5-0.1-1.1-0.4-1.6-1c-0.3,1.4-1,2.2-2.2,2.6c-2.4,0.5-5-1-7.6-4.5l-4.7-7.7l-5.2-6.5c-1.2-1.6-2.1-3.2-2.8-4.6l-0.4-2.2
				c-1.3-4.5,1-7.6,6.7-9.6l0,0l0.1,0.4l0.1,0.1c0.1,2.6,0.3,3.8,0.6,3.8l0.4-1.4l0.7-0.4l-0.5-1.7c0.3-3.4,0.5-9.2,0.6-17.5v-1.5
				v-0.6V3.3c1.5,0.1,3.2-0.2,5.3-0.9l0.9-0.2l-0.1,4v1.3v3.2V13l-0.2,12.9l-0.4,0.2c0.2,1,0.4,2.5,0.4,4.3v0.8l0.3,0.1
				c1.8,5.4,5.4,10.2,11,14c1.3,0.9,3.3,2.1,5.9,3.6c1.8,1,2.7,1.6,2.8,2c0.1,0.6,0,1.5-0.6,2.8l-0.1-0.1l0.1,1.7l0.7,0.9
				c0.2,0.5-0.2,1.2-1.2,2.1h-0.1c-0.4,0.7-1.4,1.4-2.9,1.9V61l1.2-0.2c1.8-0.6,3-1.5,3.8-2.9c0.4-0.9,0.6-1.6,0.5-2.1
				c-0.3-0.6-0.6-1.1-1-1.6c0.7-0.3,1.1-1,1.1-2l-0.3-1.7c-0.3-1.1-1.1-1.8-2.1-2.5l-5.2-2c-2-0.8-4.1-2.5-6.3-5
				c-1.1-1.2-2.3-3.3-3.6-6.3C135,32.8,134.09,31.2,133.2,30.2"/>
			<path class="st0" d="M132,31.3l-0.3-0.1v-0.8c0-1.8-0.2-3.3-0.4-4.3l0.4-0.2l0.2-12.9c-1.3,0.4-2.9,0.5-4.6,0.3l-1.5-0.4
				c-0.1,8.3-0.3,14.1-0.6,17.5l0.5,1.7l-0.7,0.4l-0.4,1.4c-0.3,0-0.5-1.2-0.6-3.8l-0.1-0.1l-0.1-0.4c-5.7,2-8,5.1-6.7,9.6l0.4,2.2
				c0.7,1.4,1.6,3,2.8,4.6l5.2,6.5l4.7,7.7c2.6,3.5,5.2,5,7.6,4.5c1.2-0.4,1.9-1.2,2.2-2.6c0.5,0.6,1.1,0.9,1.6,1h0.2v0.1
				c0.2,0.2,0.9,0.1,2.4-0.2c1-0.3,1.6-1.1,2-2.2l0.1-0.1l1.3-0.5c1.5-0.5,2.5-1.2,2.9-1.9h0.1c1-0.9,1.4-1.6,1.2-2.1l-0.7-0.9
				l-0.1-1.7l0.1,0.1c0.6-1.3,0.7-2.2,0.6-2.8c-0.1-0.4-1-1-2.8-2c-2.6-1.5-4.6-2.7-5.9-3.6C137.4,41.5,133.79,36.7,132,31.3"/>
			<path class="st0" d="M132,2.2l-0.9,0.2c-2.1,0.7-3.8,1-5.3,0.9v7.5l1.5,0.5c1.9,0.3,3.4,0.1,4.6-0.6V7.5
				c-1.7,0.6-3.8,0.8-6.1,0.6V6.2c2.7,0.3,4.7,0,6.1-0.7v0.7L132,2.2"/>
			<path class="st1" d="M125.79,6.2v1.9c2.3,0.2,4.4,0,6.1-0.6V6.2V5.5C130.5,6.2,128.5,6.5,125.79,6.2"/>
			<path class="st2" d="M127.29,11.3l-1.5-0.5v0.6v1.5l1.5,0.4c1.7,0.2,3.3,0.1,4.6-0.3v-2.3C130.7,11.4,129.2,11.6,127.29,11.3"/>
			<path d="M77.3,2.6L77.3,2.6C77.1,2.3,76,2,73.8,1.7L71,1.5l-3.2-0.1l-0.2,0.2h-0.1v0.2c-1.7,12.1-2.8,20.9-3.4,26.5l-0.4,4.5
				c-0.7,1.2-1.3,2.8-1.9,4.8c-0.8,3.1-1.7,5.4-2.6,6.7c-1.9,2.9-3.8,4.7-5.7,5.8l-4.8,2.7c-1.1,0.7-1.7,1.6-1.8,2.7l-0.1,1.7
				c0.1,1,0.6,1.6,1.4,1.9c-0.4,0.4-0.7,1-0.8,1.7c0,0.5,0.2,1.2,0.8,2.1c0.8,1.3,2.2,2,4.1,2.3h1.3c0.5,1.7,1.7,2.6,3.5,2.9
				c1.9,0.2,3-0.1,3.4-1.1c0.6,1.1,1.6,1.7,2.9,1.9c2.9,0.4,5.1-0.9,6.7-3.6c1.8-4.1,3.6-7.5,5.2-10.1l4.6-7.8
				c0.9-1.7,1.6-3.5,2.1-5.2h-0.3l0.5-2.4c0.2-1.7,0.1-3.3-0.4-4.8c-1-2.8-3.3-4.5-7-4.9h-1.5L73.1,31c5.8,1.2,8.5,4,7.8,8.7
				l-0.2,2.2c-0.4,1.5-1.2,3.1-2.2,4.9L74.3,54c-0.5,0.9-1.7,3.5-3.6,8.1c-2.2,4-4.6,5.8-7.1,5.4c-0.9-0.1-1.6-0.6-2.1-1.6l-1.2-1
				l-0.5,0.5v0.1l-0.3,0.1l-0.1,0.1l0.2,0.9c-0.2,0.2-1,0.3-2.5,0.1c-1-0.1-1.7-0.7-2.3-1.8l-0.1-0.4v-0.1l0.1-0.1l-0.6-0.6l-1-0.8
				l0.1,1c-0.9,0.1-1.8-0.1-2.9-0.7c-1.2-1-1.8-1.6-1.7-2.2c0-0.3,0.4-0.9,1.3-1.7l-0.2-0.5l-0.1-0.9l-0.6,0.5c-0.7-1.1-1.1-2-1-2.7
				c0.1-0.3,0.9-1.1,2.5-2.3l5.4-4.3c5.4-4.9,8.4-10.4,9.3-16.6l-0.2-0.6l0.6-3.4L68,13l0.2-2l0,0l0.5-3.7l0.2-1.8l0.3-2.9h0.1
				l6,0.7l-1,8.1L74,13.7l-2,15.6l-0.6,4.4l0.9,0.3l0.4-0.7l0.2-1.9L73,31h0.1l0.2-0.9l0.2-0.3l0.1-0.3
				C74.49,24.6,75.8,15.6,77.3,2.6"/>
			<path class="st0" d="M74.99,5.9l-0.3,2h-3.8l-2.2-0.6l-0.5,3.7l2.8,0.7c1.2,0.2,2.3,0,3.3-0.3l1-8.1l-6-0.7h-0.1l-0.3,2.9
				l0.5,0.3L74.99,5.9"/>
			<polyline class="st1" points="74.7,7.9 74.99,5.9 69.4,5.8 68.9,5.5 68.7,7.3 70.9,7.9 74.7,7.9 			"/>
			<path class="st2" d="M73.99,13.7l0.3-2.3c-1,0.3-2.1,0.5-3.3,0.3l-2.8-0.7l0,0l-0.2,2l2.9,0.7H73.99"/>
			<path class="st0" d="M70.9,13.7L68,13l-2.3,15.5l-0.6,3.4l0.2,0.6c-0.9,6.2-3.9,11.7-9.3,16.6l-5.4,4.3c-1.6,1.2-2.4,2-2.5,2.3
				c-0.1,0.7,0.3,1.6,1,2.7l0.6-0.5l0.1,0.9l0.2,0.5c-0.9,0.8-1.3,1.4-1.3,1.7c-0.1,0.6,0.5,1.2,1.7,2.2c1.1,0.6,2,0.8,2.9,0.7
				l-0.1-1l1,0.8l0.6,0.6l-0.1,0.1v0.1l0.1,0.4c0.6,1.1,1.3,1.7,2.3,1.8c1.5,0.2,2.3,0.1,2.5-0.1l-0.2-0.9l0.1-0.1l0.3-0.1v-0.1
				l0.5-0.5l1.2,1c0.5,1,1.2,1.5,2.1,1.6c2.5,0.4,4.9-1.4,7.1-5.4c1.9-4.6,3.1-7.2,3.6-8.1l4.2-7.2c1-1.8,1.8-3.4,2.2-4.9l0.2-2.2
				c0.7-4.7-2-7.5-7.8-8.7l-0.2,0.4l-0.2,1.9L72.3,34l-0.9-0.3l0.6-4.4l2-15.6L70.9,13.7"/>
		</g>
	</g>
</g>
</svg>
