<?xml version="1.0" encoding="utf-8"?>
<!-- Generator: Adobe Illustrator 23.0.0, SVG Export Plug-In . SVG Version: 6.00 Build 0)  -->
<svg version="1.1" id="Layer_1" xmlns="http://www.w3.org/2000/svg" xmlns:xlink="http://www.w3.org/1999/xlink" x="0px" y="0px"
	 viewBox="0 0 200 291.09" style="enable-background:new 0 0 200 291.09;" xml:space="preserve">
<style type="text/css">
	.st0{fill:#FFFF00;}
	.st1{fill:#FFFFFF;}
	.st2{fill:#FF0000;}
	.st3{fill:#9C9B3C;}
	.st4{fill:#E7E316;}
	.st5{fill:#B5B640;}
	.st6{fill:#C6C338;}
	.st7{fill:#D9D9D9;}
	.st8{fill:#E1E1E1;}
	.st9{fill:none;stroke:#000000;stroke-linecap:round;stroke-linejoin:round;stroke-miterlimit:10;}
	.st10{fill:#99993D;}
	.st11{fill:#E3E31C;}
	.st12{fill:#B4B440;}
	.st13{fill:#C2C23C;}
	.st14{fill:#7C97C6;}
	.st15{fill:#7A97C6;}
	.st16{fill:#85412F;}
	.st17{fill:#DB6E40;}
</style>
<g>
	<g>
		<path d="M124.1,177.01c-1.2,0.1-2.6,0.5-4.1,1.2c-2.3,0.9-3.6,1.8-3.6,2.5c-0.3,1.6,0.1,2.1,1,1.4l2.9-0.7l0.7-0.2l3.1-0.8
			l4.2-1.2c-0.4,2.5-0.6,7.6-0.7,15.4l-0.3,17.1v3.7l-0.3,24.7l-0.4,0.1c0.2,1.2,0.3,2.6,0.4,4.4v0.8l0.3,0.1
			c1.7,5.5,5.4,10.1,10.9,14l6,3.5c1.7,1,2.7,1.7,2.8,2.1c0.1,0.6-0.1,1.5-0.6,2.7c-1.6-0.7-2.9-1.6-3.9-2.5
			c-0.4,0.3-0.5,0.5-0.4,0.8c0.1,0.4,0.9,1.1,2.5,2.1c1.5,1,2.4,1.7,2.5,2.1c0.1,0.6-0.4,1.3-1.5,2.4c-0.9,0.8-1.8,1.2-2.7,1.2
			c0-0.5,0-0.9-0.1-1.4c-0.2-0.5-1.1-1.7-2.7-3.5c-0.2,0.5-0.3,1-0.2,1.4c0.1,0.6,0.7,1.5,1.7,2.6l0.1,0.9c-0.2,0.2-0.2,0.4-0.2,0.6
			l0.1,0.2l-0.1,0.3c-0.4,1.1-1.1,1.8-2,2.1l-2.5,0.2l0.1-1h-0.4v-0.3l-0.3-3.2c-0.4-1.4-0.9-2-1.5-1.8l-0.6,0.2v0.5
			c0.1,0.4,0.4,0.9,0.9,1.4c0.2,0.8,0.2,1.7,0,2.8c-0.2,1.6-0.9,2.6-2.1,2.9c-2.4,0.7-5-0.8-7.7-4.5l-1.3-2.1l-3.4-5.5l-5.1-6.5
			c-1.2-1.6-2.1-3.2-2.8-4.6l-0.5-2.1c-1.2-4.5,1-7.8,6.7-9.7h0.1l0.1,0.4l0,0c0.2,2.6,0.4,3.9,0.7,3.9c0.1,0,0.3-0.5,0.4-1.4
			l0.7-0.5l-0.5-1.6c0.4-4.7,0.6-14,0.6-28l0.1-2.4l0.2-17c0-8.6-0.1-13.9-0.4-16l-0.7,0.2c-0.4,2.2-0.6,7.4-0.8,15.6l-0.2,17.3
			l-0.1,2.4c-0.2,11.9-0.2,20.4-0.1,25.5l-0.8,0.3l0.1,0.2l0.2,0.3l-1.5,0.1c-3.5,1-5.6,2.9-6.2,5.9c-0.4,1.5-0.3,3,0.2,4.7l0.8,2.3
			l-0.3,0.1c0.7,1.6,1.6,3.2,2.7,4.9l5.7,7c1.3,1.6,2.7,3.5,4.1,5.8l2.3,3.6c2,2.6,4.3,3.4,7.1,2.7c1.3-0.4,2.2-1.1,2.7-2.3
			c0.5,0.9,1.6,1.2,3.5,0.7c1.8-0.5,2.8-1.6,3.1-3.3l1.2-0.2c1.9-0.5,3.1-1.5,3.8-2.9c0.5-0.9,0.6-1.6,0.5-2.1
			c-0.2-0.7-0.5-1.2-1-1.7c0.8-0.3,1.2-1,1.2-1.9l-0.3-1.7c-0.3-1.1-1-1.9-2.2-2.5l-5.1-2c-2.1-0.9-4.2-2.5-6.4-5.1
			c-1.1-1.1-2.3-3.2-3.5-6.2c-0.8-1.9-1.6-3.4-2.6-4.5v-0.4c0.4-3.6,0.7-13.4,0.8-29.2v-3.2l0.2-17c0-8.2-0.1-13.4-0.3-15.6l1.2-0.5
			c-0.6-0.8-2-1.3-4.1-1.6L124.1,177.01"/>
		<path class="st0" d="M120.99,181.21c0.3,2.1,0.4,7.4,0.4,16l-0.2,17l-0.1,2.4c0,14-0.2,23.3-0.6,28l0.5,1.6l-0.7,0.5
			c-0.1,0.9-0.3,1.4-0.4,1.4c-0.3,0-0.5-1.3-0.7-3.9l0,0l-0.2-0.4c-5.7,1.9-7.9,5.2-6.7,9.7l0.5,2.1c0.7,1.4,1.6,3,2.8,4.6l5.1,6.5
			l3.4,5.5l1.3,2.1c2.7,3.7,5.3,5.2,7.7,4.5c1.2-0.3,1.9-1.3,2.1-2.9c0.2-1.1,0.2-2,0-2.8c-0.5-0.5-0.8-1-0.9-1.4v-0.5l0.6-0.2
			c0.6-0.2,1.1,0.4,1.5,1.8l0.3,3.2v0.3h0.4l-0.1,1l2.5-0.2c0.9-0.3,1.6-1,2-2.1l0.1-0.3l-0.1-0.2c0-0.2,0-0.4,0.2-0.6l-0.1-0.9
			c-1-1.1-1.6-2-1.7-2.6c-0.1-0.4,0-0.9,0.2-1.4c1.6,1.8,2.5,3,2.7,3.5c0.1,0.5,0.1,0.9,0.1,1.4c0.9,0,1.8-0.4,2.7-1.2
			c1.1-1.1,1.6-1.8,1.5-2.4c-0.1-0.4-1-1.1-2.5-2.1c-1.6-1-2.4-1.7-2.5-2.1c-0.1-0.3,0-0.5,0.4-0.8c1,0.9,2.3,1.8,3.9,2.5
			c0.5-1.2,0.7-2.1,0.6-2.7c-0.1-0.4-1.1-1.1-2.8-2.1l-6-3.5c-5.5-3.9-9.2-8.5-10.9-14l-0.3-0.1v-0.8c-0.1-1.8-0.2-3.2-0.4-4.4
			l0.4-0.1l0.3-24.7v-3.7l0.3-17.1c0.1-7.8,0.3-12.9,0.7-15.4l-4.2,1.2L120.99,181.21"/>
		<path d="M76.69,181.91c-0.1-0.8-0.1-1.2-0.3-1.2c-0.1,0-0.3,0.3-0.5,1l-9.6-1.6l-1.5-0.6l0.1,1.6c-0.2,1.6-0.1,2.1,0.3,1.4
			l2.6,0.4h0.5l7.1,1c-0.5,2.7-1.3,7.2-2.1,13.5l-2.4,17l-0.2,2.2l-3.5,26.9l-0.5,4.3l0.8,0.4c0.2,0,0.3-0.2,0.4-0.7l0.3-1.9
			l0.1-0.4l0,0c5.9,1.1,8.5,4,7.9,8.6l-0.3,2.2c-0.4,1.5-1.1,3.2-2.1,5l-4.2,7.1l-3.7,8.2c-2.1,3.9-4.5,5.8-7,5.4
			c-1.2-0.1-2-1-2.5-2.6c-0.3-1.1-0.4-2-0.3-2.7c0.4-0.7,0.7-1.2,0.7-1.6v-0.4l-0.6-0.2c-0.7-0.1-1.1,0.5-1.3,2l0.1,3.3l0.1,0.2
			l-0.4,0.1l0.1,0.9l-2.4,0.2c-1-0.2-1.8-0.8-2.3-1.8l-0.1-0.4v-0.1c0.1-0.3,0-0.5-0.2-0.6l-0.1-0.9c0.9-1.3,1.3-2.1,1.4-2.8
			c0.1-0.5-0.1-0.9-0.4-1.3c-1.4,1.9-2.1,3.2-2.2,3.7v1.4c-0.8,0.1-1.8-0.1-2.8-0.8c-1.2-0.9-1.8-1.6-1.8-2.1
			c0.1-0.5,0.8-1.2,2.3-2.5c1.4-1.2,2.1-2,2.2-2.4c0-0.2-0.2-0.5-0.5-0.8c-1,1.1-2.1,2.1-3.6,3c-0.7-1-1-1.9-0.9-2.5
			c0-0.5,0.8-1.3,2.5-2.4l5.4-4.4c5.4-4.8,8.4-10.3,9.2-16.5l-0.1-0.6l0.6-3.4c0.9-5.6,2.1-14.4,3.6-26.5v-0.2l2.2-16.6
			c1.1-9.4,1.6-14.8,1.5-16.5h-0.5c-0.6,1.5-1.5,6.8-2.9,16l-2.2,16.9v0.2c-1.7,12.1-2.8,21-3.3,26.5l-0.4,4.5
			c-0.7,1.2-1.4,2.8-1.9,4.8c-0.8,3.2-1.7,5.4-2.6,6.7c-1.9,2.8-3.8,4.7-5.7,5.8l-4.8,2.7c-1.1,0.7-1.7,1.6-1.9,2.7v1.7
			c0.1,1,0.6,1.6,1.4,1.8c-0.5,0.5-0.7,1.1-0.8,1.8c-0.1,0.5,0.2,1.2,0.7,2c0.9,1.3,2.3,2.1,4.2,2.3l1.2,0.1
			c0.6,1.6,1.8,2.6,3.5,2.8c2,0.3,3.1,0,3.4-1c0.7,1.1,1.6,1.7,3,1.9c2.8,0.4,5.1-0.9,6.7-3.6c1.8-4.2,3.5-7.5,5.2-10.2l4.6-7.7
			c0.9-1.8,1.6-3.5,2.1-5.2l-0.3-0.1l0.4-2.3c0.3-1.8,0.2-3.4-0.3-4.8c-1-2.8-3.4-4.5-7-5l-1.5,0.1l0.2-0.3l0.1-0.3
			c0.9-4.9,2.1-13.9,3.7-26.9l0.3-2.2c0.8-5.7,1.5-11.3,2.2-16.9c0.8-6.4,1.3-10.9,1.5-13.7l0.3,0.1c0.2-0.9,0.4-1.5,0.8-2
			L76.69,181.91"/>
		<path class="st0" d="M75.39,183.91l-7.1-1c0.1,1.7-0.4,7.1-1.5,16.5l-2.2,16.6v0.2c-1.5,12.1-2.7,20.9-3.6,26.5l-0.6,3.4l0.1,0.6
			c-0.8,6.2-3.8,11.7-9.2,16.5l-5.4,4.4c-1.7,1.1-2.5,1.9-2.5,2.4c-0.1,0.6,0.2,1.5,0.9,2.5c1.5-0.9,2.6-1.9,3.6-3
			c0.3,0.3,0.5,0.6,0.5,0.8c-0.1,0.4-0.8,1.2-2.2,2.4c-1.5,1.3-2.2,2-2.3,2.5c0,0.5,0.6,1.2,1.8,2.1c1,0.7,2,0.9,2.8,0.8v-1.4
			c0.1-0.5,0.8-1.8,2.2-3.7c0.3,0.4,0.5,0.8,0.4,1.3c-0.1,0.7-0.5,1.5-1.4,2.8l0.1,0.9c0.2,0.1,0.3,0.3,0.2,0.6v0.1l0.1,0.4
			c0.5,1,1.3,1.6,2.3,1.8l2.4-0.2l-0.1-0.9l0.4-0.1l-0.1-0.2l-0.1-3.3c0.2-1.5,0.6-2.1,1.3-2l0.6,0.2v0.4c0,0.4-0.3,0.9-0.7,1.6
			c-0.1,0.7,0,1.6,0.3,2.7c0.5,1.6,1.3,2.5,2.5,2.6c2.5,0.4,4.9-1.5,7-5.4l3.7-8.2l4.2-7.1c1-1.8,1.7-3.5,2.1-5l0.3-2.2
			c0.6-4.6-2-7.5-7.9-8.6l-0.1,0.4l-0.3,1.9c-0.1,0.5-0.2,0.7-0.4,0.7l-0.8-0.4l0.5-4.3l3.5-26.9l0.2-2.2l2.4-17
			C74.1,191.11,74.89,186.61,75.39,183.91"/>
	</g>
</g>
<g>
	<g>
		<path d="M154.6,134.31c-3.3,0.4-4.4,7-3.2,19.9c0.5,3.3,0.8,5.3,1.1,6.1l1,1.9l0.9,1.2c0.8,0.7,1.8,1.1,2.8,1.3h1.7h0.3l1.8-0.4
			l-0.3-0.3l-2-0.1l-1.6-0.6l-0.4-0.2l-0.3-0.1l-1.4-1l-1.4-2.6c-0.3-1.2-0.6-3.1-1-5.5l-0.1-9.1c0-5.9,0.6-9,1.6-9.1
			c1.6-0.2,3.8,0.9,6.5,3.5c2,1.8,3.8,3.8,5.4,5.9c3.3,4.6,5.2,8.2,5.6,10.8c0.1,1.4,0.1,2.3-0.2,2.7c-0.5,0.7-1.9,1.6-4.1,2.6
			l-1-3.9l-0.7,0.2l7.6,37.7l-0.2,0.5l0.5,1l0,0c1,1.4,3.3,3.4,6.9,6.2c2,1.6,4.9,2.5,8.6,2.7c2.6,0.1,4,0.9,4.3,2.4
			c0.1,0.7-0.1,1.3-0.5,2c-0.7,1-1.6,1.5-2.8,1.7c-0.8,0.1-1.8-0.2-3.2-0.8c-1.3-0.7-2.4-0.9-3.3-0.8c-1.2,0.2-1.6,0.7-1.3,1.8
			c0.2,1.4,1.9,2.9,5.1,4.3c3.2,1.3,4.9,2.6,5,3.8c0.1,0.2-0.1,0.8-0.5,1.5l-0.9,1.1c-2.4,0.3-5.2-0.9-8.5-3.6
			c-3.3-2.7-5.2-4-5.8-3.9c-1.1,0.1-1.3,2.3-0.6,6.5c0.7,4.3,0.1,6.5-1.6,6.7c-3.4,0.5-5.1-3.9-5.1-13.1c-0.4-2.8-1.6-4-3.7-3.7
			c-0.4,0-1.4,0.7-2.9,1.9c-1.5,1.3-3,2-4.5,2.2c-3.3,0.5-5.2-0.4-5.6-2.6c-0.1-0.6,0.1-1.4,0.6-2.1l0.2-0.3c3.8-0.6,6-1.3,6.6-2.2
			c0.9-0.7,1.6-2,2.1-4c0.8-3.1,2.6-5.6,5.5-7.3l0.1,0.4l0.7,0.2l0.1-1.1h0.1v-0.3l-0.1-0.2c0-1.1-0.1-2.2-0.4-3.6l-1.2-5.2l-2-10.1
			c-1.7-8.5-3.2-14.7-4.2-18.4l1.4-0.6l3.5-0.7l0.7-0.2c1.7-0.5,2.6-0.9,2.5-1.1l-0.2-0.5l-3.1,0.3c-2.1,0.3-3.9,0.7-5.3,1.3
			l-0.1-0.1l-0.3,0.2c-1.1,0.5-1.9,1.1-2.4,1.7c0.3,0.5,0.7,0.7,0.9,0.6l1.6-0.6l1,4.7l-0.2,0.2l0.3,0.3l6.4,31.6h-0.1
			c-1.6,0.2-3.1,1.4-4.5,3.8c-1.2,1.8-1.9,3.3-2.1,4.6c-0.3,1.1-0.5,1.8-0.8,2.2l-0.4,0.5h-0.1c-0.6,0.1-2,0.6-4,1.4l-1.4,0.6
			l-1.4,0.1c-1,1.5-1.4,2.8-1.2,4.1c0.4,3,2.7,4.3,6.9,3.8c2.1-0.3,3.8-1.1,5.1-2.3s2.2-1.8,2.5-1.9c0.9-0.1,1.6,0.8,1.9,2.6
			l0.6,6.1c0.6,5.9,2.6,8.6,6.1,8.2c2.8-0.4,4.1-2.3,3.7-5.6l-1.7-7.4c-0.2-0.2-0.1-0.3,0.4-0.4l5,4.2c3.5,2.6,6.2,3.9,8.1,3.6
			c1.3-0.2,2.3-0.9,3-2.1c0.4-0.9,0.6-1.6,0.5-2.1c-0.2-1.8-1.8-3.4-5-4.7c-3.1-1.3-4.7-2.6-4.9-3.6l0.1-0.2
			c2.4,1.3,4.6,1.9,6.5,1.6c3.3-0.4,4.7-2.1,4.3-5.1l-0.3-2.6c-0.3-0.6-1.4-0.9-3.3-0.9c-4.7-0.1-7.9-0.9-9.4-2.3
			c-3.7-3.8-6.1-6-7.2-6.8c0-1-0.1-2.2-0.4-3.5l-1.2-5.2l-2-10.1c-1.2-6-2.3-10.8-3.2-14.5h0.5c2.6-0.3,4.3-1.5,4.8-3.3
			c0.2-0.7,0.2-1.7,0-3.2c-0.5-3.8-3-8.3-7.6-13.6C160.69,136.51,157.19,133.91,154.6,134.31"/>
		<path class="st1" d="M165.99,145.11c-1.6-2.1-3.4-4.1-5.4-5.9c-2.7-2.6-4.9-3.7-6.5-3.5c-1,0.1-1.6,3.2-1.6,9.1l0.1,9.1
			c0.4,2.4,0.7,4.3,1,5.5l1.4,2.6l1.4,1l0.3,0.1l0.4,0.2l1.6,0.6l2,0.1l0.2-0.2l-1-4.7l-1.6,0.6c-0.2,0.1-0.6-0.1-0.9-0.6
			c0.5-0.6,1.3-1.2,2.4-1.7l0.3-0.2l0.1-0.1v0.2c1.4-0.6,3.2-1,5.3-1.3l3.1-0.3l0.2,0.5c0.1,0.2-0.8,0.6-2.5,1.1l1,3.9
			c2.2-1,3.6-1.9,4.1-2.6c0.3-0.4,0.3-1.3,0.2-2.7C171.19,153.31,169.29,149.71,165.99,145.11"/>
		<polyline class="st2" points="160.19,157.31 160.19,157.11 160.1,157.21 160.19,157.31 		"/>
		<path class="st0" d="M153.4,210.61l-0.2,0.3c-0.5,0.7-0.7,1.5-0.6,2.1c0.4,2.2,2.3,3.1,5.6,2.6c1.5-0.2,3-0.9,4.5-2.2
			c1.5-1.2,2.5-1.9,2.9-1.9c2.1-0.3,3.3,0.9,3.7,3.7c0,9.2,1.7,13.6,5.1,13.1c1.7-0.2,2.3-2.4,1.6-6.7c-0.7-4.2-0.5-6.4,0.6-6.5
			c0.6-0.1,2.5,1.2,5.8,3.9s6.1,3.9,8.5,3.6l0.9-1.1c0.4-0.7,0.6-1.3,0.5-1.5c-0.1-1.2-1.8-2.5-5-3.8c-3.2-1.4-4.9-2.9-5.1-4.3
			c-0.3-1.1,0.1-1.6,1.3-1.8c0.9-0.1,2,0.1,3.3,0.8c1.4,0.6,2.4,0.9,3.2,0.8c1.2-0.2,2.1-0.7,2.8-1.7c0.4-0.7,0.6-1.3,0.5-2
			c-0.3-1.5-1.7-2.3-4.3-2.4c-3.7-0.2-6.6-1.1-8.6-2.7c-3.6-2.8-5.9-4.8-6.9-6.2l0,0l-0.5-1l0.2-0.5l-7.6-37.7l-3.5,0.7l-1.4,0.6
			c1,3.7,2.5,9.9,4.2,18.4l2,10.1l1.2,5.2c0.3,1.4,0.4,2.5,0.4,3.6l0.1,0.2v0.3h-0.1l-0.1,1.1l-0.7-0.2l-0.1-0.4
			c-2.9,1.7-4.7,4.2-5.5,7.3c-0.5,2-1.2,3.3-2.1,4C159.4,209.31,157.19,210.01,153.4,210.61"/>
		<path class="st3" d="M158.9,164.71h-1.7l0.7,4.7c-0.5,2.6-0.5,4.9,0.1,7c-0.1,0.5-0.7,0.8-1.7,0.7c-1.9-0.3-4.1,0.1-6.4,0.9
			l-4.5-0.2c-2.4-0.7-4-0.8-4.8-0.4l-3.4-0.7l-3.5-0.3c-3.8,0-7,0-9.6,0.1l-4.3,0.4l-8.2,1.5l-7.8,1.1l-7.5,1.4l-2,0.3
			c-1.3,0.2-4,0.2-8.1-0.1c-1.2-0.1-2.8,0.2-4.9,0.9c-2.2,0.8-3.9,0.9-5.1,0.5l-5.5-0.2c-1.7,0.9-2.9,1.3-3.9,1.2
			c-1.7-0.3-2.5-2.5-2.1-6.8c0.2-2.9,0-4.8-0.5-5.8l8.2-0.5c1.1-0.5,2.5-0.6,4.2-0.4l0.7,0.1l1.5-0.1c10.8,0.4,17.4,0.5,19.9,0.2
			l20.7-1.9l4.7-0.6l16.4-2.2l13.9-2.1l-0.9-1.2l-29.4,4l-5.7,0.9l-20,1.9l-22.6-0.2l-12.9,0.7l0,0l-14,1c-4.8,0.4-7.4,1-7.5,1.7
			h-0.1h-0.6l-0.2,0.6c-0.1,0.6,0,1.8,0.3,3.6l1.3-0.1c0.4-1.5,0.5-2.6,0.2-3.2c1.8,0.1,8.3-0.7,19.5-2.7v0.1l0.5,0.3
			c0,0.6,0.1,1.5,0.6,2.7c0.4,1.4,0.5,2.8,0.4,4.1c-0.3,2.3-0.1,4.1,0.6,5.4l-6.3,0.2l-6.1,0.3l-0.7-0.7c-0.4-0.4-1.8-0.8-4.4-1.1
			l-3.4-0.1h-1.8l-0.3-0.3l0.2-1.7c0.5-0.9,0.8-1.9,1-3.3l-1.3,0.1l-1,3.8l-0.2,1.3c0.1,0.9,0.7,1.4,1.9,1.5h4.7
			c2.2,0.3,3.5,0.7,3.9,1.1c0.4,0.4,1.2,0.7,2.6,0.9l6.1-0.5l5.8,0.1l0.8-0.1l1.4,0.3c0.5,0.1,1.8-0.3,3.9-1.2
			c1.4-0.4,5.1-0.5,11.2-0.3l10.3-0.6c2.8,0,4.5-0.3,5-0.8c10.8-1.7,19.8-2.9,26.9-3.6l11.6-0.7l4.3,0.2l-0.1,0.5
			c-0.1,0.4,0.1,0.7,0.5,0.9c1.7-0.5,4.4-0.2,8,0.8l2.7-0.9l6.7-0.7c0.8-0.2,1.3-0.8,1.4-1.7v-7.4L158.9,164.71"/>
		<path class="st4" d="M62.29,170.81l-0.5-0.3v-0.1c-11.2,2-17.7,2.8-19.5,2.7c0.3,0.6,0.2,1.7-0.2,3.2c-0.2,1.4-0.5,2.4-1,3.3
			l-0.2,1.7l0.3,0.3h1.8l3.4,0.1c2.6,0.3,4,0.7,4.4,1.1l0.7,0.7l6.1-0.3l-1.7-1.3c-2.1-0.3-3-1.4-2.8-3.4c0.3-2.2,1.5-3.1,3.6-2.8
			c1.9,0.2,2.8,1.4,2.6,3.5c-0.1,0.7-0.4,1.3-1,1.9c-0.7,0.7-1.5,0.9-2.4,0.8l1.7,1.3l6.3-0.2c-0.7-1.3-0.9-3.1-0.6-5.4
			c0.1-1.3,0-2.7-0.4-4.1C62.39,172.31,62.29,171.41,62.29,170.81"/>
		<path class="st5" d="M56.69,175.71c-2.1-0.3-3.3,0.6-3.6,2.8c-0.2,2,0.7,3.1,2.8,3.4c0.9,0.1,1.7-0.1,2.4-0.8
			c0.6-0.6,0.9-1.2,1-1.9C59.49,177.11,58.59,175.91,56.69,175.71"/>
		<path class="st0" d="M157.19,164.71c-1-0.2-2-0.6-2.8-1.3l-13.9,2.1l-16.4,2.2l-4.7,0.6l-20.7,1.9c-2.5,0.3-9.1,0.2-19.9-0.2
			l-1.5,0.1c3,0.7,4.5,2.5,4.6,5.5c-0.4,3.4-3.7,4.7-10,3.9c-1.4-0.2-2.3-0.9-2.7-2c-0.1-0.5-0.2-1.1-0.1-1.8
			c0.3-2.7,1.5-4.5,3.3-5.3l-8.2,0.5c0.5,1,0.7,2.9,0.5,5.8c-0.4,4.3,0.4,6.5,2.1,6.8c1,0.1,2.2-0.3,3.9-1.2l5.5,0.2
			c1.2,0.4,2.9,0.3,5.1-0.5c2.1-0.7,3.7-1,4.9-0.9c4.1,0.3,6.8,0.3,8.1,0.1l2-0.3l7.5-1.4l7.8-1.1l8.2-1.5l4.3-0.4
			c2.6-0.1,5.8-0.1,9.6-0.1l3.5,0.3l3.4,0.7c0.8-0.4,2.4-0.3,4.8,0.4l4.5,0.2c2.3-0.8,4.5-1.2,6.4-0.9c1,0.1,1.6-0.2,1.7-0.7
			c-0.6-2.1-0.6-4.4-0.1-7L157.19,164.71"/>
		<path class="st6" d="M72.39,170.41c-1.8,0.8-3,2.6-3.3,5.3c-0.1,0.7,0,1.3,0.1,1.8c0.4,1.1,1.3,1.8,2.7,2c6.3,0.8,9.6-0.5,10-3.9
			c-0.1-3-1.6-4.8-4.6-5.5l-0.7-0.1C74.89,169.81,73.49,169.91,72.39,170.41"/>
	</g>
</g>
<g>
	<g>
		<path d="M161.69,143.91c-0.3,0.1-0.5,0.2-0.6,0.4l-0.3,2.2l-0.2,2.2l-0.5,7.6l-0.3,8h-0.6c-5.4-0.8-9.9-0.1-13.5,2l-0.7,0.5
			l-0.8,0.6c-1.3-2.2-2.3-3.6-3.1-4.4c-3.4-3.2-8.5-5.3-15.2-6.2l-1.8-0.1c-2.5-0.1-5.5,0.2-9.1,0.8c-3.4,0.6-5.4,1.1-6,1.4l0.2,1
			l0.2,0.1l7.1-1.3l7.6-0.6l1.7,0.1c6.2,0.8,10.9,2.8,14,6l2.6,3.1l0.8,0.9l-1.2,1.2c-2.2,2.6-3.5,5.6-3.9,9.1v0.7l-12.5,0.9
			l-1.5,0.3l-5.3,0.7l-6.6,0.6l-3-21.7v-0.1l-0.2-1l-0.3-2.3l7.2-0.5c2.8-0.2,5.6-0.3,8.2-0.1l5.3,0.4c4.8,0.7,8.8,2.6,11.9,5.9
			c1.5,1.6,2.7,3,3.7,4.5l0.7-0.5c-0.5-1.6-1.5-3.1-2.9-4.8c-3.2-3.5-7.6-5.7-13.2-6.4l-3.9-0.4l-1.6-0.1l-15.6,0.6l-0.3-2.5h-1.3
			l1.2,9.4c1.3,9.1,2.3,15.7,3.1,19.6l-2.4,0.2l0.4-0.3c-1.2-4.9-2.4-11.5-3.6-19.8l-1.4-8.9l-1.1,0.1c2.6,18.4,4.4,28,5.3,29
			l-11.2,0.8l-1-2c-1-1.7-2.2-3.3-3.8-4.8c-4.4-4.4-10-7-16.6-7.9l-8.3-0.3l-4.3,0.2l-0.8-7.1l-0.7-4.7h-1.6l1.2,8.1l0.5,3.4l0.1,1
			l0.5,2.4l-11.3,1.5l-10.6,1.7v-1.6l21.4-4l-0.1-1l-12.5,2.1l-8.9,1.8c-0.1-6.6-0.4-11-0.8-13.3c-0.5,0.3-0.8,0.6-0.8,1.1v0.1v2.1
			v2.1l0.1,4.3l0.1,7l0.2,0.1h0.1l0,0c0.2,0.3,0.4,0.4,0.9,0.4l12.4-1.7l8.8-1l4.8-0.7l0.2,0.1c12.9,1.7,20.9,4.1,24.1,7.4
			c0.8,0.7,1.4,1.7,1.9,3c0.3,0.9,0.8,1.4,1.5,1.5l0.4-0.2v-0.9c-0.8-1.9-1.9-3.5-3.4-4.8c-3.9-3.6-9.9-5.9-18-6.9l-3.5-0.3
			l-3.5,0.1l-0.7-0.1h-1.6l-0.2-2l5.4,0.2l6.7,0.3c6.9,0.9,12.5,3.6,16.6,8.2c1.5,1.7,2.8,3.5,3.8,5.2l-1.6,0.1v0.9h2.2l0.1,0.3
			c0.4,0.1,0.6,0,0.6-0.1v-0.2l14.2-1l0,0h0.2l2.4-0.2l0,0l10.1-0.9l16.6-1.7l0.2,0.3l0.3-1.3c0.6-0.8,1.2-1.9,1.9-3.3
			c0.9-1.8,1.9-3.2,3.1-4c2.6-2.1,5.7-3.6,9.1-4.4l5.4,0.2l0.1-0.8h-0.9v0.1l-0.1-0.8c-5.2-0.4-9.9,1.1-14,4.5
			c-3.5,2.8-5.4,5.6-5.8,8.5l0,0l0,0h-0.8c0.4-0.8,0.9-2.1,1.4-3.9c0.6-2.1,1.3-3.6,2.2-4.7c2.6-3.3,8.3-5,17-4.9v0.5l0.1,0.8
			l-0.7-0.1h0.7h0.9h0.2v-0.4h-0.2l0.6-4.6l0.5-9l0.1-4.2C161.99,146.81,161.9,145.31,161.69,143.91"/>
		<path class="st1" d="M144.99,166.81c-1-1.5-2.2-2.9-3.7-4.5c-3.1-3.3-7.1-5.2-11.9-5.9l-5.3-0.4c-2.6-0.2-5.4-0.1-8.2,0.1
			l-7.2,0.5l0.3,2.3c0.6-0.3,2.6-0.8,6-1.4c3.6-0.6,6.6-0.9,9.1-0.8l1.8,0.1c6.7,0.9,11.8,3,15.2,6.2c0.8,0.8,1.8,2.2,3.1,4.4
			L144.99,166.81"/>
		<path class="st1" d="M143.19,168.21l-0.8-0.9l-2.6-3.1c-3.1-3.2-7.8-5.2-14-6l-1.7-0.1l-7.6,0.6l-7.1,1.3h-0.2l3,21.7l6.6-0.6
			l5.3-0.7l1.5-0.3l12.5-0.9v-0.7c0.4-3.5,1.7-6.5,3.9-9.1L143.19,168.21"/>
		<path class="st1" d="M139.99,179.11L139.99,179.11c0.4-2.9,2.3-5.7,5.8-8.5c4.1-3.4,8.8-4.9,14-4.5v-0.5c-8.7-0.1-14.4,1.6-17,4.9
			c-0.9,1.1-1.6,2.6-2.2,4.7c-0.5,1.8-1,3.1-1.4,3.9L139.99,179.11"/>
		<path class="st1" d="M94.29,183.01l1.6-0.1c-1-1.7-2.3-3.5-3.8-5.2c-4.1-4.6-9.7-7.3-16.6-8.2l-6.7-0.3l-5.4-0.2l0.2,2h1.6
			l0.7,0.1l3.5-0.1l3.5,0.3c8.1,1,14.1,3.3,18,6.9C92.39,179.51,93.49,181.11,94.29,183.01"/>
		<polyline class="st7" points="62.39,171.11 61.89,168.71 40.49,172.71 40.49,174.31 51.09,172.61 62.39,171.11 		"/>
		<polyline points="160.79,146.51 161.1,144.31 160.9,144.71 160.79,146.51 		"/>
		<path class="st1" d="M161.1,144.31l0.4-3.3l-101.2,9.2c0.3,0.1,0.7,2,1.4,6l41.4-3.2l1.1-0.1l2.7-0.2h1.3l52.4-4l0.2-2.2l0.1-1.8
			L161.1,144.31"/>
		<path class="st1" d="M106.89,152.71l-2.7,0.2l1.4,8.9c1.2,8.3,2.4,14.9,3.6,19.8l-0.4,0.3l2.4-0.2c-0.8-3.9-1.8-10.5-3.1-19.6
			L106.89,152.71"/>
		<path class="st1" d="M142.79,161.51c1.4,1.7,2.4,3.2,2.9,4.8c3.6-2.1,8.1-2.8,13.5-2h0.6l0.3-8l0.5-7.6l-52.4,4l0.3,2.5l15.6-0.6
			l1.6,0.1l3.9,0.4C135.19,155.81,139.6,158.01,142.79,161.51"/>
		<path class="st1" d="M96.19,180.81l1,2l11.2-0.8c-0.9-1-2.7-10.6-5.3-29l-41.4,3.2l0.7,4.7l0.8,7.1l4.3-0.2l8.3,0.3
			c6.6,0.9,12.2,3.5,16.6,7.9C93.99,177.51,95.19,179.11,96.19,180.81"/>
		<polyline class="st7" points="59.39,151.41 59.59,150.31 59.59,150.21 38.59,150.01 38.69,156.01 60.09,156.21 59.39,151.41 		"/>
		<path d="M59.59,150.31l-0.2,1.1l0.7,4.8h1.6c-0.7-4-1.1-5.9-1.4-6L59.59,150.31"/>
		<path class="st7" d="M61.29,164.31l-1.2-8.1l-21.4-0.2l0.1,2.3h0.8c0.4,2.3,0.7,6.7,0.8,13.3l8.9-1.8l12.5-2.1L61.29,164.31"/>
		<path class="st8" d="M38.79,158.31v1.1c0-0.5,0.3-0.8,0.8-1.1H38.79"/>
		<polyline class="st9" points="160.6,148.71 108.19,152.71 106.89,152.71 104.19,152.91 103.1,153.01 61.69,156.21 60.09,156.21 
			38.69,156.01 		"/>
		<polyline class="st9" points="38.69,156.01 38.59,150.01 59.59,150.21 60.29,150.21 		"/>
		<line class="st9" x1="60.29" y1="150.21" x2="59.59" y2="150.31"/>
		<polyline class="st9" points="38.69,156.01 38.79,158.31 38.79,159.41 38.79,159.51 		"/>
		<polyline class="st9" points="38.89,168.01 38.79,163.71 38.79,161.61 		"/>
		<polyline class="st9" points="160.79,146.51 161.1,144.31 161.49,141.01 60.29,150.21 		"/>
	</g>
</g>
<g>
	<g>
		<path class="st10" d="M36.79,14.81c-1.8,0-3.8,0.7-5.9,2.1c-2.7,1.7-4.4,4.1-5.1,6.9l-0.6,3.5c-0.2,1.3-0.6,2.4-1,3.3
			c-0.4,0.8-1.6,1.9-3.5,3.1c-2.2,1.4-3.4,2.3-3.8,2.8c-0.7,0.9-1.1,2-1.2,3.5l-0.5,3.6c-1.2,3.6-3,5.7-5.4,6.5
			c-1.1,0.3-1.9,0.8-2.3,1.3c-0.7,1-1.2,2.6-1.5,4.9c-0.3,1.9,0.3,3.8,1.8,5.7c2.3,2.9,3.8,5.2,4.5,6.7c0.5,1.2,0.8,3.1,1,5.8
			l1.1-0.2c-0.1-3-0.3-4.9-0.6-5.7c-0.5-1.4-2-3.5-4.2-6.3c-1.9-2.1-2.6-4-2.4-5.8c0.4-2.7,1.9-4.6,4.5-5.8c1.8-0.7,3-1.7,3.7-3
			c0.2-0.5,0.6-1.6,1-3.3c0.1-3.3,0.5-5.5,1.4-6.7c0.6-1,1.9-2,3.8-3.2c1.9-1.1,3.1-2,3.5-2.7c0.4-0.8,1-3.1,1.7-6.9
			c0.5-2.8,1.9-5,4.1-6.5l1.9-1l0.7-0.3c2.3-0.8,4.7-0.7,7.2,0.2c3.8,1.1,7.3,0.8,10.6-0.9c1.1-1.1,2.4-2.1,3.7-2.9
			c2.4-1.5,5.3-2,8.8-1.5c2.3,0.3,4,0.8,4.9,1.7c1,0.8,2.6,1.4,4.9,1.7c2.8,0.4,5.5-0.1,7.9-1.5c2.5-1.4,5.6-1.9,9.3-1.4l9.6,1.9
			c3.3,0.4,7.1-0.3,11.3-2.2c4.3-1.9,7.8-2.7,10.5-2.4l7.5,1.6c4.1,0.6,7.5,0.3,10.2-0.8c2.6-1.2,5.8-1.6,9.7-1c0.7,0,2,0.7,3.9,2
			c2,1.2,3.5,1.9,4.4,2c1.8,0.3,4-0.3,6.7-1.8c2.7-1.4,4.3-2.1,4.8-2l1.3,0.2c3.1,2.7,4.5,7.5,4,14.5c-0.2,3.8,0.1,6.7,1.1,8.8
			c1,1.8,1.3,4,1,6.4c-0.3,2.1-0.9,4.3-1.8,6.5s-1.5,4.4-1.7,6.6c-0.3,2.2-0.1,5.3,0.7,9.3c0.9,4,1.1,7.1,0.9,9.1
			c-0.2,1.5-0.7,3.3-1.6,5.4c-0.9,2-1.5,4.1-1.7,6.1c-0.3,2.2-0.2,4.9,0.4,8c0.6,3.2,0.8,6.1,0.4,8.8c-0.1,0.9-0.5,1.9-1,3l-1.2,2
			c-1.2,1.9-2,3.8-2.2,5.6c-0.3,1.6-0.3,3.4,0,5.1c0.1,1.8,0.1,3.6-0.2,5.7c-0.2,1.8-0.7,3.1-1.4,4.1c-0.7,0.9-1.2,2.2-1.4,3.9
			l0.3,13.2c-0.2,1-0.8,1.8-2,2.3c-1.9,0.6-5.4,0.9-10.6,0.8l-4.4,1.5c-2.9,0.9-6,1.1-9.4,0.7l-8.5-1.6c-2.4-0.4-4.2-0.4-5.3,0.1
			l-0.8,0.3l-0.2,0.1l-2.7,0.9l-2.5,1.5c-1.8,0.8-4.1,1-6.9,0.7c-2.6-0.4-4.4-0.8-5.6-1.3c-1.1-0.6-2.9-1-5.5-1.4
			c-3.5-0.4-7.1,0.4-10.7,2.6c-3.6,2.2-6.3,3.2-8,2.9c-1.8-0.2-3.2-0.7-4.3-1.5c-1.3-0.8-2.7-1.3-4.3-1.5c-2-0.3-4.1-0.1-6.2,0.6
			l-2.7,1.2l-3.4,1.5l-2.5,0.3v-0.1c0.1-0.9,0.1-2.2-0.2-3.8l-0.2-4.6l0.4-4.2c0-1.7-0.3-3.1-0.9-4.2c-1.4-2.3-2-5.2-1.7-8.8
			c0.2-4.3,0.2-7.1,0-8.2c-0.4-1.5-1.7-4.5-3.7-8.9c-1.8-3.8-2.8-6.7-2.8-8.6c0.1-3.8,0.1-6.6,0.1-8.5c-0.1-3.3-0.9-6.2-2.3-8.6
			c-1.4-2.3-2.2-5.2-2.3-8.6l-0.1-8.3c-0.1-1.5-0.9-4.4-2.4-8.8c-1.2-3.8-1.6-6.6-1.1-8.5c1-4.3-0.6-10.1-4.9-17.2
			c-2.3-3.8-3.4-7.8-3.5-12l0.3-3.8l-0.7,0.3l-0.2,1.4c-0.5,3.3-0.3,6.3,0.6,8.8c0.4,1.3,1.5,3.4,3.1,6.2c3.2,5.4,4.5,11.6,3.9,18.7
			c-0.1,1.8,0.4,4.7,1.8,8.5c1.4,3.9,2.1,6.7,2.1,8.5c-0.1,4-0.1,6.8,0,8.1c0.4,3.2,1.3,6,2.8,8.7c1.3,2.3,1.9,5,1.9,8.3l-0.2,8.4
			c0.2,1.7,1.3,4.6,3.2,8.5c2,3.9,3,6.8,3.2,8.7l0.1,8c0,3.2,0.5,6.1,1.6,8.7c0.7,1.5,0.7,4.8,0.2,10c-0.3,2.9-0.2,4.8,0.3,5.8
			l-1.5-0.2l-2.2-0.4l-7.7,0.7l-9.7,0.4c-0.5-0.6-0.9-1-1.3-1h-0.4c-1-1.1-1.7-2.7-2.1-4.8c0-2.7-0.1-4.7-0.3-5.8l-1.7-6.2
			c-0.7-2.4-0.9-4.4-0.4-6c0.4-1.5,0.1-3.6-0.9-6.1l-2-6c-0.2-1,0-3,0.3-6c0.3-2.4,0.1-4.4-0.6-5.9c-0.2-0.6-1.5-2.7-3.7-6.4
			c-1.4-2.3-2-4.2-1.7-5.7c0.4-2.5,0.3-4.5-0.5-5.9l-4.5-6.7c-1.2-1.7-1.8-3.8-1.9-6.4l-1.1,0.2c0,2.6,0.6,4.7,1.5,6.4l3.7,5.9
			c1.3,2.3,1.8,4.5,1.5,6.5c-0.2,1.5,0.2,3.4,1.5,5.6l3.7,6.4c0.9,1.7,1.2,3.7,0.9,6c-0.4,3.2-0.6,5.2-0.4,6c0,0.9,0.7,2.9,1.9,6.1
			c1,2.6,1.3,4.7,1,6.2c-0.4,1.5-0.2,3.5,0.5,5.9l1.7,6.3c0.1,0.9,0.2,3.2,0,6.9c0.3,3,1.6,4.8,3.9,5.2c0.5,0.4,1.5,0.7,2.9,0.9
			c3.2,0.4,6.1,0.1,8.8-0.7l7.8-0.9c0.4,0.4,1.4,0.7,3.1,0.9c2,0.3,4.7-0.3,8.1-1.8c3.3-1.4,6-2,8-1.7c1.8,0.2,3.2,0.7,4.1,1.5
			c0.9,0.7,2.4,1.2,4.6,1.5c2.1,0.2,4.9-0.7,8.5-2.8c3.6-2.2,7-3.1,10.1-2.7c2.3,0.3,4,0.7,5.1,1.3c1.2,0.5,3.2,0.9,6.1,1.3
			c2.8,0.4,5.9-0.2,9-1.7l0.3-0.2l2.9-1.1c2-0.6,3.8-0.8,5.5-0.5l8,1.6c2.9,0.5,5.3,0.5,7,0.1c0.8-0.2,1.5-0.5,2.1-0.9l6.6-1.4
			l7.3,0.3c3.5-0.1,5.5-1.6,5.9-4.6c-0.4-7.2-0.5-11.6-0.3-13.2c0.2-1.3,0.6-2.3,1.4-3.3c0.6-0.9,1.1-2.5,1.4-4.6
			c0.4-2.5,0.4-4.6,0.3-6.5c-0.2-1.8-0.2-3.3-0.1-4.4c0.2-1.3,0.9-3,2.2-5.1l1.4-2.7c0.5-1.1,0.7-2,0.9-2.9c0.4-3.2,0.3-6.2-0.4-9.1
			c-0.6-2.9-0.8-5.5-0.5-7.7c0.3-1.8,0.8-3.7,1.7-5.7c0.9-2.2,1.4-4,1.6-5.7c0.4-3,0.1-6.3-0.7-9.7c-0.9-3.5-1.2-6.4-0.9-8.8
			c0.2-1.6,0.8-3.5,1.7-5.7c0.8-2.2,1.4-4.6,1.8-7.3c0.3-2.6,0.1-4.8-0.6-6.6c-0.9-2.1-1.4-5-1.4-8.8c0-5.3,0-8.2-0.1-8.7
			c-0.4-3.4-1.5-5.4-3.1-6.3c-0.6-0.5-1.6-0.9-3.1-1.1c-0.9-0.1-2.7,0.5-5.4,2c-2.7,1.4-4.8,2.1-6.4,1.9l-3.6-2
			c-1.9-1.2-4.2-2-6.6-2.3c-2.5-0.3-5,0.1-7.7,1.3c-2.7,1-6,1.3-10,0.8l-7.7-1.7c-3.1-0.4-6.7,0.4-10.9,2.4
			c-4.2,1.9-7.8,2.6-10.8,2.2l-9.7-1.9c-3.9-0.5-7.2-0.1-9.7,1.4c-2.6,1.3-5,1.9-7.5,1.5c-1.9-0.2-3.4-0.7-4.5-1.6
			c-1-0.9-2.8-1.5-5.3-1.8c-3.4-0.5-6.4,0-9,1.4c-1.3,0.8-2.4,1.6-3.2,2.5c-2.1,1.5-4.1,2.3-5.9,2.3c-1.1,0-2.6-0.3-4.5-1
			C39.39,15.11,37.89,14.81,36.79,14.81"/>
		<path class="st11" d="M33.19,27.61c-0.9-2.5-1.1-5.5-0.6-8.8l0.2-1.4l-1.9,1c-2.2,1.5-3.6,3.7-4.1,6.5c-0.7,3.8-1.3,6.1-1.7,6.9
			c-0.4,0.7-1.6,1.6-3.5,2.7c-1.9,1.2-3.2,2.2-3.8,3.2c-0.9,1.2-1.3,3.4-1.4,6.7c-0.4,1.7-0.8,2.8-1,3.3c-0.7,1.3-1.9,2.3-3.7,3
			c-2.6,1.2-4.1,3.1-4.5,5.8c-0.2,1.8,0.5,3.7,2.4,5.8c2.2,2.8,3.7,4.9,4.2,6.3c0.3,0.8,0.5,2.7,0.6,5.7c0.1,2.6,0.7,4.7,1.9,6.4
			l4.5,6.7c0.8,1.4,0.9,3.4,0.5,5.9c-0.3,1.5,0.3,3.4,1.7,5.7c2.2,3.7,3.5,5.8,3.7,6.4c0.7,1.5,0.9,3.5,0.6,5.9c-0.3,3-0.5,5-0.3,6
			l2,6c1,2.5,1.3,4.6,0.9,6.1c-0.5,1.6-0.3,3.6,0.4,6l1.7,6.2c0.2,1.1,0.3,3.1,0.3,5.8c0.4,2.1,1.1,3.7,2.1,4.8h0.4
			c0.4,0,0.8,0.4,1.3,1l9.7-0.4l7.7-0.7l2.2,0.4l1.5,0.2c-0.5-1-0.6-2.9-0.3-5.8c0.5-5.2,0.5-8.5-0.2-10c-1.1-2.6-1.6-5.5-1.6-8.7
			l-0.1-8c-0.2-1.9-1.2-4.8-3.2-8.7c-1.9-3.9-3-6.8-3.2-8.5l0.2-8.4c0-3.3-0.6-6-1.9-8.3c-1.5-2.7-2.4-5.5-2.8-8.7
			c-0.1-1.3-0.1-4.1,0-8.1c0-1.8-0.7-4.6-2.1-8.5c-1.4-3.8-1.9-6.7-1.8-8.5c0.6-7.1-0.7-13.3-3.9-18.7
			C34.69,31.01,33.59,28.91,33.19,27.61"/>
		<path class="st0" d="M33.49,17.11l-0.3,3.8c0.1,4.2,1.2,8.2,3.5,12c4.3,7.1,5.9,12.9,4.9,17.2c-0.5,1.9-0.1,4.7,1.1,8.5
			c1.5,4.4,2.3,7.3,2.4,8.8l0.1,8.3c0.1,3.4,0.9,6.3,2.3,8.6c1.4,2.4,2.2,5.3,2.3,8.6c0,1.9,0,4.7-0.1,8.5c0,1.9,1,4.8,2.8,8.6
			c2,4.4,3.3,7.4,3.7,8.9c0.2,1.1,0.2,3.9,0,8.2c-0.3,3.6,0.3,6.5,1.7,8.8c0.6,1.1,0.9,2.5,0.9,4.2l-0.4,4.2l0.2,4.6
			c0.3,1.6,0.3,2.9,0.2,3.8v0.1l2.5-0.3l3.4-1.5l2.7-1.2c2.1-0.7,4.2-0.9,6.2-0.6c1.6,0.2,3,0.7,4.3,1.5c1.1,0.8,2.5,1.3,4.3,1.5
			c1.7,0.3,4.4-0.7,8-2.9s7.2-3,10.7-2.6c2.6,0.4,4.4,0.8,5.5,1.4c1.2,0.5,3,0.9,5.6,1.3c2.8,0.3,5.1,0.1,6.9-0.7l2.5-1.5l2.7-0.9
			l0.2-0.1l0.8-0.3c1.1-0.5,2.9-0.5,5.3-0.1l8.5,1.6c3.4,0.4,6.5,0.2,9.4-0.7l4.4-1.5c5.2,0.1,8.7-0.2,10.6-0.8
			c1.2-0.5,1.8-1.3,2-2.3l-0.3-13.2c0.2-1.7,0.7-3,1.4-3.9c0.7-1,1.2-2.3,1.4-4.1c0.3-2.1,0.3-3.9,0.2-5.7c-0.3-1.7-0.3-3.5,0-5.1
			c0.2-1.8,1-3.7,2.2-5.6l1.2-2c0.5-1.1,0.9-2.1,1-3c0.4-2.7,0.2-5.6-0.4-8.8c-0.6-3.1-0.7-5.8-0.4-8c0.2-2,0.8-4.1,1.7-6.1
			c0.9-2.1,1.4-3.9,1.6-5.4c0.2-2,0-5.1-0.9-9.1c-0.8-4-1-7.1-0.7-9.3c0.2-2.2,0.8-4.4,1.7-6.6s1.5-4.4,1.8-6.5c0.3-2.4,0-4.6-1-6.4
			c-1-2.1-1.3-5-1.1-8.8c0.5-7-0.9-11.8-4-14.5l-1.3-0.2c-0.5-0.1-2.1,0.6-4.8,2c-2.7,1.5-4.9,2.1-6.7,1.8c-0.9-0.1-2.4-0.8-4.4-2
			c-1.9-1.3-3.2-2-3.9-2c-3.9-0.6-7.1-0.2-9.7,1c-2.7,1.1-6.1,1.4-10.2,0.8l-7.5-1.6c-2.7-0.3-6.2,0.5-10.5,2.4
			c-4.2,1.9-8,2.6-11.3,2.2l-9.6-1.9c-3.7-0.5-6.8,0-9.3,1.4c-2.4,1.4-5.1,1.9-7.9,1.5c-2.3-0.3-3.9-0.9-4.9-1.7
			c-0.9-0.9-2.6-1.4-4.9-1.7c-3.5-0.5-6.4,0-8.8,1.5c-1.3,0.8-2.6,1.8-3.7,2.9c-3.3,1.7-6.8,2-10.6,0.9
			C38.19,16.41,35.79,16.31,33.49,17.11"/>
	</g>
</g>
<g>
	<g>
		<path class="st12" d="M34.59,47.91c-0.8-2.1-2.4-3.3-4.7-3.6c-2.8-0.3-5.1,1.4-6.9,5.1c-1.2,2.4-2,4.5-2.2,6.5l-0.2,3.3
			c0.4,2,1.7,3.2,3.9,3.6c3.4,0.4,6.2-1.2,8.4-4.9c1.3-2.3,2.1-4.4,2.3-6.3C35.39,50.41,35.19,49.21,34.59,47.91"/>
		<path class="st12" d="M65.69,27.91c-1.3-3.4-4-5.4-7.8-5.9c-3.5-0.4-6.3,0.5-8.5,3c-1.6,1.8-2.5,3.6-2.8,5.6v1.7
			c0,1.2,0.3,2.4,0.8,3.7c1.3,3.4,3.9,5.3,7.9,5.8c2.3,0.3,4.3,0,6-0.9c0.9-0.5,1.6-1.2,2.4-2c1.6-1.7,2.5-3.6,2.7-5.7
			C66.69,31.61,66.39,29.81,65.69,27.91"/>
		<path class="st13" d="M55.29,41.81c-4-0.5-6.6-2.4-7.9-5.8c-0.5-1.3-0.8-2.5-0.8-3.7c-0.2,1.6,0.1,3,0.7,4.5
			c1.2,3,3.9,4.7,7.9,5.3c2.6,0.3,4.6-0.1,6.1-1.2C59.59,41.81,57.59,42.11,55.29,41.81"/>
		<path class="st13" d="M58.29,50.61c-1.9-0.3-3.5,0.6-4.8,2.6c-0.9,1.3-1.4,2.5-1.6,3.6v1.7c0.3,1,1.3,1.7,2.9,1.9
			c2.4,0.3,4.1-0.3,5.5-1.8c0.9-0.9,1.5-2,1.6-3C62.19,52.61,60.99,50.91,58.29,50.61"/>
		<path class="st13" d="M159.1,27.81l-0.1,4c0.4,2.6,1.6,4,3.6,4.3c2.4,0.3,3.8-1.2,4.3-4.6c0.8-4.7-0.6-7.3-4.3-7.7
			c-1.5-0.3-2.6,0.2-3.1,1.4L159.1,27.81"/>
		<path class="st12" d="M167.49,84.91c0.3-3.4-1.1-5.2-4.3-5.7c-1.7-0.2-3.1,0.3-4.2,1.6c-0.8,0.8-1.3,1.7-1.4,2.7
			c-0.1,1.1-0.1,2,0.2,2.7c0.5,1.7,1.9,2.7,4.1,3c1.7,0.2,3.1-0.3,4.2-1.5C166.9,86.81,167.4,85.91,167.49,84.91"/>
		<path class="st13" d="M79.99,132.41c0.3-1.9-0.1-4.1-1-6.6c-1.6-4-4.3-6.3-8.4-6.8c-3.9-0.6-6.2,2-7,7.6c-0.3,2.6-0.2,4.9,0.3,7
			c1.2,4.3,4,6.7,8.5,7.3C77.1,141.51,79.6,138.71,79.99,132.41"/>
		<path class="st13" d="M151.49,108.01l0.2,2.3c0.5,1.5,1.6,2.4,3.5,2.7c3.3,0.4,5.2-1.2,5.6-4.9c0.4-2.9-0.7-4.6-3.2-4.9
			c-2-0.3-3.5,0.4-4.7,1.9C152.1,106.01,151.69,107.01,151.49,108.01"/>
		<path class="st13" d="M157.99,125.81c0.3-1.1,0.2-2.3-0.1-3.5c-0.6-2.4-2.3-3.7-4.9-4.1c-3.4-0.4-5.7,0.5-7,2.9
			c-0.4,0.8-0.8,2.2-1,4.3l-0.3,4.8c0.3,3.3,1.8,5.1,4.5,5.4C153.99,136.31,156.99,133.01,157.99,125.81"/>
		<path class="st12" d="M45.99,97.61c0.9-4.6-0.4-7.1-4-7.6c-2.9-0.4-5.4,0.9-7.3,3.8c-1.2,1.9-2,3.7-2.2,5.4
			c-0.2,1.1,0.1,2.2,0.7,3.5c0.9,1.8,2.4,2.8,4.6,3.1c2.7,0.4,4.9-0.7,6.5-3.2C45.19,101.11,45.79,99.41,45.99,97.61"/>
		<path class="st12" d="M31.59,74.31c-1.2-0.2-2.4,0.6-3.7,2.3c-1,1.3-1.6,2.5-1.7,3.4c-0.1,0.5,0,0.9,0.2,1.4
			c0.3,0.9,1.1,1.4,2.3,1.6c1.6,0.2,2.9-0.4,3.9-1.8c0.6-0.9,1-1.8,1.1-2.9C34.39,75.91,33.59,74.51,31.59,74.31"/>
		<path class="st12" d="M35.79,144.01c-0.2,1-0.1,1.9,0.2,2.7c0.5,1.6,1.9,2.6,4.1,2.9c1.7,0.2,3.2-0.3,4.2-1.4
			c0.8-0.9,1.2-1.9,1.4-2.9c0.2-3.4-1.2-5.2-4.3-5.6c-1.7-0.3-3.1,0.2-4.2,1.5C36.29,142.11,35.89,143.01,35.79,144.01"/>
		<path class="st13" d="M62.79,112.91c2.2,0.3,3.5-1,3.9-4c0.9-3.1-0.4-4.9-3.8-5.3c-2.5-0.4-3.9,0.8-4.2,3.4
			c-0.2,0.9-0.1,1.9,0.2,2.9C59.49,111.61,60.79,112.61,62.79,112.91"/>
		<path class="st12" d="M41.59,115.91c-0.6,1-1,2.1-1.1,3.1c-0.2,1-0.2,1.7-0.1,2c0.2,1.2,1.1,1.9,2.6,2.1c2.6,0.4,4.2-1.5,4.7-5.5
			c0.5-2.4-0.3-3.7-2.3-4C43.79,113.41,42.49,114.11,41.59,115.91"/>
	</g>
</g>
<g>
	<g>
		<path d="M34.79,139.21c-4.5,5.3-7,9.9-7.5,13.7c-0.2,1.4-0.2,2.5,0,3.1c0.5,1.9,2.1,3,4.8,3.4h0.4c-0.9,3.6-1.9,8.4-3.1,14.4
			l-2.1,10.1c-0.2,1.2-0.6,2.9-1.1,5.2c-0.3,1.3-0.5,2.5-0.4,3.6c-1.1,0.7-3.5,3-7.3,6.7c-1.5,1.5-4.6,2.2-9.3,2.3
			c-1.9,0-3,0.4-3.3,0.9l-0.4,2.6c-0.4,3,1.1,4.7,4.4,5.2c1.8,0.2,4-0.3,6.5-1.7v0.2c-0.1,1.1-1.8,2.3-4.9,3.6s-4.8,2.9-5,4.7
			c-0.1,0.5,0.1,1.2,0.6,2.1c0.6,1.3,1.6,2,3,2.2c1.8,0.2,4.5-1,8.1-3.7l5-4.1c0.4,0,0.5,0.2,0.3,0.4l-1.7,7.3
			c-0.3,3.4,0.9,5.3,3.8,5.6c3.4,0.5,5.5-2.2,6-8.1l0.6-6.1c0.4-1.9,1-2.8,1.9-2.6c0.4,0,1.2,0.6,2.6,1.9c1.3,1.2,3,1.9,5.1,2.2
			c4.1,0.6,6.4-0.7,6.9-3.8c0.1-1.2-0.3-2.6-1.3-4l-1.4-0.1l-1.3-0.6c-2.1-0.9-3.4-1.4-4-1.5l-0.1,0.1l-0.5-0.6
			c-0.2-0.3-0.5-1.1-0.7-2.2c-0.3-1.2-1-2.8-2.1-4.6c-1.5-2.3-3-3.6-4.5-3.8h-0.1l6.4-31.6l0.3-0.3l-0.2-0.1l0.9-4.8l1.6,0.7
			c0.3,0,0.6-0.2,1-0.6c-0.5-0.7-1.3-1.3-2.4-1.7l-0.3-0.3l-0.1,0.1c-1.4-0.5-3.2-0.9-5.4-1.2l-3.1-0.4l-0.2,0.5
			c0,0.3,0.8,0.7,2.6,1.1l0.7,0.2l3.4,0.8l1.5,0.5c-1.1,3.8-2.5,9.9-4.2,18.5l-2.1,10.1l-1.1,5.2c-0.3,1.3-0.5,2.5-0.4,3.5l-0.1,0.2
			v0.4h0.1l0.1,1l0.6-0.2l0.1-0.3c2.9,1.7,4.8,4.1,5.6,7.3c0.5,1.9,1.2,3.2,2,3.9c0.7,1,2.9,1.7,6.6,2.2l0.3,0.3
			c0.4,0.8,0.6,1.5,0.5,2.2c-0.3,2.1-2.2,3-5.6,2.6c-1.5-0.2-3-0.9-4.5-2.2s-2.4-1.9-2.9-2c-2-0.3-3.3,1-3.6,3.8
			c-0.1,9.2-1.8,13.5-5.1,13.1c-1.8-0.3-2.3-2.5-1.6-6.7c0.6-4.3,0.4-6.4-0.6-6.6c-0.6-0.1-2.6,1.2-5.9,4c-3.3,2.7-6.1,3.9-8.4,3.6
			l-0.9-1.1c-0.4-0.8-0.6-1.3-0.6-1.6c0.2-1.1,1.8-2.4,5-3.8c3.2-1.4,4.9-2.8,5.1-4.3c0.3-1-0.1-1.6-1.2-1.7c-0.9-0.2-2,0.1-3.4,0.7
			c-1.3,0.7-2.3,0.9-3.1,0.8c-1.2-0.1-2.2-0.7-2.8-1.6c-0.5-0.7-0.6-1.4-0.5-2c0.1-1.6,1.6-2.4,4.3-2.5c3.7-0.1,6.5-1,8.6-2.7
			c3.6-2.7,5.9-4.8,6.8-6.1l0.1-0.1c0.2-0.4,0.4-0.7,0.4-1c0.1-0.2,0-0.4-0.2-0.5l7.7-37.7l-0.7-0.2l-1.1,3.9c-2.2-1-3.5-1.8-4-2.5
			c-0.3-0.5-0.4-1.4-0.2-2.7c0.3-2.7,2.2-6.3,5.6-10.8c1.6-2.2,3.4-4.2,5.4-6c2.7-2.6,4.9-3.7,6.4-3.5c1,0.1,1.6,3.2,1.7,9.1
			l-0.2,9.1l-1,5.5l-1.3,2.7l-1.8,1.1c-1.7,0.8-3,1.1-3.9,0.8l-0.3,0.3l1.7,0.4c3.3,0.4,5.5-1,6.8-4.4c0.2-0.7,0.6-2.7,1-6.1
			c1.2-12.8,0.2-19.4-3.2-19.9C42.89,131.31,39.39,133.81,34.79,139.21"/>
		<path class="st1" d="M31.39,153.01l3.1,0.4c2.2,0.3,4,0.7,5.4,1.2v-0.2l0.1,0.1l0.3,0.3c1.1,0.4,1.9,1,2.4,1.7
			c-0.4,0.4-0.7,0.6-1,0.6l-1.6-0.7l-0.9,4.8l0.2,0.1c0.9,0.3,2.2,0,3.9-0.8l1.8-1.1l1.3-2.7l1-5.5l0.2-9.1c-0.1-5.9-0.7-9-1.7-9.1
			c-1.5-0.2-3.7,0.9-6.4,3.5c-2,1.8-3.8,3.8-5.4,6c-3.4,4.5-5.3,8.1-5.6,10.8c-0.2,1.3-0.1,2.2,0.2,2.7c0.5,0.7,1.8,1.5,4,2.5
			l1.1-3.9c-1.8-0.4-2.6-0.8-2.6-1.1L31.39,153.01"/>
		<polyline class="st2" points="39.89,154.61 39.99,154.51 39.89,154.41 39.89,154.61 		"/>
		<path class="st0" d="M39.39,156.11l-1.5-0.5l-3.4-0.8l-7.7,37.7c0.2,0.1,0.3,0.3,0.2,0.5c0,0.3-0.2,0.6-0.4,1l-0.1,0.1
			c-0.9,1.3-3.2,3.4-6.8,6.1c-2.1,1.7-4.9,2.6-8.6,2.7c-2.7,0.1-4.2,0.9-4.3,2.5c-0.1,0.6,0,1.3,0.5,2c0.6,0.9,1.6,1.5,2.8,1.6
			c0.8,0.1,1.8-0.1,3.1-0.8c1.4-0.6,2.5-0.9,3.4-0.7c1.1,0.1,1.5,0.7,1.2,1.7c-0.2,1.5-1.9,2.9-5.1,4.3c-3.2,1.4-4.8,2.7-5,3.8
			c0,0.3,0.2,0.8,0.6,1.6l0.9,1.1c2.3,0.3,5.1-0.9,8.4-3.6c3.3-2.8,5.3-4.1,5.9-4c1,0.2,1.2,2.3,0.6,6.6c-0.7,4.2-0.2,6.4,1.6,6.7
			c3.3,0.4,5-3.9,5.1-13.1c0.3-2.8,1.6-4.1,3.6-3.8c0.5,0.1,1.4,0.7,2.9,2s3,2,4.5,2.2c3.4,0.4,5.3-0.5,5.6-2.6
			c0.1-0.7-0.1-1.4-0.5-2.2l-0.3-0.3c-3.7-0.5-5.9-1.2-6.6-2.2c-0.8-0.7-1.5-2-2-3.9c-0.8-3.2-2.7-5.6-5.6-7.3l-0.1,0.3l-0.6,0.2
			l-0.1-1h-0.1v-0.4l0.1-0.2c-0.1-1,0.1-2.2,0.4-3.5l1.1-5.2l2.1-10.1C36.89,166.01,38.29,159.91,39.39,156.11"/>
	</g>
</g>
<g>
	<g>
		<path d="M77.19,38.31c-5.5,4.3-8.8,9.9-9.7,16.9c-0.7,5.3,0.1,10.2,2.4,14.6l1.2-0.3c-2.2-4.3-3-9-2.3-14c0.8-6.7,3.9-12,9.2-16.1
			s11.2-5.7,17.8-4.8s11.9,3.9,16,9.2c4,5.3,5.6,11.3,4.7,18c-0.8,6.6-3.9,12-9.2,16.1c-5.3,4-11.2,5.6-17.8,4.8l-4.3-0.9l-0.1,1
			l4.3,0.9c7,1,13.3-0.7,18.8-5c2.4-1.8,4.4-4,5.9-6.3l1.4,1.9l1-0.6l-1.7-2.4c1.6-2.8,2.7-6,3.1-9.5c0.8-5.6-0.2-10.8-2.9-15.6
			c1.5-2.4,3.5-4.6,6-6.5c5.2-4,11.1-5.6,17.8-4.8c6.6,0.9,11.9,4,15.9,9.3c4.1,5.2,5.6,11.2,4.8,17.9c-0.6,4.4-2.1,8.2-4.6,11.5
			c-0.7-2.7-2.9-4.3-6.7-4.8c-3.2-0.4-6.7,0.4-10.5,2.4l-5.7,3.7c-3.3,2.1-6.3,3.7-9,4.8c-2.5-1.5-4.7-3.5-6.5-6l-1,0.6
			c1.8,2.4,3.9,4.3,6.2,5.9c-2,0.6-3.7,1-5.4,1.1v0.3c0.2,0.3,0.5,0.5,1.1,0.5c3,0.4,8.1-1.6,15.1-5.9c7-4.5,12.2-6.5,15.5-6
			c2.3,0.3,4,1.3,4.9,3c0.7,1.1,1,2.3,0.8,3.5c-0.5,3.8-4.2,7-11.1,9.5c-2.9,1-6.5,1.8-10.7,2.4l-17.8,2.2c0,0.3,0.2,0.5,0.6,0.6
			c9.1,1.1,17.5,0.3,25.2-2.6c1.6,2.3,4.8,4.5,9.3,6.5l0.2,0.1l-0.3,0.1c-11.7,3.6-22.3,5.5-31.8,5.9l-0.2-0.1h-0.6v0.1l-11.3-0.6
			c-5.8-0.7-12.7-3.5-20.7-8.3l-9.5-6.4l2.3-0.4c1.6-0.3,2.5-0.5,2.5-0.7v-0.4l-1.3-0.3c-2.4,0-4.6,0.5-6.4,1.5s-2.8,2-2.9,3.3
			c-0.1,0.5,0.1,0.9,0.5,1.1l0.4-0.1c0.7-1.6,1.6-2.6,2.7-3.2l0.9-0.2c1.1,2.1,5,4.8,11.7,8.3c7.4,3.9,13.7,6.2,18.7,7
			c-0.3,1.1-0.7,2.8-1,5.1l-0.3,4.7l-0.1,0.2v0.4h0.1l0.2,0.8l0.6-0.2v-0.4l6,1l6.3,0.8l0,0l0.5-0.1v-0.1l0.2-0.4l-0.1-0.2l-0.8-0.3
			l-6-0.9l-5.9-0.8l1.2-9.4h0.2l11.1,0.4l-0.1,0.6c0.2,1.2,0.1,3.1-0.2,5.7c-0.3,1.7-0.4,3.2-0.3,4.4l0.8,0.3l0.6-3.6l0.5-4.3v-3.2
			l4.9-0.4l-0.1,12.1l1.3,0.3h0.4l6.3-0.7h0.1l-0.1,0.2l0.2,1l-0.1,0.1l0.9,5.5c0.2,1.4,0.3,2.9,0.1,4.4c-0.3,1.9-2,3.8-5.2,5.9
			l-0.4,0.3c0-1-0.5-2.4-1.8-4l-0.5-0.6c-2.2-2.7-5.1-4.3-8.8-4.7l-2.1-0.2c-1.9-0.2-3.5,0-5,0.6c-1,0.4-1.7,0.9-1.9,1.4
			c-2.1-1.5-4.9-2.4-8.3-2.9l-9.2,0.4c-1.6,0.4-2.7,0.9-3.1,1.3c-2.8-3.4-5.1-7.8-7.2-13c-1.1-3-2.2-7.8-3.2-14.5l-1.1-8.3l-0.9,0.2
			c-0.2,1.3,0.3,5.2,1.5,11.9c1.1,6.5,2.1,10.4,2.6,11.8c4,8.7,8.1,14.8,12.6,18.1c4.3,3.2,11.3,5.4,20.9,6.7
			c3.1,0.4,7-0.1,11.7-1.3l2-0.7v-1.2c-3.9,1.9-8.5,2.5-13.7,1.8c-8.3-1.1-14.2-2.7-17.7-4.7c-2.3-1.4-4.5-3.3-6.5-5.6l2.6-1
			c2.5-0.8,5.3-0.9,8.5-0.5c3.3,0.5,6.1,1.6,8.3,3.4l3.2,2.8c0.2,0,0.6-0.2,0.9-0.7l-2.9-3.3l1.1-0.7c1.3-0.7,3.5-0.9,6.6-0.5
			c4.2,0.6,7.1,2.2,8.8,5l0.8,2l0.3,0.8l0.4,0.9l-0.7,0.3v1.2c5.3-1.8,8.1-4.6,8.6-8.3l0.1-5.1c-0.2-2.2-0.4-3.7-0.8-4.6v-0.1
			c0-0.8-0.1-1.3-0.3-1.7l2.1-0.1c1.3-0.2,2.1-0.8,2.2-1.6l0.8-6l0.4-3.4v-0.1c0.2-1.4,0.3-2.4,0.2-2.9l-1.1,0.2l-1.6,12.1
			c-1.1,1.2-4.6,1.6-10.6,1.3h-0.3h-0.1l0.1-0.2l0.1-7c0-1.9-0.1-3.3-0.3-4l12.7-2.2l1.1-0.2c4.7-1.1,9.6-2.4,14.9-4
			c0-0.2-0.9-0.7-2.8-1.6l-4.9-2.4c-0.7-0.4-1.6-1.2-2.7-2.5l-0.6-0.8l2.4-1.1c3.2-1.6,6-3.4,8.1-5.4c1.9-1.9,3-3.4,3.1-4.7l0.2-1.6
			c3.2-3.7,5.1-8.1,5.8-13.2c0.9-7-0.8-13.3-5-18.9c-4.3-5.5-10-8.8-16.9-9.7c-7-0.9-13.3,0.8-18.8,5.1c-2.4,1.8-4.4,3.9-5.9,6.3
			l-1.4-2c-4.3-5.5-9.9-8.8-16.9-9.7C89.1,32.41,82.79,34.11,77.19,38.31"/>
		<path class="st1" d="M138.79,34.91c-6.7-0.8-12.6,0.8-17.8,4.8c-2.5,1.9-4.5,4.1-6,6.5c2.7,4.8,3.7,10,2.9,15.6l4-2.9
			c0.3-2.3,1.4-4.1,3.2-5.5s3.8-2,6.1-1.7s4.1,1.4,5.5,3.2s1.9,3.9,1.7,6.2c-0.4,2.2-1.4,4.1-3.2,5.4c-1.9,1.4-3.9,2-6.2,1.7
			c-2.2-0.3-4.1-1.4-5.5-3.2c-1.4-1.8-1.9-3.9-1.6-6.1l-4,2.9c-0.4,3.5-1.5,6.7-3.1,9.5l1.7,2.4c1.8,2.5,4,4.5,6.5,6
			c2.7-1.1,5.7-2.7,9-4.8l5.7-3.7c3.8-2,7.3-2.8,10.5-2.4c3.8,0.5,6,2.1,6.7,4.8c2.5-3.3,4-7.1,4.6-11.5c0.8-6.7-0.7-12.7-4.8-17.9
			C150.69,38.91,145.4,35.81,138.79,34.91"/>
		<path class="st14" d="M131.2,51.71c-2.3-0.3-4.3,0.3-6.1,1.7s-2.9,3.2-3.2,5.5c-0.3,2.2,0.2,4.3,1.6,6.1c1.4,1.8,3.3,2.9,5.5,3.2
			c2.3,0.3,4.3-0.3,6.2-1.7c1.8-1.3,2.8-3.2,3.2-5.4c0.2-2.3-0.3-4.4-1.7-6.2C135.29,53.11,133.49,52.01,131.2,51.71l-0.4,3.1
			l1.1,0.2c2.1,0.6,3.1,2.1,3.2,4.3v1c-0.1,0.7-0.3,1.3-0.6,1.9l-0.8,1.1l-0.4,0.4c-1,0.9-2.3,1.2-3.8,1l-0.8-0.1l-0.1-0.1
			c-2.3-0.5-3.4-2-3.4-4.3v-1.1c0.1-0.7,0.3-1.3,0.7-1.9l0.7-1c0.6-0.7,1.4-1.2,2.4-1.4c0.5-0.1,1.2-0.1,1.8,0"/>
		<path d="M130.89,55.01l0.9,0.2c0.9,0.3,1.7,0.8,2.3,1.6s0.9,1.7,1,2.6l-0.1,1c-0.1,0.6-0.3,1.2-0.6,1.8c-0.3,0.5-0.7,0.9-1.2,1.3
			c-1.1,0.8-2.2,1.1-3.6,1l-0.9-0.2l-0.1,0.2l0.1,0.1l0.8,0.1c1.5,0.2,2.8-0.1,3.8-1l0.4-0.4l0.8-1.1c0.3-0.6,0.5-1.2,0.6-1.9v-1
			c-0.1-2.2-1.1-3.7-3.2-4.3l-1.1-0.2c-0.6-0.1-1.3-0.1-1.8,0c-1,0.2-1.8,0.7-2.4,1.4l-0.7,1c-0.4,0.6-0.6,1.2-0.7,1.9v1.1l0.3-0.1
			v-1c0.1-0.6,0.3-1.2,0.6-1.8l1.2-1.4c0.6-0.4,1.1-0.7,1.7-0.8L130.89,55.01"/>
		<path d="M131.79,55.21l-0.9-0.2l-1.9,0.1c-0.6,0.1-1.1,0.4-1.7,0.8l-1.2,1.4c-0.3,0.6-0.5,1.2-0.6,1.8v1c0,0.9,0.3,1.8,0.9,2.6
			c0.6,0.7,1.4,1.3,2.3,1.6l0.9,0.2c1.4,0.1,2.5-0.2,3.6-1c0.5-0.4,0.9-0.8,1.2-1.3c0.3-0.6,0.5-1.2,0.6-1.8l0.1-1
			c-0.1-0.9-0.4-1.8-1-2.6C133.49,56.01,132.7,55.51,131.79,55.21"/>
		<path class="st15" d="M125.49,60.11l-0.3,0.1c0,2.3,1.1,3.8,3.4,4.3l0.1-0.2c-0.9-0.3-1.7-0.9-2.3-1.6
			C125.79,61.91,125.49,61.01,125.49,60.11"/>
		<path class="st1" d="M136.29,99.71l-12.7,2.2c0.2,0.7,0.3,2.1,0.3,4l-0.1,7v0.2h0.3c6,0.3,9.5-0.1,10.6-1.3L136.29,99.71"/>
		<path class="st1" d="M105.19,102.21H105l-1.2,9.4l5.9,0.8l6,0.9c-0.1-1.2,0-2.7,0.3-4.4c0.3-2.6,0.4-4.5,0.2-5.7l0.1-0.6
			L105.19,102.21"/>
		<path class="st16" d="M104.1,102.01c-5-0.8-11.3-3.1-18.7-7c-6.7-3.5-10.6-6.2-11.7-8.3l1.1,8.3c1,6.7,2.1,11.5,3.2,14.5
			c2.1,5.2,4.4,9.6,7.2,13c0.4-0.4,1.5-0.9,3.1-1.3l9.2-0.4c3.4,0.5,6.2,1.4,8.3,2.9c0.2-0.5,0.9-1,1.9-1.4c1.5-0.6,3.1-0.8,5-0.6
			l2.1,0.2c3.7,0.4,6.6,2,8.8,4.7l0.5,0.6c1.3,1.6,1.8,3,1.8,4l0.4-0.3c3.2-2.1,4.9-4,5.2-5.9c0.2-1.5,0.1-3-0.1-4.4l-0.9-5.5
			l0.1-0.1l-0.2-1v-0.2l-6.3,0.7h-0.4l-1.3-0.3l0.1-12.1l-4.9,0.4v3.2l-0.5,4.3l-0.6,3.6l0.1,0.2l-0.2,0.4v0.1l-0.5,0.1l0,0
			l-6.3-0.8l-6-1v0.4l-0.6,0.2l-0.2-0.8h-0.1v-0.4l0.1-0.2l0.3-4.7C103.39,104.81,103.79,103.11,104.1,102.01"/>
		<path class="st17" d="M107.89,123.71l-1.1,0.7l2.9,3.3c-0.3,0.5-0.7,0.7-0.9,0.7l-3.2-2.8c-2.2-1.8-5-2.9-8.3-3.4
			c-3.2-0.4-6-0.3-8.5,0.5l-2.6,1c2,2.3,4.2,4.2,6.5,5.6c3.5,2,9.4,3.6,17.7,4.7c5.2,0.7,9.8,0.1,13.7-1.8l0.7-0.3l-0.4-0.9
			l-0.3-0.8l-0.8-2c-1.7-2.8-4.6-4.4-8.8-5C111.39,122.81,109.19,123.01,107.89,123.71"/>
		<path class="st1" d="M111.79,43.81c-4.1-5.3-9.4-8.3-16-9.2s-12.5,0.7-17.8,4.8s-8.4,9.4-9.2,16.1c-0.7,5,0.1,9.7,2.3,14
			c2-0.4,4.3-0.5,6.7-0.1c3.8,0.4,6.2,2.7,7.1,6.8c0.4,1.7,0.5,3.6,0.3,5.6l4.3,0.9c6.6,0.8,12.5-0.8,17.8-4.8
			c5.3-4.1,8.4-9.5,9.2-16.1l-9.6,0.5c-0.3,2.3-1.3,4.1-3.2,5.5c-1.8,1.4-3.8,1.9-6.1,1.7c-2.2-0.4-4.1-1.4-5.5-3.2
			c-1.4-1.8-1.9-3.9-1.6-6.2c0.3-2.2,1.3-4.1,3.1-5.5c1.9-1.4,3.9-1.9,6.2-1.6c2.3,0.3,4.1,1.3,5.5,3.1c1.4,1.9,1.9,3.9,1.6,6.2
			l9.6-0.5C117.39,55.11,115.79,49.11,111.79,43.81"/>
		<path class="st14" d="M99.79,53.01c-2.3-0.3-4.3,0.2-6.2,1.6c-1.8,1.4-2.8,3.3-3.1,5.5c-0.3,2.3,0.2,4.4,1.6,6.2
			c1.4,1.8,3.3,2.8,5.5,3.2c2.3,0.2,4.3-0.3,6.1-1.7c1.9-1.4,2.9-3.2,3.2-5.5c0.3-2.3-0.2-4.3-1.6-6.2
			C103.89,54.31,102.1,53.31,99.79,53.01l-0.4,3.2c3,0.5,4.4,2.4,4.3,5.5c-0.2,1.1-0.6,2.1-1.4,3c-1.1,1.2-2.5,1.7-4.2,1.4
			c-3.2-0.4-4.7-2.2-4.3-5.6c0.1-1,0.5-2,1.4-2.9c1-1.2,2.4-1.7,4.2-1.4"/>
		<path d="M102.29,64.71c0.8-0.9,1.2-1.9,1.4-3c0.1-3.1-1.3-5-4.3-5.5c-1.8-0.3-3.2,0.2-4.2,1.4c-0.9,0.9-1.3,1.9-1.4,2.9h0.1
			c0.2-1.3,0.8-2.4,1.8-3.1c1.1-0.9,2.2-1.2,3.6-1c1.3,0.2,2.4,0.8,3.2,1.8c0.8,1.1,1.1,2.2,0.9,3.6c-0.1,1.3-0.8,2.4-1.8,3.2
			c-1.1,0.8-2.2,1.1-3.6,0.9c-1.3-0.1-2.4-0.8-3.1-1.8c-0.9-1.1-1.2-2.2-1-3.6h-0.1c-0.4,3.4,1.1,5.2,4.3,5.6
			C99.79,66.41,101.19,65.91,102.29,64.71"/>
		<path d="M101.6,65.01c1-0.8,1.7-1.9,1.8-3.2c0.2-1.4-0.1-2.5-0.9-3.6c-0.8-1-1.9-1.6-3.2-1.8c-1.4-0.2-2.5,0.1-3.6,1
			c-1,0.7-1.6,1.8-1.8,3.1c-0.2,1.4,0.1,2.5,1,3.6c0.7,1,1.8,1.7,3.1,1.8C99.39,66.11,100.49,65.81,101.6,65.01"/>
		<path class="st17" d="M83.99,81.41l-0.1,1v0.3c-0.1,0.6-0.3,1.1-0.6,1.7c-0.1,0.4,0,1,0.6,1.6c0.6-0.4,1-1.4,1.2-3.1v-0.1l0.1-1
			c0.2-2,0.1-3.9-0.3-5.6c-0.9-4.1-3.3-6.4-7.1-6.8c-2.4-0.4-4.7-0.3-6.7,0.1l-1.2,0.3c-2.6,0.8-4.8,2.2-6.7,4.2
			c-2.4,2.6-3.8,5.4-4.2,8.3c-0.2,1.2,0,3,0.6,5.2c0.8,3.4,2.3,5.2,4.5,5.5l0.8-0.6c-3.5-3.7-5.1-7.1-4.6-10.2
			c0.3-2.3,1.6-4.7,3.9-7.2c1.9-1.9,4-3.2,6.4-3.9l1.2-0.3c1.7-0.3,3.6-0.3,5.6-0.1C82.39,71.41,84.6,74.91,83.99,81.41"/>
		<path class="st17" d="M92.39,137.41c-2.1-1.3-3.5-2.1-4.1-2.1l-0.8,0.3c0.6,2.8,5.6,4.8,15.1,6.1c8,1,15.2,0.6,21.5-1.3l2.3-0.7
			c5.5-2,8.5-4,8.7-6c0.1-0.2-0.1-0.4-0.5-0.7l-2,1.9c-1.6,1.3-3.3,2.4-5.3,3.3l-3.2,1.1c-5.8,1.8-12.9,2.1-21.4,1
			C98.6,139.81,95.1,138.81,92.39,137.41"/>
		<path class="st17" d="M66.99,78.11c-0.1-0.8-0.4-1.3-1.1-1.3c-0.8-0.2-1.3,0.2-1.4,1v0.7c0.2,0.4,0.5,0.7,1.1,0.7
			C66.39,79.31,66.89,79.01,66.99,78.11"/>
		<path class="st17" d="M73.69,73.31l-0.3-0.1c-0.5,0-0.8,0.2-1,0.6l-0.1,0.5v0.7c0.1,0.4,0.5,0.7,1.1,0.7h0.5
			c0.4-0.1,0.7-0.3,0.8-0.8l0.1-0.3C74.69,73.81,74.39,73.31,73.69,73.31"/>
		<path class="st17" d="M71.79,80.01c-0.1-0.8-0.4-1.3-1.1-1.3c-0.8-0.2-1.3,0.2-1.4,1v0.7c0.1,0.4,0.5,0.7,1.1,0.7
			C71.19,81.21,71.69,80.91,71.79,80.01"/>
		<path class="st9" d="M130.89,55.01l-1.9,0.1c-0.6,0.1-1.1,0.4-1.7,0.8l-1.2,1.4c-0.3,0.6-0.5,1.2-0.6,1.8v1c0,0.9,0.3,1.8,0.9,2.6
			c0.6,0.7,1.4,1.3,2.3,1.6l0.9,0.2c1.4,0.1,2.5-0.2,3.6-1c0.5-0.4,0.9-0.8,1.2-1.3c0.3-0.6,0.5-1.2,0.6-1.8l0.1-1
			c-0.1-0.9-0.4-1.8-1-2.6s-1.4-1.3-2.3-1.6L130.89,55.01"/>
		<path class="st9" d="M125.1,53.41c-1.8,1.4-2.9,3.2-3.2,5.5c-0.3,2.2,0.2,4.3,1.6,6.1c1.4,1.8,3.3,2.9,5.5,3.2
			c2.3,0.3,4.3-0.3,6.2-1.7c1.8-1.3,2.8-3.2,3.2-5.4c0.2-2.3-0.3-4.4-1.7-6.2s-3.2-2.9-5.5-3.2
			C128.89,51.41,126.89,52.01,125.1,53.41"/>
		<path class="st9" d="M103.39,61.81c0.2-1.4-0.1-2.5-0.9-3.6c-0.8-1-1.9-1.6-3.2-1.8c-1.4-0.2-2.5,0.1-3.6,1
			c-1,0.7-1.6,1.8-1.8,3.1c-0.2,1.4,0.1,2.5,1,3.6c0.7,1,1.8,1.7,3.1,1.8c1.4,0.2,2.5-0.1,3.6-0.9
			C102.6,64.21,103.29,63.11,103.39,61.81"/>
		<path class="st9" d="M93.6,54.61c-1.8,1.4-2.8,3.3-3.1,5.5c-0.3,2.3,0.2,4.4,1.6,6.2c1.4,1.8,3.3,2.8,5.5,3.2
			c2.3,0.2,4.3-0.3,6.1-1.7c1.9-1.4,2.9-3.2,3.2-5.5c0.3-2.3-0.2-4.3-1.6-6.2c-1.4-1.8-3.2-2.8-5.5-3.1
			C97.49,52.71,95.49,53.21,93.6,54.61"/>
	</g>
</g>
<g>
	<g>
		<path d="M76.69,31.81c-0.4,0-0.8,0.5-1.5,1.7l-0.9,1.8c-0.1,0.4,0.3,1,1.2,1.9l1,0.9l1,1c0.2,0,0.8-0.4,1.9-1.2l1.7-1.4v-0.1h-0.3
			l-0.4,0.2l-1.6-2.5C77.79,32.61,77.1,31.91,76.69,31.81"/>
		<path d="M89.99,27.01v0.7l-0.1,1.2l-0.4,4.2l-0.2,0.5v0.2h0.3l4.2-0.2c0.2-0.1,0.3-0.5,0.4-1.1l0.3-4.9l-2.4-0.6l-0.6-0.1
			L89.99,27.01"/>
		<path d="M108.99,31.71h-0.1l-1.1-0.9l-1.8-1c-0.3-0.1-1,0.9-2,2.8l-1.2,2.7l-0.3-0.1c-0.3-0.1-0.4,0-0.3,0.2l0.4,0.2v0.1l0.2,0.1
			l0.1-0.1l2.9,1.7l1.8-2.6l1.4-2.6l0.1-0.4L108.99,31.71"/>
		<path d="M147.29,30.31h-0.3l-2,5.1l-0.7-0.2l-0.4,0.1v0.1c0.6,0.2,1.2,0.5,1.8,0.9c0.6,0.5,1.4,0.8,2.2,1c0.5,0,1-0.7,1.8-2.3
			l1.2-2.4L147.29,30.31"/>
		<path d="M133.69,27.21v0.1l-0.1,0.3l-0.1,5.9v0.4l-0.9,0.3v0.1l0.2,0.1c0.5-0.3,1.7-0.3,3.5,0c0.7,0,1.1-0.2,1.2-0.7l0.4-5.9
			L133.69,27.21"/>
		<path d="M121.89,38.31c0.4,0.1,1.6-0.5,3.5-1.7l-1.3-3c-1-2.1-1.6-3.1-1.9-3.1l-3.5,1.8l3.7,5.5l-0.6,0.4v0.1H121.89"/>
	</g>
</g>
</svg>
